G04 #@! TF.GenerationSoftware,KiCad,Pcbnew,(6.0.9)*
G04 #@! TF.CreationDate,2023-03-18T16:21:46+02:00*
G04 #@! TF.ProjectId,HadesMicro,48616465-734d-4696-9372-6f2e6b696361,rev?*
G04 #@! TF.SameCoordinates,Original*
G04 #@! TF.FileFunction,Copper,L4,Bot*
G04 #@! TF.FilePolarity,Positive*
%FSLAX46Y46*%
G04 Gerber Fmt 4.6, Leading zero omitted, Abs format (unit mm)*
G04 Created by KiCad (PCBNEW (6.0.9)) date 2023-03-18 16:21:46*
%MOMM*%
%LPD*%
G01*
G04 APERTURE LIST*
%ADD10C,0.250000*%
G04 #@! TA.AperFunction,NonConductor*
%ADD11C,0.250000*%
G04 #@! TD*
G04 #@! TA.AperFunction,ComponentPad*
%ADD12R,0.800000X1.300000*%
G04 #@! TD*
G04 #@! TA.AperFunction,ComponentPad*
%ADD13O,0.800000X1.300000*%
G04 #@! TD*
G04 #@! TA.AperFunction,ComponentPad*
%ADD14R,1.300000X0.800000*%
G04 #@! TD*
G04 #@! TA.AperFunction,ComponentPad*
%ADD15O,1.300000X0.800000*%
G04 #@! TD*
G04 #@! TA.AperFunction,ComponentPad*
%ADD16R,1.000000X1.000000*%
G04 #@! TD*
G04 #@! TA.AperFunction,ComponentPad*
%ADD17O,1.000000X1.000000*%
G04 #@! TD*
G04 #@! TA.AperFunction,ComponentPad*
%ADD18R,1.700000X1.700000*%
G04 #@! TD*
G04 #@! TA.AperFunction,ComponentPad*
%ADD19O,1.700000X1.700000*%
G04 #@! TD*
G04 #@! TA.AperFunction,ComponentPad*
%ADD20C,6.400000*%
G04 #@! TD*
G04 #@! TA.AperFunction,ComponentPad*
%ADD21C,0.800000*%
G04 #@! TD*
G04 #@! TA.AperFunction,ComponentPad*
%ADD22R,2.400000X2.400000*%
G04 #@! TD*
G04 #@! TA.AperFunction,ComponentPad*
%ADD23C,2.400000*%
G04 #@! TD*
G04 #@! TA.AperFunction,ComponentPad*
%ADD24C,1.800000*%
G04 #@! TD*
G04 #@! TA.AperFunction,ComponentPad*
%ADD25C,2.000000*%
G04 #@! TD*
G04 #@! TA.AperFunction,ViaPad*
%ADD26C,0.800000*%
G04 #@! TD*
G04 #@! TA.AperFunction,ViaPad*
%ADD27C,0.600000*%
G04 #@! TD*
G04 #@! TA.AperFunction,Conductor*
%ADD28C,0.350000*%
G04 #@! TD*
G04 #@! TA.AperFunction,Conductor*
%ADD29C,0.250000*%
G04 #@! TD*
G04 #@! TA.AperFunction,Conductor*
%ADD30C,1.000000*%
G04 #@! TD*
G04 #@! TA.AperFunction,Conductor*
%ADD31C,0.500000*%
G04 #@! TD*
G04 #@! TA.AperFunction,Conductor*
%ADD32C,1.500000*%
G04 #@! TD*
G04 APERTURE END LIST*
D10*
D11*
X30022380Y-47047142D02*
X30022380Y-47523333D01*
X30498571Y-47570952D01*
X30450952Y-47523333D01*
X30403333Y-47428095D01*
X30403333Y-47190000D01*
X30450952Y-47094761D01*
X30498571Y-47047142D01*
X30593809Y-46999523D01*
X30831904Y-46999523D01*
X30927142Y-47047142D01*
X30974761Y-47094761D01*
X31022380Y-47190000D01*
X31022380Y-47428095D01*
X30974761Y-47523333D01*
X30927142Y-47570952D01*
X30022380Y-46666190D02*
X30022380Y-46047142D01*
X30403333Y-46380476D01*
X30403333Y-46237619D01*
X30450952Y-46142380D01*
X30498571Y-46094761D01*
X30593809Y-46047142D01*
X30831904Y-46047142D01*
X30927142Y-46094761D01*
X30974761Y-46142380D01*
X31022380Y-46237619D01*
X31022380Y-46523333D01*
X30974761Y-46618571D01*
X30927142Y-46666190D01*
X30022380Y-45713809D02*
X30022380Y-45094761D01*
X30403333Y-45428095D01*
X30403333Y-45285238D01*
X30450952Y-45190000D01*
X30498571Y-45142380D01*
X30593809Y-45094761D01*
X30831904Y-45094761D01*
X30927142Y-45142380D01*
X30974761Y-45190000D01*
X31022380Y-45285238D01*
X31022380Y-45570952D01*
X30974761Y-45666190D01*
X30927142Y-45713809D01*
X31117619Y-44904285D02*
X31117619Y-44142380D01*
X30022380Y-43999523D02*
X30022380Y-43332857D01*
X31022380Y-43761428D01*
X31022380Y-42951904D02*
X30022380Y-42951904D01*
X31022380Y-42523333D02*
X30498571Y-42523333D01*
X30403333Y-42570952D01*
X30355714Y-42666190D01*
X30355714Y-42809047D01*
X30403333Y-42904285D01*
X30450952Y-42951904D01*
X30022380Y-42142380D02*
X30022380Y-41523333D01*
X30403333Y-41856666D01*
X30403333Y-41713809D01*
X30450952Y-41618571D01*
X30498571Y-41570952D01*
X30593809Y-41523333D01*
X30831904Y-41523333D01*
X30927142Y-41570952D01*
X30974761Y-41618571D01*
X31022380Y-41713809D01*
X31022380Y-41999523D01*
X30974761Y-42094761D01*
X30927142Y-42142380D01*
X31117619Y-41332857D02*
X31117619Y-40570952D01*
X31022380Y-39809047D02*
X31022380Y-40380476D01*
X31022380Y-40094761D02*
X30022380Y-40094761D01*
X30165238Y-40190000D01*
X30260476Y-40285238D01*
X30308095Y-40380476D01*
X30355714Y-39380476D02*
X31022380Y-39380476D01*
X30450952Y-39380476D02*
X30403333Y-39332857D01*
X30355714Y-39237619D01*
X30355714Y-39094761D01*
X30403333Y-38999523D01*
X30498571Y-38951904D01*
X31022380Y-38951904D01*
X30355714Y-38475714D02*
X31022380Y-38475714D01*
X30450952Y-38475714D02*
X30403333Y-38428095D01*
X30355714Y-38332857D01*
X30355714Y-38190000D01*
X30403333Y-38094761D01*
X30498571Y-38047142D01*
X31022380Y-38047142D01*
X30022380Y-37666190D02*
X30022380Y-37047142D01*
X30403333Y-37380476D01*
X30403333Y-37237619D01*
X30450952Y-37142380D01*
X30498571Y-37094761D01*
X30593809Y-37047142D01*
X30831904Y-37047142D01*
X30927142Y-37094761D01*
X30974761Y-37142380D01*
X31022380Y-37237619D01*
X31022380Y-37523333D01*
X30974761Y-37618571D01*
X30927142Y-37666190D01*
X30117619Y-36666190D02*
X30070000Y-36618571D01*
X30022380Y-36523333D01*
X30022380Y-36285238D01*
X30070000Y-36190000D01*
X30117619Y-36142380D01*
X30212857Y-36094761D01*
X30308095Y-36094761D01*
X30450952Y-36142380D01*
X31022380Y-36713809D01*
X31022380Y-36094761D01*
X31117619Y-35904285D02*
X31117619Y-35142380D01*
X30355714Y-34999523D02*
X31022380Y-34809047D01*
X30546190Y-34618571D01*
X31022380Y-34428095D01*
X30355714Y-34237619D01*
X30022380Y-33666190D02*
X30022380Y-33570952D01*
X30070000Y-33475714D01*
X30117619Y-33428095D01*
X30212857Y-33380476D01*
X30403333Y-33332857D01*
X30641428Y-33332857D01*
X30831904Y-33380476D01*
X30927142Y-33428095D01*
X30974761Y-33475714D01*
X31022380Y-33570952D01*
X31022380Y-33666190D01*
X30974761Y-33761428D01*
X30927142Y-33809047D01*
X30831904Y-33856666D01*
X30641428Y-33904285D01*
X30403333Y-33904285D01*
X30212857Y-33856666D01*
X30117619Y-33809047D01*
X30070000Y-33761428D01*
X30022380Y-33666190D01*
X30117619Y-32951904D02*
X30070000Y-32904285D01*
X30022380Y-32809047D01*
X30022380Y-32570952D01*
X30070000Y-32475714D01*
X30117619Y-32428095D01*
X30212857Y-32380476D01*
X30308095Y-32380476D01*
X30450952Y-32428095D01*
X31022380Y-32999523D01*
X31022380Y-32380476D01*
X31022380Y-31951904D02*
X30022380Y-31951904D01*
X30641428Y-31856666D02*
X31022380Y-31570952D01*
X30355714Y-31570952D02*
X30736666Y-31951904D01*
X31022380Y-30618571D02*
X31022380Y-31190000D01*
X31022380Y-30904285D02*
X30022380Y-30904285D01*
X30165238Y-30999523D01*
X30260476Y-31094761D01*
X30308095Y-31190000D01*
X30355714Y-30190000D02*
X31022380Y-30190000D01*
X30450952Y-30190000D02*
X30403333Y-30142380D01*
X30355714Y-30047142D01*
X30355714Y-29904285D01*
X30403333Y-29809047D01*
X30498571Y-29761428D01*
X31022380Y-29761428D01*
X31022380Y-29237619D02*
X31022380Y-29047142D01*
X30974761Y-28951904D01*
X30927142Y-28904285D01*
X30784285Y-28809047D01*
X30593809Y-28761428D01*
X30212857Y-28761428D01*
X30117619Y-28809047D01*
X30070000Y-28856666D01*
X30022380Y-28951904D01*
X30022380Y-29142380D01*
X30070000Y-29237619D01*
X30117619Y-29285238D01*
X30212857Y-29332857D01*
X30450952Y-29332857D01*
X30546190Y-29285238D01*
X30593809Y-29237619D01*
X30641428Y-29142380D01*
X30641428Y-28951904D01*
X30593809Y-28856666D01*
X30546190Y-28809047D01*
X30450952Y-28761428D01*
X30022380Y-27856666D02*
X30022380Y-28332857D01*
X30498571Y-28380476D01*
X30450952Y-28332857D01*
X30403333Y-28237619D01*
X30403333Y-27999523D01*
X30450952Y-27904285D01*
X30498571Y-27856666D01*
X30593809Y-27809047D01*
X30831904Y-27809047D01*
X30927142Y-27856666D01*
X30974761Y-27904285D01*
X31022380Y-27999523D01*
X31022380Y-28237619D01*
X30974761Y-28332857D01*
X30927142Y-28380476D01*
D10*
D11*
X30962380Y-51280000D02*
X29962380Y-51280000D01*
X30438571Y-51280000D02*
X30438571Y-50708571D01*
X30962380Y-50708571D02*
X29962380Y-50708571D01*
X29962380Y-50375238D02*
X29962380Y-49803809D01*
X30962380Y-50089523D02*
X29962380Y-50089523D01*
X30438571Y-49137142D02*
X30486190Y-48994285D01*
X30533809Y-48946666D01*
X30629047Y-48899047D01*
X30771904Y-48899047D01*
X30867142Y-48946666D01*
X30914761Y-48994285D01*
X30962380Y-49089523D01*
X30962380Y-49470476D01*
X29962380Y-49470476D01*
X29962380Y-49137142D01*
X30010000Y-49041904D01*
X30057619Y-48994285D01*
X30152857Y-48946666D01*
X30248095Y-48946666D01*
X30343333Y-48994285D01*
X30390952Y-49041904D01*
X30438571Y-49137142D01*
X30438571Y-49470476D01*
X31343333Y-48184761D02*
X31343333Y-48232380D01*
X31295714Y-48327619D01*
X31200476Y-48375238D01*
X30724285Y-48375238D01*
X30629047Y-48422857D01*
X30581428Y-48518095D01*
X30533809Y-48422857D01*
X30438571Y-48375238D01*
X29962380Y-48375238D01*
X29867142Y-48327619D01*
X29819523Y-48232380D01*
X29819523Y-48184761D01*
D12*
X46482000Y-64770000D03*
D13*
X47732000Y-64770000D03*
X48982000Y-64770000D03*
X50232000Y-64770000D03*
D12*
X55753000Y-64770000D03*
D13*
X57003000Y-64770000D03*
X58253000Y-64770000D03*
X59503000Y-64770000D03*
D14*
X64770000Y-58674000D03*
D15*
X64770000Y-57424000D03*
X64770000Y-56174000D03*
X64770000Y-54924000D03*
D16*
X31369000Y-54292500D03*
D17*
X31369000Y-53022500D03*
D18*
X25000000Y-48000000D03*
D19*
X22460000Y-48000000D03*
X25000000Y-45460000D03*
X22460000Y-45460000D03*
X25000000Y-42920000D03*
X22460000Y-42920000D03*
X25000000Y-40380000D03*
X22460000Y-40380000D03*
X25000000Y-37840000D03*
X22460000Y-37840000D03*
X25000000Y-35300000D03*
X22460000Y-35300000D03*
X25000000Y-32760000D03*
X22460000Y-32760000D03*
X25000000Y-30220000D03*
X22460000Y-30220000D03*
D18*
X27541220Y-30251400D03*
D19*
X27541220Y-32791400D03*
X27541220Y-35331400D03*
X27541220Y-37871400D03*
X27541220Y-40411400D03*
X27541220Y-42951400D03*
X27541220Y-45491400D03*
X27541220Y-48031400D03*
D12*
X50292000Y-25146000D03*
D13*
X49042000Y-25146000D03*
X47792000Y-25146000D03*
X46542000Y-25146000D03*
D12*
X31623000Y-25146000D03*
D13*
X30373000Y-25146000D03*
D20*
X24000000Y-66000000D03*
D21*
X24000000Y-63600000D03*
X24000000Y-68400000D03*
X22302944Y-67697056D03*
X21600000Y-66000000D03*
X26400000Y-66000000D03*
X22302944Y-64302944D03*
X25697056Y-64302944D03*
X25697056Y-67697056D03*
X66000000Y-68400000D03*
X68400000Y-66000000D03*
X64302944Y-67697056D03*
X67697056Y-67697056D03*
X63600000Y-66000000D03*
X67697056Y-64302944D03*
D20*
X66000000Y-66000000D03*
D21*
X66000000Y-63600000D03*
X64302944Y-64302944D03*
X64302944Y-25697056D03*
X64302944Y-22302944D03*
X63600000Y-24000000D03*
D20*
X66000000Y-24000000D03*
D21*
X67697056Y-25697056D03*
X66000000Y-26400000D03*
X68400000Y-24000000D03*
X66000000Y-21600000D03*
X67697056Y-22302944D03*
X25697056Y-22302944D03*
X25697056Y-25697056D03*
X24000000Y-21600000D03*
X26400000Y-24000000D03*
X22302944Y-25697056D03*
X22302944Y-22302944D03*
X21600000Y-24000000D03*
D20*
X24000000Y-24000000D03*
D21*
X24000000Y-26400000D03*
D12*
X59436000Y-25146000D03*
D13*
X58186000Y-25146000D03*
X56936000Y-25146000D03*
X55686000Y-25146000D03*
D22*
X25463500Y-55181500D03*
D23*
X25463500Y-58681500D03*
D24*
X68117000Y-30288000D03*
D25*
X64317000Y-30438000D03*
D24*
X68117000Y-38038000D03*
D25*
X64317000Y-37888000D03*
D26*
X41579800Y-24536400D03*
X38785800Y-26136600D03*
X41579800Y-25501600D03*
X41579800Y-26517600D03*
X42595800Y-24536400D03*
X42595800Y-25501600D03*
X42595800Y-26517600D03*
X35814000Y-42316400D03*
X45466000Y-60452000D03*
X50038000Y-31216600D03*
X44577000Y-35306000D03*
X27668500Y-62720500D03*
X50723800Y-33934400D03*
X67206000Y-51077000D03*
X33883600Y-32435800D03*
X51181000Y-40005000D03*
X34036000Y-54356000D03*
X42545000Y-69215000D03*
X48158400Y-37744400D03*
X34112200Y-44119800D03*
X52578000Y-57150000D03*
X39598600Y-44348400D03*
X41910000Y-59182000D03*
X30988000Y-68961000D03*
X39141400Y-29286200D03*
X37966400Y-68929000D03*
X55245000Y-45847000D03*
X46228000Y-28854400D03*
X42926000Y-31369000D03*
D27*
X36033900Y-44796900D03*
D26*
X33598800Y-31018800D03*
X48133000Y-36449000D03*
X44196000Y-48031400D03*
X38100000Y-33020000D03*
X37515800Y-21463000D03*
X36499800Y-21463000D03*
X39547800Y-21463000D03*
X60960000Y-62230000D03*
X40640000Y-21590000D03*
D27*
X58039000Y-34493200D03*
D26*
X50800000Y-21488400D03*
X46990000Y-53340000D03*
X43840400Y-26517600D03*
X52070000Y-62230000D03*
X57150000Y-68580000D03*
X59690000Y-41910000D03*
X53340000Y-60960000D03*
X36957000Y-60071000D03*
X52959000Y-37084000D03*
X58674000Y-48895000D03*
X55880000Y-68580000D03*
X58420000Y-21488400D03*
X38100000Y-67310000D03*
X63500000Y-40640000D03*
X48260000Y-53340000D03*
X41910000Y-21590000D03*
X41910000Y-60452000D03*
X67310000Y-40640000D03*
X62230000Y-59690000D03*
X45720000Y-21488400D03*
X60960000Y-59690000D03*
X57150000Y-21488400D03*
X68580000Y-32893000D03*
X53340000Y-62230000D03*
X52070000Y-60960000D03*
X46990000Y-52070000D03*
X62230000Y-62230000D03*
X68580000Y-40640000D03*
X48260000Y-52070000D03*
X46990000Y-54610000D03*
X66040000Y-40640000D03*
X59690000Y-29210000D03*
X29235400Y-23114000D03*
X33528000Y-45720000D03*
D27*
X34340800Y-52832000D03*
D26*
X58420000Y-43180000D03*
X45720000Y-35306000D03*
X58420000Y-29210000D03*
X62230000Y-60960000D03*
X38531800Y-21463000D03*
X63500000Y-62230000D03*
X50800000Y-68580000D03*
X58420000Y-30480000D03*
X50800000Y-55880000D03*
X50800000Y-54610000D03*
X21590000Y-62230000D03*
X59690000Y-30480000D03*
X57150000Y-29210000D03*
X60960000Y-60960000D03*
X29235400Y-25146000D03*
X27940000Y-52070000D03*
X41910000Y-57912000D03*
X68580000Y-57150000D03*
X57150000Y-30480000D03*
X68580000Y-35560000D03*
X57150000Y-31750000D03*
X29235400Y-24130000D03*
D27*
X29464000Y-62484000D03*
D26*
X49555400Y-21488400D03*
X36957000Y-58801000D03*
X43942000Y-69215000D03*
X31750000Y-67310000D03*
X40005000Y-42082000D03*
X68580000Y-55880000D03*
X26670000Y-52070000D03*
X46990000Y-21488400D03*
X48260000Y-68580000D03*
X62230000Y-40640000D03*
X59690000Y-43180000D03*
X52578000Y-59944000D03*
X59690000Y-68580000D03*
X55880000Y-21488400D03*
X68580000Y-50927000D03*
X33020000Y-67310000D03*
X43180000Y-21590000D03*
X68580000Y-34290000D03*
X30480000Y-67310000D03*
X49530000Y-68580000D03*
X55880000Y-30480000D03*
X44704000Y-44704000D03*
X54610000Y-29210000D03*
X68580000Y-54610000D03*
X48260000Y-21488400D03*
X60960000Y-41910000D03*
D27*
X37287200Y-46990000D03*
D26*
X55880000Y-31750000D03*
X22860000Y-62230000D03*
X38811200Y-47117000D03*
X58420000Y-68580000D03*
X45720000Y-54610000D03*
X66264000Y-32863000D03*
X36957000Y-57531000D03*
X55880000Y-29210000D03*
X68580000Y-58420000D03*
X42672000Y-54356000D03*
X29210000Y-52070000D03*
X44450000Y-54610000D03*
X64770000Y-40640000D03*
X58420000Y-41910000D03*
D27*
X37846000Y-45974000D03*
D26*
X37846000Y-31877000D03*
X48641000Y-40259000D03*
X42926000Y-48920400D03*
X46064001Y-52795001D03*
X39497000Y-43053202D03*
X32419000Y-48107600D03*
X32419000Y-47083000D03*
X32419000Y-49115000D03*
X58928000Y-50165000D03*
X51181000Y-50038000D03*
X48133000Y-55245000D03*
X48133000Y-56388000D03*
X62661800Y-53873400D03*
X40386000Y-66929000D03*
X39624000Y-56261000D03*
X46990000Y-49911000D03*
X42037000Y-38481000D03*
X48006000Y-49911000D03*
X44323000Y-41021000D03*
X49022000Y-49911000D03*
X47371000Y-33939000D03*
X38862000Y-55499000D03*
X49276000Y-51562000D03*
X49911000Y-28194000D03*
X51689000Y-29337000D03*
X50292000Y-52451000D03*
X56896000Y-41021000D03*
X43053000Y-35560000D03*
X42291000Y-34798000D03*
X43561000Y-34036000D03*
X37592000Y-55626000D03*
X45339000Y-48031400D03*
D28*
X48133000Y-36449000D02*
X48133000Y-36449000D01*
X38735000Y-31369000D02*
X38735000Y-32385000D01*
X49416001Y-37732001D02*
X49403000Y-37719000D01*
X36333899Y-45096899D02*
X36033900Y-44796900D01*
X46833389Y-39721389D02*
X48387000Y-41275000D01*
X42814830Y-48031400D02*
X39906831Y-45123401D01*
X33598800Y-31018800D02*
X38384800Y-31018800D01*
X38100000Y-33020000D02*
X41529000Y-36449000D01*
X49403000Y-37719000D02*
X48133000Y-36449000D01*
X49416001Y-41007999D02*
X49416001Y-37732001D01*
X36033900Y-44796900D02*
X36033900Y-44372636D01*
X40216990Y-37634010D02*
X46508180Y-37634010D01*
X36848614Y-41002386D02*
X40216990Y-37634010D01*
X39906831Y-45123401D02*
X36360401Y-45123401D01*
X36033900Y-44372636D02*
X36848614Y-43557922D01*
X46508180Y-37634010D02*
X46833389Y-37959219D01*
X38735000Y-32385000D02*
X38100000Y-33020000D01*
X48387000Y-41275000D02*
X49149000Y-41275000D01*
X41529000Y-36449000D02*
X48133000Y-36449000D01*
X46833389Y-37959219D02*
X46833389Y-39721389D01*
X44196000Y-48031400D02*
X42814830Y-48031400D01*
X38100000Y-33020000D02*
X41275000Y-33020000D01*
X36848614Y-43557922D02*
X36848614Y-41002386D01*
X38384800Y-31018800D02*
X38735000Y-31369000D01*
X36360401Y-45123401D02*
X36333899Y-45096899D01*
X41275000Y-33020000D02*
X42926000Y-31369000D01*
X49149000Y-41275000D02*
X49416001Y-41007999D01*
D29*
X63488400Y-21488400D02*
X64302944Y-22302944D01*
X58420000Y-21488400D02*
X63488400Y-21488400D01*
X42926000Y-48920400D02*
X42926000Y-48920400D01*
D28*
X48641000Y-40259000D02*
X48641000Y-40259000D01*
X37846000Y-31877000D02*
X37846000Y-31877000D01*
X39878000Y-37084000D02*
X46736000Y-37084000D01*
X35038999Y-42688401D02*
X35038999Y-41944399D01*
X37338000Y-31877000D02*
X37846000Y-31877000D01*
X36470398Y-33168398D02*
X36470398Y-32744602D01*
X46736000Y-37084000D02*
X47383399Y-37731399D01*
X48241001Y-39859001D02*
X48641000Y-40259000D01*
X39979600Y-45974000D02*
X42926000Y-48920400D01*
X36470398Y-40491602D02*
X39878000Y-37084000D01*
X47383399Y-39001399D02*
X48241001Y-39859001D01*
X35560000Y-45974000D02*
X35052000Y-45466000D01*
X37846000Y-45974000D02*
X39979600Y-45974000D01*
X36470398Y-32744602D02*
X37338000Y-31877000D01*
X36470398Y-40513000D02*
X36470398Y-40491602D01*
X37846000Y-45974000D02*
X35560000Y-45974000D01*
X35052000Y-42701402D02*
X35038999Y-42688401D01*
X35038999Y-41944399D02*
X36470398Y-40513000D01*
X36470398Y-40513000D02*
X36470398Y-33168398D01*
X35052000Y-45466000D02*
X35052000Y-42701402D01*
X47383399Y-37731399D02*
X47383399Y-39001399D01*
D29*
X46064001Y-52795001D02*
X46064001Y-52795001D01*
D28*
X46114001Y-47384001D02*
X45762010Y-47032010D01*
X45762010Y-47032010D02*
X43206179Y-47032010D01*
X46114001Y-52179316D02*
X46114001Y-47384001D01*
X40373601Y-44199432D02*
X40373601Y-43929803D01*
X43206179Y-47032010D02*
X40373601Y-44199432D01*
X40373601Y-43929803D02*
X39896999Y-43453201D01*
X39896999Y-43453201D02*
X39497000Y-43053202D01*
X46064001Y-52229316D02*
X46114001Y-52179316D01*
X46064001Y-52795001D02*
X46064001Y-52229316D01*
D30*
X32419000Y-49115000D02*
X32419000Y-48107600D01*
D31*
X32419000Y-47083000D02*
X32419000Y-25942000D01*
D30*
X32419000Y-48107600D02*
X32419000Y-47083000D01*
D28*
X58928000Y-50165000D02*
X58928000Y-50165000D01*
X58655001Y-50437999D02*
X58928000Y-50165000D01*
X51181000Y-50038000D02*
X51580999Y-50437999D01*
X51580999Y-50437999D02*
X58655001Y-50437999D01*
D29*
X49022000Y-60452000D02*
X54737000Y-66167000D01*
X49022000Y-55568315D02*
X49022000Y-60452000D01*
X48133000Y-55245000D02*
X48698685Y-55245000D01*
X48698685Y-55245000D02*
X49022000Y-55568315D01*
X58253000Y-65670000D02*
X58253000Y-64770000D01*
X54737000Y-66167000D02*
X57756000Y-66167000D01*
X57756000Y-66167000D02*
X58253000Y-65670000D01*
X48133000Y-60325000D02*
X54610000Y-66802000D01*
X48133000Y-56388000D02*
X48133000Y-60325000D01*
X54610000Y-66802000D02*
X58674000Y-66802000D01*
X59503000Y-65973000D02*
X59503000Y-64770000D01*
X58674000Y-66802000D02*
X59503000Y-65973000D01*
X62661800Y-54439085D02*
X64396715Y-56174000D01*
X62661800Y-53873400D02*
X62661800Y-54439085D01*
X64396715Y-56174000D02*
X64770000Y-56174000D01*
X40386000Y-66929000D02*
X40386000Y-66929000D01*
X39624000Y-56261000D02*
X39624000Y-66167000D01*
X39624000Y-66167000D02*
X40386000Y-66929000D01*
D28*
X43434000Y-46482000D02*
X42037000Y-45085000D01*
X46990000Y-49911000D02*
X46990000Y-47400480D01*
X42037000Y-45085000D02*
X42037000Y-40889998D01*
X46990000Y-47400480D02*
X46071520Y-46482000D01*
X42037000Y-40889998D02*
X42037000Y-38481000D01*
X46071520Y-46482000D02*
X43434000Y-46482000D01*
X44534990Y-45931990D02*
X43923001Y-45320001D01*
X43923001Y-45320001D02*
X43923001Y-41420999D01*
X46299341Y-45931990D02*
X44534990Y-45931990D01*
X48006000Y-49911000D02*
X48006000Y-47638650D01*
X43923001Y-41420999D02*
X44323000Y-41021000D01*
X48006000Y-47638650D02*
X46299341Y-45931990D01*
D32*
X25000000Y-35300000D02*
X25000000Y-32760000D01*
X25000000Y-42920000D02*
X25000000Y-40380000D01*
X25000000Y-45460000D02*
X25000000Y-42920000D01*
X25000000Y-40380000D02*
X25000000Y-37840000D01*
X25000000Y-48000000D02*
X25000000Y-45460000D01*
X25463500Y-55181500D02*
X25000000Y-54718000D01*
X25000000Y-32760000D02*
X25000000Y-30220000D01*
X25000000Y-54718000D02*
X25000000Y-48000000D01*
X25000000Y-37840000D02*
X25000000Y-35300000D01*
D28*
X49966011Y-41235820D02*
X49966011Y-36534011D01*
X47770999Y-34338999D02*
X47371000Y-33939000D01*
X49022000Y-49911000D02*
X49022000Y-42179830D01*
X49022000Y-42179830D02*
X49966011Y-41235820D01*
X49966011Y-36534011D02*
X47770999Y-34338999D01*
D29*
X47244000Y-67945000D02*
X48982000Y-66207000D01*
X38862000Y-55499000D02*
X38862000Y-66802000D01*
X40005000Y-67945000D02*
X47244000Y-67945000D01*
X38862000Y-66802000D02*
X40005000Y-67945000D01*
X48982000Y-66207000D02*
X48982000Y-64770000D01*
D28*
X49276000Y-50795998D02*
X49797001Y-50274997D01*
X49911000Y-29210000D02*
X49911000Y-28194000D01*
X49276000Y-51562000D02*
X49276000Y-50795998D01*
X49797001Y-43828001D02*
X51956001Y-41669001D01*
X51956001Y-31255001D02*
X49911000Y-29210000D01*
X51956001Y-41669001D02*
X51956001Y-31255001D01*
X49797001Y-50274997D02*
X49797001Y-43828001D01*
X51689000Y-29337000D02*
X51689000Y-29337000D01*
X50292000Y-52451000D02*
X50292000Y-50557829D01*
X53848000Y-31496000D02*
X51689000Y-29337000D01*
X50405999Y-43996833D02*
X53848000Y-40554832D01*
X50292000Y-50557829D02*
X50405999Y-50443830D01*
X53848000Y-40554832D02*
X53848000Y-31496000D01*
X50405999Y-50443830D02*
X50405999Y-43996833D01*
X54610000Y-30734000D02*
X50292000Y-26416000D01*
X54610000Y-38735000D02*
X54610000Y-30734000D01*
X50292000Y-26416000D02*
X50292000Y-25146000D01*
X56896000Y-41021000D02*
X54610000Y-38735000D01*
X49042000Y-29693998D02*
X49042000Y-26146000D01*
X43053000Y-35560000D02*
X43175998Y-35560000D01*
X43175998Y-35560000D02*
X49042000Y-29693998D01*
X49042000Y-26146000D02*
X49042000Y-25146000D01*
X42690999Y-32751003D02*
X44615401Y-30826601D01*
X56936000Y-24146000D02*
X56936000Y-25146000D01*
X42690999Y-34398001D02*
X42690999Y-32751003D01*
X44615401Y-24202768D02*
X45492179Y-23325990D01*
X44615401Y-30826601D02*
X44615401Y-24202768D01*
X45492179Y-23325990D02*
X56115990Y-23325990D01*
X56115990Y-23325990D02*
X56936000Y-24146000D01*
X42291000Y-34798000D02*
X42690999Y-34398001D01*
X45165411Y-24430589D02*
X45720000Y-23876000D01*
X55416000Y-23876000D02*
X55686000Y-24146000D01*
X55686000Y-24146000D02*
X55686000Y-25146000D01*
X43561000Y-33470315D02*
X45165411Y-31865904D01*
X43561000Y-34036000D02*
X43561000Y-33470315D01*
X45720000Y-23876000D02*
X55416000Y-23876000D01*
X45165411Y-31865904D02*
X45165411Y-24430589D01*
D29*
X45339000Y-48031400D02*
X45339000Y-48031400D01*
X37592000Y-55626000D02*
X40970200Y-52247800D01*
X41960800Y-52247800D02*
X45339000Y-48869600D01*
X40970200Y-52247800D02*
X41960800Y-52247800D01*
X45339000Y-48869600D02*
X45339000Y-48031400D01*
G04 #@! TA.AperFunction,Conductor*
G36*
X64228176Y-20528502D02*
G01*
X64274669Y-20582158D01*
X64284773Y-20652432D01*
X64255279Y-20717012D01*
X64217258Y-20746767D01*
X64146397Y-20782872D01*
X64140687Y-20786169D01*
X63820265Y-20994253D01*
X63814939Y-20998123D01*
X63576165Y-21191478D01*
X63567700Y-21203733D01*
X63574034Y-21214824D01*
X67150376Y-24791166D01*
X67184402Y-24853478D01*
X67179337Y-24924293D01*
X67135343Y-24982196D01*
X67092941Y-25013004D01*
X67085803Y-25018190D01*
X66972420Y-25144115D01*
X66911974Y-25181354D01*
X66840990Y-25180002D01*
X66789689Y-25148899D01*
X66012812Y-24372022D01*
X65998868Y-24364408D01*
X65997035Y-24364539D01*
X65990420Y-24368790D01*
X65210311Y-25148899D01*
X65147999Y-25182925D01*
X65077184Y-25177860D01*
X65027580Y-25144115D01*
X64914197Y-25018190D01*
X64907059Y-25013004D01*
X64864657Y-24982196D01*
X64821304Y-24925974D01*
X64815229Y-24855237D01*
X64849624Y-24791166D01*
X65627978Y-24012812D01*
X65635592Y-23998868D01*
X65635461Y-23997035D01*
X65631210Y-23990420D01*
X63215690Y-21574900D01*
X63202614Y-21567759D01*
X63192247Y-21575216D01*
X62998123Y-21814939D01*
X62994253Y-21820265D01*
X62786169Y-22140687D01*
X62782872Y-22146397D01*
X62609422Y-22486811D01*
X62606740Y-22492836D01*
X62469829Y-22849502D01*
X62467788Y-22855784D01*
X62368906Y-23224816D01*
X62367535Y-23231266D01*
X62307766Y-23608629D01*
X62307080Y-23615167D01*
X62287084Y-23996699D01*
X62287084Y-24003301D01*
X62307080Y-24384833D01*
X62307766Y-24391371D01*
X62367535Y-24768734D01*
X62368906Y-24775184D01*
X62467788Y-25144216D01*
X62469829Y-25150498D01*
X62606740Y-25507164D01*
X62609422Y-25513189D01*
X62782872Y-25853603D01*
X62786169Y-25859313D01*
X62994253Y-26179735D01*
X62998123Y-26185061D01*
X63191478Y-26423835D01*
X63203733Y-26432300D01*
X63214824Y-26425966D01*
X63395577Y-26245213D01*
X63457889Y-26211187D01*
X63528704Y-26216252D01*
X63578307Y-26249997D01*
X63691691Y-26375922D01*
X63697037Y-26379806D01*
X63697038Y-26379807D01*
X63741231Y-26411916D01*
X63784584Y-26468138D01*
X63790659Y-26538875D01*
X63756264Y-26602946D01*
X63574900Y-26784310D01*
X63567759Y-26797386D01*
X63575216Y-26807753D01*
X63814935Y-27001874D01*
X63820272Y-27005751D01*
X64140685Y-27213830D01*
X64146394Y-27217127D01*
X64486811Y-27390578D01*
X64492836Y-27393260D01*
X64849502Y-27530171D01*
X64855784Y-27532212D01*
X65224816Y-27631094D01*
X65231266Y-27632465D01*
X65608629Y-27692234D01*
X65615167Y-27692920D01*
X65996699Y-27712916D01*
X66003301Y-27712916D01*
X66384833Y-27692920D01*
X66391371Y-27692234D01*
X66768734Y-27632465D01*
X66775184Y-27631094D01*
X67144216Y-27532212D01*
X67150498Y-27530171D01*
X67507164Y-27393260D01*
X67513189Y-27390578D01*
X67853606Y-27217127D01*
X67859315Y-27213830D01*
X68179728Y-27005751D01*
X68185065Y-27001874D01*
X68423835Y-26808522D01*
X68432300Y-26796267D01*
X68425966Y-26785176D01*
X68243736Y-26602946D01*
X68209710Y-26540634D01*
X68214775Y-26469819D01*
X68258769Y-26411916D01*
X68302962Y-26379807D01*
X68302963Y-26379806D01*
X68308309Y-26375922D01*
X68421693Y-26249997D01*
X68482138Y-26212758D01*
X68553122Y-26214110D01*
X68604423Y-26245213D01*
X68784310Y-26425100D01*
X68797386Y-26432241D01*
X68807753Y-26424784D01*
X69001877Y-26185061D01*
X69005747Y-26179735D01*
X69213831Y-25859313D01*
X69217128Y-25853603D01*
X69253233Y-25782742D01*
X69301981Y-25731127D01*
X69370896Y-25714061D01*
X69438098Y-25736962D01*
X69482250Y-25792559D01*
X69491500Y-25839945D01*
X69491500Y-29405025D01*
X69471498Y-29473146D01*
X69417842Y-29519639D01*
X69347568Y-29529743D01*
X69283274Y-29500497D01*
X69275538Y-29493835D01*
X69265973Y-29498238D01*
X68489021Y-30275189D01*
X68481408Y-30289132D01*
X68481539Y-30290966D01*
X68485790Y-30297580D01*
X69263307Y-31075096D01*
X69275313Y-31081652D01*
X69289010Y-31071188D01*
X69355285Y-31045729D01*
X69424803Y-31060142D01*
X69475493Y-31109852D01*
X69491500Y-31171314D01*
X69491500Y-37155025D01*
X69471498Y-37223146D01*
X69417842Y-37269639D01*
X69347568Y-37279743D01*
X69283274Y-37250497D01*
X69275538Y-37243835D01*
X69265973Y-37248238D01*
X68489021Y-38025189D01*
X68481408Y-38039132D01*
X68481539Y-38040966D01*
X68485790Y-38047580D01*
X69263307Y-38825096D01*
X69275313Y-38831652D01*
X69289010Y-38821188D01*
X69355285Y-38795729D01*
X69424803Y-38810142D01*
X69475493Y-38859852D01*
X69491500Y-38921314D01*
X69491500Y-64160055D01*
X69471498Y-64228176D01*
X69417842Y-64274669D01*
X69347568Y-64284773D01*
X69282988Y-64255279D01*
X69253233Y-64217258D01*
X69217128Y-64146397D01*
X69213831Y-64140687D01*
X69005747Y-63820265D01*
X69001877Y-63814939D01*
X68808522Y-63576165D01*
X68796267Y-63567700D01*
X68785176Y-63574034D01*
X68604423Y-63754787D01*
X68542111Y-63788813D01*
X68471296Y-63783748D01*
X68421692Y-63750003D01*
X68406169Y-63732763D01*
X68308309Y-63624078D01*
X68302962Y-63620193D01*
X68258769Y-63588084D01*
X68215416Y-63531862D01*
X68209341Y-63461125D01*
X68243736Y-63397054D01*
X68425100Y-63215690D01*
X68432241Y-63202614D01*
X68424784Y-63192247D01*
X68185065Y-62998126D01*
X68179728Y-62994249D01*
X67859315Y-62786170D01*
X67853606Y-62782873D01*
X67513189Y-62609422D01*
X67507164Y-62606740D01*
X67150498Y-62469829D01*
X67144216Y-62467788D01*
X66775184Y-62368906D01*
X66768734Y-62367535D01*
X66391371Y-62307766D01*
X66384833Y-62307080D01*
X66003301Y-62287084D01*
X65996699Y-62287084D01*
X65615167Y-62307080D01*
X65608629Y-62307766D01*
X65231266Y-62367535D01*
X65224816Y-62368906D01*
X64855784Y-62467788D01*
X64849502Y-62469829D01*
X64492836Y-62606740D01*
X64486811Y-62609422D01*
X64146397Y-62782872D01*
X64140687Y-62786169D01*
X63820265Y-62994253D01*
X63814939Y-62998123D01*
X63576165Y-63191478D01*
X63567700Y-63203733D01*
X63574034Y-63214824D01*
X65987188Y-65627978D01*
X66001132Y-65635592D01*
X66002965Y-65635461D01*
X66009580Y-65631210D01*
X66789689Y-64851101D01*
X66852001Y-64817075D01*
X66922816Y-64822140D01*
X66972419Y-64855885D01*
X67085803Y-64981810D01*
X67091149Y-64985694D01*
X67091150Y-64985695D01*
X67135343Y-65017804D01*
X67178696Y-65074026D01*
X67184771Y-65144763D01*
X67150376Y-65208834D01*
X65210311Y-67148899D01*
X65147999Y-67182925D01*
X65077184Y-67177860D01*
X65027580Y-67144115D01*
X65010556Y-67125208D01*
X64914197Y-67018190D01*
X64899389Y-67007431D01*
X64864657Y-66982196D01*
X64821304Y-66925974D01*
X64815229Y-66855237D01*
X64849624Y-66791166D01*
X65627978Y-66012812D01*
X65635592Y-65998868D01*
X65635461Y-65997035D01*
X65631210Y-65990420D01*
X63215690Y-63574900D01*
X63202614Y-63567759D01*
X63192247Y-63575216D01*
X62998123Y-63814939D01*
X62994253Y-63820265D01*
X62786169Y-64140687D01*
X62782872Y-64146397D01*
X62609422Y-64486811D01*
X62606740Y-64492836D01*
X62469829Y-64849502D01*
X62467788Y-64855784D01*
X62368906Y-65224816D01*
X62367535Y-65231266D01*
X62307766Y-65608629D01*
X62307080Y-65615167D01*
X62287084Y-65996699D01*
X62287084Y-66003301D01*
X62307080Y-66384833D01*
X62307766Y-66391371D01*
X62367535Y-66768734D01*
X62368906Y-66775184D01*
X62467788Y-67144216D01*
X62469829Y-67150498D01*
X62606740Y-67507164D01*
X62609422Y-67513189D01*
X62782872Y-67853603D01*
X62786169Y-67859313D01*
X62994253Y-68179735D01*
X62998123Y-68185061D01*
X63191478Y-68423835D01*
X63203733Y-68432300D01*
X63214824Y-68425966D01*
X63395577Y-68245213D01*
X63457889Y-68211187D01*
X63528704Y-68216252D01*
X63578307Y-68249997D01*
X63691691Y-68375922D01*
X63697037Y-68379806D01*
X63697038Y-68379807D01*
X63741231Y-68411916D01*
X63784584Y-68468138D01*
X63790659Y-68538875D01*
X63756264Y-68602946D01*
X63574900Y-68784310D01*
X63567759Y-68797386D01*
X63575216Y-68807753D01*
X63814935Y-69001874D01*
X63820272Y-69005751D01*
X64140685Y-69213830D01*
X64146394Y-69217126D01*
X64217257Y-69253233D01*
X64268872Y-69301981D01*
X64285938Y-69370896D01*
X64263037Y-69438098D01*
X64207440Y-69482250D01*
X64160054Y-69491500D01*
X43569380Y-69491500D01*
X43501259Y-69471498D01*
X43454766Y-69417842D01*
X43444070Y-69352329D01*
X43444571Y-69347568D01*
X43458504Y-69215000D01*
X43438542Y-69025072D01*
X43379527Y-68843444D01*
X43358921Y-68807753D01*
X43335681Y-68767500D01*
X43318943Y-68698504D01*
X43342164Y-68631413D01*
X43397971Y-68587526D01*
X43444800Y-68578500D01*
X47165233Y-68578500D01*
X47176416Y-68579027D01*
X47183909Y-68580702D01*
X47191835Y-68580453D01*
X47191836Y-68580453D01*
X47251986Y-68578562D01*
X47255945Y-68578500D01*
X47283856Y-68578500D01*
X47287791Y-68578003D01*
X47287856Y-68577995D01*
X47299693Y-68577062D01*
X47331951Y-68576048D01*
X47335970Y-68575922D01*
X47343889Y-68575673D01*
X47363343Y-68570021D01*
X47382700Y-68566013D01*
X47394930Y-68564468D01*
X47394931Y-68564468D01*
X47402797Y-68563474D01*
X47410168Y-68560555D01*
X47410170Y-68560555D01*
X47443912Y-68547196D01*
X47455142Y-68543351D01*
X47489983Y-68533229D01*
X47489984Y-68533229D01*
X47497593Y-68531018D01*
X47504412Y-68526985D01*
X47504417Y-68526983D01*
X47515028Y-68520707D01*
X47532776Y-68512012D01*
X47551617Y-68504552D01*
X47587387Y-68478564D01*
X47597307Y-68472048D01*
X47628535Y-68453580D01*
X47628538Y-68453578D01*
X47635362Y-68449542D01*
X47649683Y-68435221D01*
X47664717Y-68422380D01*
X47666431Y-68421135D01*
X47681107Y-68410472D01*
X47709298Y-68376395D01*
X47717288Y-68367616D01*
X49374247Y-66710657D01*
X49382537Y-66703113D01*
X49389018Y-66699000D01*
X49435659Y-66649332D01*
X49438413Y-66646491D01*
X49458134Y-66626770D01*
X49460612Y-66623575D01*
X49468318Y-66614553D01*
X49493158Y-66588101D01*
X49498586Y-66582321D01*
X49508346Y-66564568D01*
X49519199Y-66548045D01*
X49526753Y-66538306D01*
X49531613Y-66532041D01*
X49549176Y-66491457D01*
X49554383Y-66480827D01*
X49575695Y-66442060D01*
X49577666Y-66434383D01*
X49577668Y-66434378D01*
X49580732Y-66422442D01*
X49587138Y-66403730D01*
X49592033Y-66392419D01*
X49595181Y-66385145D01*
X49596421Y-66377317D01*
X49596423Y-66377310D01*
X49602099Y-66341476D01*
X49604505Y-66329856D01*
X49613528Y-66294711D01*
X49613528Y-66294710D01*
X49615500Y-66287030D01*
X49615500Y-66266776D01*
X49617051Y-66247065D01*
X49618980Y-66234886D01*
X49620220Y-66227057D01*
X49616059Y-66183038D01*
X49615500Y-66171181D01*
X49615500Y-65934017D01*
X49635502Y-65865896D01*
X49689158Y-65819403D01*
X49759432Y-65809299D01*
X49792749Y-65818910D01*
X49915961Y-65873767D01*
X49949712Y-65888794D01*
X50043112Y-65908647D01*
X50130056Y-65927128D01*
X50130061Y-65927128D01*
X50136513Y-65928500D01*
X50327487Y-65928500D01*
X50333939Y-65927128D01*
X50333944Y-65927128D01*
X50420888Y-65908647D01*
X50514288Y-65888794D01*
X50535864Y-65879188D01*
X50682722Y-65813803D01*
X50682724Y-65813802D01*
X50688752Y-65811118D01*
X50719688Y-65788642D01*
X50744157Y-65770864D01*
X50843253Y-65698866D01*
X50872211Y-65666705D01*
X50966621Y-65561852D01*
X50966625Y-65561847D01*
X50971040Y-65556944D01*
X51066527Y-65391556D01*
X51125542Y-65209928D01*
X51127740Y-65189020D01*
X51139649Y-65075707D01*
X51140500Y-65067610D01*
X51140500Y-64532594D01*
X51160502Y-64464473D01*
X51214158Y-64417980D01*
X51284432Y-64407876D01*
X51349012Y-64437370D01*
X51355595Y-64443499D01*
X54106343Y-67194247D01*
X54113887Y-67202537D01*
X54118000Y-67209018D01*
X54123777Y-67214443D01*
X54167667Y-67255658D01*
X54170509Y-67258413D01*
X54190230Y-67278134D01*
X54193425Y-67280612D01*
X54202447Y-67288318D01*
X54234679Y-67318586D01*
X54241628Y-67322406D01*
X54252432Y-67328346D01*
X54268956Y-67339199D01*
X54284959Y-67351613D01*
X54325543Y-67369176D01*
X54336173Y-67374383D01*
X54374940Y-67395695D01*
X54382617Y-67397666D01*
X54382622Y-67397668D01*
X54394558Y-67400732D01*
X54413266Y-67407137D01*
X54431855Y-67415181D01*
X54439683Y-67416421D01*
X54439690Y-67416423D01*
X54475524Y-67422099D01*
X54487144Y-67424505D01*
X54518959Y-67432673D01*
X54529970Y-67435500D01*
X54550224Y-67435500D01*
X54569934Y-67437051D01*
X54589943Y-67440220D01*
X54597835Y-67439474D01*
X54616580Y-67437702D01*
X54633962Y-67436059D01*
X54645819Y-67435500D01*
X58595233Y-67435500D01*
X58606416Y-67436027D01*
X58613909Y-67437702D01*
X58621835Y-67437453D01*
X58621836Y-67437453D01*
X58681986Y-67435562D01*
X58685945Y-67435500D01*
X58713856Y-67435500D01*
X58717791Y-67435003D01*
X58717856Y-67434995D01*
X58729693Y-67434062D01*
X58761951Y-67433048D01*
X58765970Y-67432922D01*
X58773889Y-67432673D01*
X58793343Y-67427021D01*
X58812700Y-67423013D01*
X58824930Y-67421468D01*
X58824931Y-67421468D01*
X58832797Y-67420474D01*
X58840168Y-67417555D01*
X58840170Y-67417555D01*
X58873912Y-67404196D01*
X58885142Y-67400351D01*
X58919983Y-67390229D01*
X58919984Y-67390229D01*
X58927593Y-67388018D01*
X58934412Y-67383985D01*
X58934417Y-67383983D01*
X58945028Y-67377707D01*
X58962776Y-67369012D01*
X58981617Y-67361552D01*
X59001987Y-67346753D01*
X59017387Y-67335564D01*
X59027307Y-67329048D01*
X59058535Y-67310580D01*
X59058538Y-67310578D01*
X59065362Y-67306542D01*
X59079683Y-67292221D01*
X59094717Y-67279380D01*
X59096432Y-67278134D01*
X59111107Y-67267472D01*
X59116158Y-67261367D01*
X59116163Y-67261362D01*
X59139299Y-67233396D01*
X59147287Y-67224618D01*
X59895253Y-66476652D01*
X59903539Y-66469112D01*
X59910018Y-66465000D01*
X59956644Y-66415348D01*
X59959398Y-66412507D01*
X59979135Y-66392770D01*
X59981615Y-66389573D01*
X59989320Y-66380551D01*
X60019586Y-66348321D01*
X60023405Y-66341375D01*
X60023407Y-66341372D01*
X60029348Y-66330566D01*
X60040199Y-66314047D01*
X60047758Y-66304301D01*
X60052614Y-66298041D01*
X60055759Y-66290772D01*
X60055762Y-66290768D01*
X60070174Y-66257463D01*
X60075391Y-66246813D01*
X60096695Y-66208060D01*
X60101733Y-66188437D01*
X60108137Y-66169734D01*
X60113033Y-66158420D01*
X60113033Y-66158419D01*
X60116181Y-66151145D01*
X60117420Y-66143322D01*
X60117423Y-66143312D01*
X60123099Y-66107476D01*
X60125505Y-66095856D01*
X60134528Y-66060711D01*
X60134528Y-66060710D01*
X60136500Y-66053030D01*
X60136500Y-66032776D01*
X60138051Y-66013065D01*
X60139598Y-66003301D01*
X60141220Y-65993057D01*
X60137059Y-65949038D01*
X60136500Y-65937181D01*
X60136500Y-65722524D01*
X60156502Y-65654403D01*
X60168858Y-65638221D01*
X60242040Y-65556944D01*
X60337527Y-65391556D01*
X60396542Y-65209928D01*
X60398740Y-65189020D01*
X60410649Y-65075707D01*
X60411500Y-65067610D01*
X60411500Y-64472390D01*
X60396542Y-64330072D01*
X60337527Y-64148444D01*
X60333049Y-64140687D01*
X60261949Y-64017540D01*
X60242040Y-63983056D01*
X60231686Y-63971556D01*
X60118675Y-63846045D01*
X60118674Y-63846044D01*
X60114253Y-63841134D01*
X59995407Y-63754787D01*
X59965094Y-63732763D01*
X59965093Y-63732762D01*
X59959752Y-63728882D01*
X59953724Y-63726198D01*
X59953722Y-63726197D01*
X59791319Y-63653891D01*
X59791318Y-63653891D01*
X59785288Y-63651206D01*
X59657662Y-63624078D01*
X59604944Y-63612872D01*
X59604939Y-63612872D01*
X59598487Y-63611500D01*
X59407513Y-63611500D01*
X59401061Y-63612872D01*
X59401056Y-63612872D01*
X59348338Y-63624078D01*
X59220712Y-63651206D01*
X59214682Y-63653891D01*
X59214681Y-63653891D01*
X59052278Y-63726197D01*
X59052276Y-63726198D01*
X59046248Y-63728882D01*
X59040907Y-63732762D01*
X59040906Y-63732763D01*
X58952061Y-63797313D01*
X58885193Y-63821172D01*
X58816042Y-63805091D01*
X58803939Y-63797313D01*
X58715094Y-63732763D01*
X58715093Y-63732762D01*
X58709752Y-63728882D01*
X58703724Y-63726198D01*
X58703722Y-63726197D01*
X58541319Y-63653891D01*
X58541318Y-63653891D01*
X58535288Y-63651206D01*
X58407662Y-63624078D01*
X58354944Y-63612872D01*
X58354939Y-63612872D01*
X58348487Y-63611500D01*
X58157513Y-63611500D01*
X58151061Y-63612872D01*
X58151056Y-63612872D01*
X58098338Y-63624078D01*
X57970712Y-63651206D01*
X57964682Y-63653891D01*
X57964681Y-63653891D01*
X57802278Y-63726197D01*
X57802276Y-63726198D01*
X57796248Y-63728882D01*
X57701634Y-63797623D01*
X57634770Y-63821480D01*
X57565618Y-63805400D01*
X57553515Y-63797622D01*
X57464843Y-63733198D01*
X57453471Y-63726632D01*
X57291161Y-63654367D01*
X57278675Y-63650310D01*
X57274722Y-63649470D01*
X57260659Y-63650543D01*
X57257000Y-63660497D01*
X57257000Y-64898000D01*
X57236998Y-64966121D01*
X57183342Y-65012614D01*
X57131000Y-65024000D01*
X56875000Y-65024000D01*
X56806879Y-65003998D01*
X56760386Y-64950342D01*
X56749000Y-64898000D01*
X56749000Y-63663818D01*
X56745027Y-63650287D01*
X56734532Y-63648778D01*
X56727325Y-63650310D01*
X56714839Y-63654367D01*
X56572177Y-63717884D01*
X56501810Y-63727318D01*
X56445364Y-63703604D01*
X56422368Y-63686370D01*
X56399705Y-63669385D01*
X56263316Y-63618255D01*
X56201134Y-63611500D01*
X55304866Y-63611500D01*
X55242684Y-63618255D01*
X55106295Y-63669385D01*
X54989739Y-63756739D01*
X54902385Y-63873295D01*
X54851255Y-64009684D01*
X54844500Y-64071866D01*
X54844500Y-65074406D01*
X54824498Y-65142527D01*
X54770842Y-65189020D01*
X54700568Y-65199124D01*
X54635988Y-65169630D01*
X54629405Y-65163501D01*
X52248778Y-62782873D01*
X49692405Y-60226500D01*
X49658379Y-60164188D01*
X49655500Y-60137405D01*
X49655500Y-59122134D01*
X63611500Y-59122134D01*
X63618255Y-59184316D01*
X63669385Y-59320705D01*
X63756739Y-59437261D01*
X63873295Y-59524615D01*
X64009684Y-59575745D01*
X64071866Y-59582500D01*
X65468134Y-59582500D01*
X65530316Y-59575745D01*
X65666705Y-59524615D01*
X65783261Y-59437261D01*
X65870615Y-59320705D01*
X65921745Y-59184316D01*
X65928500Y-59122134D01*
X65928500Y-58225866D01*
X65921745Y-58163684D01*
X65870615Y-58027295D01*
X65853630Y-58004632D01*
X65836396Y-57981636D01*
X65811549Y-57915129D01*
X65822116Y-57854823D01*
X65885633Y-57712161D01*
X65889690Y-57699675D01*
X65890530Y-57695722D01*
X65889457Y-57681659D01*
X65879503Y-57678000D01*
X63663818Y-57678000D01*
X63650287Y-57681973D01*
X63648778Y-57692468D01*
X63650310Y-57699675D01*
X63654367Y-57712161D01*
X63717884Y-57854823D01*
X63727318Y-57925190D01*
X63703604Y-57981636D01*
X63686370Y-58004632D01*
X63669385Y-58027295D01*
X63618255Y-58163684D01*
X63611500Y-58225866D01*
X63611500Y-59122134D01*
X49655500Y-59122134D01*
X49655500Y-57150000D01*
X51664496Y-57150000D01*
X51684458Y-57339928D01*
X51743473Y-57521556D01*
X51838960Y-57686944D01*
X51966747Y-57828866D01*
X52121248Y-57941118D01*
X52127276Y-57943802D01*
X52127278Y-57943803D01*
X52137790Y-57948483D01*
X52295712Y-58018794D01*
X52389112Y-58038647D01*
X52476056Y-58057128D01*
X52476061Y-58057128D01*
X52482513Y-58058500D01*
X52673487Y-58058500D01*
X52679939Y-58057128D01*
X52679944Y-58057128D01*
X52766888Y-58038647D01*
X52860288Y-58018794D01*
X53018210Y-57948483D01*
X53028722Y-57943803D01*
X53028724Y-57943802D01*
X53034752Y-57941118D01*
X53189253Y-57828866D01*
X53317040Y-57686944D01*
X53412527Y-57521556D01*
X53471542Y-57339928D01*
X53491504Y-57150000D01*
X53489297Y-57129006D01*
X53472232Y-56966635D01*
X53472232Y-56966633D01*
X53471542Y-56960072D01*
X53412527Y-56778444D01*
X53317040Y-56613056D01*
X53291064Y-56584206D01*
X53193675Y-56476045D01*
X53193674Y-56476044D01*
X53189253Y-56471134D01*
X53074829Y-56388000D01*
X53040094Y-56362763D01*
X53040093Y-56362762D01*
X53034752Y-56358882D01*
X53028724Y-56356198D01*
X53028722Y-56356197D01*
X52866319Y-56283891D01*
X52866318Y-56283891D01*
X52860288Y-56281206D01*
X52765227Y-56261000D01*
X52679944Y-56242872D01*
X52679939Y-56242872D01*
X52673487Y-56241500D01*
X52482513Y-56241500D01*
X52476061Y-56242872D01*
X52476056Y-56242872D01*
X52390773Y-56261000D01*
X52295712Y-56281206D01*
X52289682Y-56283891D01*
X52289681Y-56283891D01*
X52127278Y-56356197D01*
X52127276Y-56356198D01*
X52121248Y-56358882D01*
X52115907Y-56362762D01*
X52115906Y-56362763D01*
X52081171Y-56388000D01*
X51966747Y-56471134D01*
X51962326Y-56476044D01*
X51962325Y-56476045D01*
X51864937Y-56584206D01*
X51838960Y-56613056D01*
X51743473Y-56778444D01*
X51684458Y-56960072D01*
X51683768Y-56966633D01*
X51683768Y-56966635D01*
X51666703Y-57129006D01*
X51664496Y-57150000D01*
X49655500Y-57150000D01*
X49655500Y-55647078D01*
X49656027Y-55635894D01*
X49657701Y-55628406D01*
X49655562Y-55560347D01*
X49655500Y-55556390D01*
X49655500Y-55528459D01*
X49654994Y-55524453D01*
X49654061Y-55512607D01*
X49652922Y-55476352D01*
X49652673Y-55468425D01*
X49647022Y-55448973D01*
X49643014Y-55429621D01*
X49641468Y-55417383D01*
X49641467Y-55417381D01*
X49640474Y-55409518D01*
X49624194Y-55368401D01*
X49620359Y-55357200D01*
X49608018Y-55314721D01*
X49603985Y-55307902D01*
X49603983Y-55307897D01*
X49597707Y-55297286D01*
X49589010Y-55279536D01*
X49581552Y-55260698D01*
X49574917Y-55251565D01*
X49555572Y-55224940D01*
X49549053Y-55215016D01*
X49530578Y-55183775D01*
X49530574Y-55183770D01*
X49526542Y-55176952D01*
X49512218Y-55162628D01*
X49499376Y-55147593D01*
X49499031Y-55147118D01*
X49487472Y-55131208D01*
X49453406Y-55103026D01*
X49444627Y-55095037D01*
X49202337Y-54852747D01*
X49194797Y-54844461D01*
X49190685Y-54837982D01*
X49180602Y-54828513D01*
X49141034Y-54791357D01*
X49138192Y-54788602D01*
X49118455Y-54768865D01*
X49115258Y-54766385D01*
X49106236Y-54758680D01*
X49074006Y-54728414D01*
X49067060Y-54724595D01*
X49067057Y-54724593D01*
X49056251Y-54718652D01*
X49039732Y-54707801D01*
X49033733Y-54703148D01*
X49023726Y-54695386D01*
X49016457Y-54692241D01*
X49016453Y-54692238D01*
X48983148Y-54677826D01*
X48972498Y-54672609D01*
X48933745Y-54651305D01*
X48914122Y-54646267D01*
X48895419Y-54639863D01*
X48884105Y-54634967D01*
X48884104Y-54634967D01*
X48876830Y-54631819D01*
X48869005Y-54630580D01*
X48869003Y-54630579D01*
X48843906Y-54626604D01*
X48835250Y-54625233D01*
X48771097Y-54594820D01*
X48761329Y-54585099D01*
X48744253Y-54566134D01*
X48728190Y-54554463D01*
X48595094Y-54457763D01*
X48595093Y-54457762D01*
X48589752Y-54453882D01*
X48583724Y-54451198D01*
X48583722Y-54451197D01*
X48421319Y-54378891D01*
X48421318Y-54378891D01*
X48415288Y-54376206D01*
X48320227Y-54356000D01*
X48234944Y-54337872D01*
X48234939Y-54337872D01*
X48228487Y-54336500D01*
X48037513Y-54336500D01*
X48031061Y-54337872D01*
X48031056Y-54337872D01*
X47945773Y-54356000D01*
X47850712Y-54376206D01*
X47844682Y-54378891D01*
X47844681Y-54378891D01*
X47682278Y-54451197D01*
X47682276Y-54451198D01*
X47676248Y-54453882D01*
X47521747Y-54566134D01*
X47517329Y-54571041D01*
X47517325Y-54571045D01*
X47408203Y-54692238D01*
X47393960Y-54708056D01*
X47340306Y-54800988D01*
X47310980Y-54851782D01*
X47298473Y-54873444D01*
X47239458Y-55055072D01*
X47238768Y-55061633D01*
X47238768Y-55061635D01*
X47220260Y-55237729D01*
X47219496Y-55245000D01*
X47220186Y-55251565D01*
X47234824Y-55390834D01*
X47239458Y-55434928D01*
X47298473Y-55616556D01*
X47301776Y-55622278D01*
X47301777Y-55622279D01*
X47307716Y-55632565D01*
X47353524Y-55711906D01*
X47377538Y-55753500D01*
X47394276Y-55822495D01*
X47377538Y-55879499D01*
X47298473Y-56016444D01*
X47239458Y-56198072D01*
X47238768Y-56204633D01*
X47238768Y-56204635D01*
X47226086Y-56325298D01*
X47219496Y-56388000D01*
X47220186Y-56394565D01*
X47234894Y-56534500D01*
X47239458Y-56577928D01*
X47298473Y-56759556D01*
X47393960Y-56924944D01*
X47467137Y-57006215D01*
X47497853Y-57070221D01*
X47499500Y-57090524D01*
X47499500Y-60246233D01*
X47498973Y-60257416D01*
X47497298Y-60264909D01*
X47497547Y-60272835D01*
X47497547Y-60272836D01*
X47499438Y-60332986D01*
X47499500Y-60336945D01*
X47499500Y-60364856D01*
X47499997Y-60368790D01*
X47499997Y-60368791D01*
X47500005Y-60368856D01*
X47500938Y-60380693D01*
X47502327Y-60424889D01*
X47507978Y-60444339D01*
X47511987Y-60463700D01*
X47514526Y-60483797D01*
X47517445Y-60491168D01*
X47517445Y-60491170D01*
X47530804Y-60524912D01*
X47534649Y-60536142D01*
X47546982Y-60578593D01*
X47551015Y-60585412D01*
X47551017Y-60585417D01*
X47557293Y-60596028D01*
X47565988Y-60613776D01*
X47573448Y-60632617D01*
X47578110Y-60639033D01*
X47578110Y-60639034D01*
X47599436Y-60668387D01*
X47605952Y-60678307D01*
X47628458Y-60716362D01*
X47642779Y-60730683D01*
X47655619Y-60745716D01*
X47667528Y-60762107D01*
X47673634Y-60767158D01*
X47701605Y-60790298D01*
X47710384Y-60798288D01*
X50308501Y-63396405D01*
X50342527Y-63458717D01*
X50337462Y-63529532D01*
X50294915Y-63586368D01*
X50228395Y-63611179D01*
X50219406Y-63611500D01*
X50136513Y-63611500D01*
X50130061Y-63612872D01*
X50130056Y-63612872D01*
X50077338Y-63624078D01*
X49949712Y-63651206D01*
X49943682Y-63653891D01*
X49943681Y-63653891D01*
X49781278Y-63726197D01*
X49781276Y-63726198D01*
X49775248Y-63728882D01*
X49769907Y-63732762D01*
X49769906Y-63732763D01*
X49681061Y-63797313D01*
X49614193Y-63821172D01*
X49545042Y-63805091D01*
X49532939Y-63797313D01*
X49444094Y-63732763D01*
X49444093Y-63732762D01*
X49438752Y-63728882D01*
X49432724Y-63726198D01*
X49432722Y-63726197D01*
X49270319Y-63653891D01*
X49270318Y-63653891D01*
X49264288Y-63651206D01*
X49136662Y-63624078D01*
X49083944Y-63612872D01*
X49083939Y-63612872D01*
X49077487Y-63611500D01*
X48886513Y-63611500D01*
X48880061Y-63612872D01*
X48880056Y-63612872D01*
X48827338Y-63624078D01*
X48699712Y-63651206D01*
X48693682Y-63653891D01*
X48693681Y-63653891D01*
X48531278Y-63726197D01*
X48531276Y-63726198D01*
X48525248Y-63728882D01*
X48430634Y-63797623D01*
X48363770Y-63821480D01*
X48294618Y-63805400D01*
X48282515Y-63797622D01*
X48193843Y-63733198D01*
X48182471Y-63726632D01*
X48020161Y-63654367D01*
X48007675Y-63650310D01*
X48003722Y-63649470D01*
X47989659Y-63650543D01*
X47986000Y-63660497D01*
X47986000Y-65876182D01*
X47989973Y-65889713D01*
X48000468Y-65891222D01*
X48007675Y-65889690D01*
X48020161Y-65885633D01*
X48097229Y-65851320D01*
X48167596Y-65841886D01*
X48231893Y-65871992D01*
X48269706Y-65932081D01*
X48269031Y-66003074D01*
X48237573Y-66055522D01*
X47018500Y-67274595D01*
X46956188Y-67308621D01*
X46929405Y-67311500D01*
X41390395Y-67311500D01*
X41322274Y-67291498D01*
X41275781Y-67237842D01*
X41265677Y-67167568D01*
X41270563Y-67146562D01*
X41277502Y-67125208D01*
X41277503Y-67125203D01*
X41279542Y-67118928D01*
X41281296Y-67102246D01*
X41298814Y-66935565D01*
X41299504Y-66929000D01*
X41290765Y-66845856D01*
X41280232Y-66745635D01*
X41280232Y-66745633D01*
X41279542Y-66739072D01*
X41220527Y-66557444D01*
X41215101Y-66548045D01*
X41182439Y-66491473D01*
X41125040Y-66392056D01*
X41118537Y-66384833D01*
X41001675Y-66255045D01*
X41001674Y-66255044D01*
X40997253Y-66250134D01*
X40842752Y-66137882D01*
X40836724Y-66135198D01*
X40836722Y-66135197D01*
X40674319Y-66062891D01*
X40674318Y-66062891D01*
X40668288Y-66060206D01*
X40574888Y-66040353D01*
X40487944Y-66021872D01*
X40487939Y-66021872D01*
X40481487Y-66020500D01*
X40425595Y-66020500D01*
X40357474Y-66000498D01*
X40336500Y-65983595D01*
X40294405Y-65941500D01*
X40260379Y-65879188D01*
X40257500Y-65852405D01*
X40257500Y-65468134D01*
X45573500Y-65468134D01*
X45580255Y-65530316D01*
X45631385Y-65666705D01*
X45718739Y-65783261D01*
X45835295Y-65870615D01*
X45971684Y-65921745D01*
X46033866Y-65928500D01*
X46930134Y-65928500D01*
X46992316Y-65921745D01*
X47128705Y-65870615D01*
X47167038Y-65841886D01*
X47174364Y-65836396D01*
X47240871Y-65811549D01*
X47301177Y-65822116D01*
X47443839Y-65885633D01*
X47456325Y-65889690D01*
X47460278Y-65890530D01*
X47474341Y-65889457D01*
X47478000Y-65879503D01*
X47478000Y-63663818D01*
X47474027Y-63650287D01*
X47463532Y-63648778D01*
X47456325Y-63650310D01*
X47443839Y-63654367D01*
X47301177Y-63717884D01*
X47230810Y-63727318D01*
X47174364Y-63703604D01*
X47151368Y-63686370D01*
X47128705Y-63669385D01*
X46992316Y-63618255D01*
X46930134Y-63611500D01*
X46033866Y-63611500D01*
X45971684Y-63618255D01*
X45835295Y-63669385D01*
X45718739Y-63756739D01*
X45631385Y-63873295D01*
X45580255Y-64009684D01*
X45573500Y-64071866D01*
X45573500Y-65468134D01*
X40257500Y-65468134D01*
X40257500Y-60452000D01*
X44552496Y-60452000D01*
X44553186Y-60458565D01*
X44570705Y-60625246D01*
X44572458Y-60641928D01*
X44631473Y-60823556D01*
X44726960Y-60988944D01*
X44854747Y-61130866D01*
X45009248Y-61243118D01*
X45015276Y-61245802D01*
X45015278Y-61245803D01*
X45177681Y-61318109D01*
X45183712Y-61320794D01*
X45277113Y-61340647D01*
X45364056Y-61359128D01*
X45364061Y-61359128D01*
X45370513Y-61360500D01*
X45561487Y-61360500D01*
X45567939Y-61359128D01*
X45567944Y-61359128D01*
X45654887Y-61340647D01*
X45748288Y-61320794D01*
X45754319Y-61318109D01*
X45916722Y-61245803D01*
X45916724Y-61245802D01*
X45922752Y-61243118D01*
X46077253Y-61130866D01*
X46205040Y-60988944D01*
X46300527Y-60823556D01*
X46359542Y-60641928D01*
X46361296Y-60625246D01*
X46378814Y-60458565D01*
X46379504Y-60452000D01*
X46373275Y-60392737D01*
X46360232Y-60268635D01*
X46360232Y-60268633D01*
X46359542Y-60262072D01*
X46300527Y-60080444D01*
X46294287Y-60069635D01*
X46208341Y-59920774D01*
X46205040Y-59915056D01*
X46159744Y-59864749D01*
X46081675Y-59778045D01*
X46081674Y-59778044D01*
X46077253Y-59773134D01*
X45922752Y-59660882D01*
X45916724Y-59658198D01*
X45916722Y-59658197D01*
X45754319Y-59585891D01*
X45754318Y-59585891D01*
X45748288Y-59583206D01*
X45635721Y-59559279D01*
X45567944Y-59544872D01*
X45567939Y-59544872D01*
X45561487Y-59543500D01*
X45370513Y-59543500D01*
X45364061Y-59544872D01*
X45364056Y-59544872D01*
X45296279Y-59559279D01*
X45183712Y-59583206D01*
X45177682Y-59585891D01*
X45177681Y-59585891D01*
X45015278Y-59658197D01*
X45015276Y-59658198D01*
X45009248Y-59660882D01*
X44854747Y-59773134D01*
X44850326Y-59778044D01*
X44850325Y-59778045D01*
X44772257Y-59864749D01*
X44726960Y-59915056D01*
X44723659Y-59920774D01*
X44637714Y-60069635D01*
X44631473Y-60080444D01*
X44572458Y-60262072D01*
X44571768Y-60268633D01*
X44571768Y-60268635D01*
X44558725Y-60392737D01*
X44552496Y-60452000D01*
X40257500Y-60452000D01*
X40257500Y-59182000D01*
X40996496Y-59182000D01*
X40997186Y-59188565D01*
X41011830Y-59327891D01*
X41016458Y-59371928D01*
X41075473Y-59553556D01*
X41078776Y-59559278D01*
X41078777Y-59559279D01*
X41112686Y-59618010D01*
X41170960Y-59718944D01*
X41175378Y-59723851D01*
X41175379Y-59723852D01*
X41219753Y-59773134D01*
X41298747Y-59860866D01*
X41453248Y-59973118D01*
X41459276Y-59975802D01*
X41459278Y-59975803D01*
X41621681Y-60048109D01*
X41627712Y-60050794D01*
X41721113Y-60070647D01*
X41808056Y-60089128D01*
X41808061Y-60089128D01*
X41814513Y-60090500D01*
X42005487Y-60090500D01*
X42011939Y-60089128D01*
X42011944Y-60089128D01*
X42098887Y-60070647D01*
X42192288Y-60050794D01*
X42198319Y-60048109D01*
X42360722Y-59975803D01*
X42360724Y-59975802D01*
X42366752Y-59973118D01*
X42521253Y-59860866D01*
X42600247Y-59773134D01*
X42644621Y-59723852D01*
X42644622Y-59723851D01*
X42649040Y-59718944D01*
X42707314Y-59618010D01*
X42741223Y-59559279D01*
X42741224Y-59559278D01*
X42744527Y-59553556D01*
X42803542Y-59371928D01*
X42808171Y-59327891D01*
X42822814Y-59188565D01*
X42823504Y-59182000D01*
X42803542Y-58992072D01*
X42744527Y-58810444D01*
X42649040Y-58645056D01*
X42637294Y-58632010D01*
X42525675Y-58508045D01*
X42525674Y-58508044D01*
X42521253Y-58503134D01*
X42366752Y-58390882D01*
X42360724Y-58388198D01*
X42360722Y-58388197D01*
X42198319Y-58315891D01*
X42198318Y-58315891D01*
X42192288Y-58313206D01*
X42098887Y-58293353D01*
X42011944Y-58274872D01*
X42011939Y-58274872D01*
X42005487Y-58273500D01*
X41814513Y-58273500D01*
X41808061Y-58274872D01*
X41808056Y-58274872D01*
X41721113Y-58293353D01*
X41627712Y-58313206D01*
X41621682Y-58315891D01*
X41621681Y-58315891D01*
X41459278Y-58388197D01*
X41459276Y-58388198D01*
X41453248Y-58390882D01*
X41298747Y-58503134D01*
X41294326Y-58508044D01*
X41294325Y-58508045D01*
X41182707Y-58632010D01*
X41170960Y-58645056D01*
X41075473Y-58810444D01*
X41016458Y-58992072D01*
X40996496Y-59182000D01*
X40257500Y-59182000D01*
X40257500Y-56963524D01*
X40277502Y-56895403D01*
X40289858Y-56879221D01*
X40363040Y-56797944D01*
X40458527Y-56632556D01*
X40517542Y-56450928D01*
X40520814Y-56419803D01*
X40536814Y-56267565D01*
X40537504Y-56261000D01*
X40535599Y-56242872D01*
X40518232Y-56077635D01*
X40518232Y-56077633D01*
X40517542Y-56071072D01*
X40458527Y-55889444D01*
X40363040Y-55724056D01*
X40276917Y-55628406D01*
X40239675Y-55587045D01*
X40239674Y-55587044D01*
X40235253Y-55582134D01*
X40089657Y-55476352D01*
X40086094Y-55473763D01*
X40086093Y-55473762D01*
X40080752Y-55469882D01*
X40074724Y-55467198D01*
X40074722Y-55467197D01*
X39912319Y-55394891D01*
X39912318Y-55394891D01*
X39906288Y-55392206D01*
X39844529Y-55379079D01*
X39782057Y-55345351D01*
X39750894Y-55294768D01*
X39748939Y-55288749D01*
X39696527Y-55127444D01*
X39601040Y-54962056D01*
X39473253Y-54820134D01*
X39473956Y-54819501D01*
X39439752Y-54763989D01*
X39441101Y-54693005D01*
X39472206Y-54641698D01*
X40240504Y-53873400D01*
X61748296Y-53873400D01*
X61748986Y-53879965D01*
X61765018Y-54032498D01*
X61768258Y-54063328D01*
X61827273Y-54244956D01*
X61922760Y-54410344D01*
X62008269Y-54505311D01*
X62035627Y-54554463D01*
X62036777Y-54558421D01*
X62040787Y-54577785D01*
X62043326Y-54597882D01*
X62046245Y-54605253D01*
X62046245Y-54605255D01*
X62059604Y-54638997D01*
X62063449Y-54650227D01*
X62075782Y-54692678D01*
X62079815Y-54699497D01*
X62079817Y-54699502D01*
X62086093Y-54710113D01*
X62094788Y-54727861D01*
X62102248Y-54746702D01*
X62106910Y-54753118D01*
X62106910Y-54753119D01*
X62128236Y-54782472D01*
X62134752Y-54792392D01*
X62152296Y-54822056D01*
X62157258Y-54830447D01*
X62171579Y-54844768D01*
X62184419Y-54859801D01*
X62196328Y-54876192D01*
X62228511Y-54902816D01*
X62230405Y-54904383D01*
X62239184Y-54912373D01*
X63589211Y-56262400D01*
X63623363Y-56325298D01*
X63651206Y-56456288D01*
X63653891Y-56462318D01*
X63653891Y-56462319D01*
X63724005Y-56619797D01*
X63728882Y-56630752D01*
X63797623Y-56725366D01*
X63821480Y-56792230D01*
X63805400Y-56861382D01*
X63797622Y-56873485D01*
X63733198Y-56962157D01*
X63726632Y-56973529D01*
X63654367Y-57135839D01*
X63650310Y-57148325D01*
X63649470Y-57152278D01*
X63650543Y-57166341D01*
X63660497Y-57170000D01*
X65876182Y-57170000D01*
X65889713Y-57166027D01*
X65891222Y-57155532D01*
X65889690Y-57148325D01*
X65885633Y-57135839D01*
X65813368Y-56973529D01*
X65806802Y-56962157D01*
X65742378Y-56873485D01*
X65718519Y-56806617D01*
X65734600Y-56737466D01*
X65742366Y-56725380D01*
X65811118Y-56630752D01*
X65815996Y-56619797D01*
X65886109Y-56462319D01*
X65886109Y-56462318D01*
X65888794Y-56456288D01*
X65922024Y-56299955D01*
X65927128Y-56275944D01*
X65927128Y-56275939D01*
X65928500Y-56269487D01*
X65928500Y-56078513D01*
X65926919Y-56071072D01*
X65890166Y-55898169D01*
X65888794Y-55891712D01*
X65852131Y-55809365D01*
X65813803Y-55723278D01*
X65813802Y-55723276D01*
X65811118Y-55717248D01*
X65742687Y-55623061D01*
X65718828Y-55556193D01*
X65734909Y-55487042D01*
X65742687Y-55474939D01*
X65807237Y-55386094D01*
X65807238Y-55386093D01*
X65811118Y-55380752D01*
X65826880Y-55345351D01*
X65886109Y-55212319D01*
X65886109Y-55212318D01*
X65888794Y-55206288D01*
X65922271Y-55048794D01*
X65927128Y-55025944D01*
X65927128Y-55025939D01*
X65928500Y-55019487D01*
X65928500Y-54828513D01*
X65926585Y-54819501D01*
X65900203Y-54695386D01*
X65888794Y-54641712D01*
X65885745Y-54634863D01*
X65813803Y-54473278D01*
X65813802Y-54473276D01*
X65811118Y-54467248D01*
X65698866Y-54312747D01*
X65636627Y-54256707D01*
X65561852Y-54189379D01*
X65561851Y-54189378D01*
X65556944Y-54184960D01*
X65391556Y-54089473D01*
X65209928Y-54030458D01*
X65203367Y-54029768D01*
X65203365Y-54029768D01*
X65150111Y-54024171D01*
X65067610Y-54015500D01*
X64472390Y-54015500D01*
X64389889Y-54024171D01*
X64336635Y-54029768D01*
X64336633Y-54029768D01*
X64330072Y-54030458D01*
X64148444Y-54089473D01*
X63983056Y-54184960D01*
X63978149Y-54189378D01*
X63978148Y-54189379D01*
X63903373Y-54256707D01*
X63841134Y-54312747D01*
X63766663Y-54415247D01*
X63755414Y-54430730D01*
X63699191Y-54474083D01*
X63628455Y-54480158D01*
X63564383Y-54445763D01*
X63516102Y-54397482D01*
X63482076Y-54335170D01*
X63487141Y-54264355D01*
X63490675Y-54256857D01*
X63490339Y-54256707D01*
X63493023Y-54250679D01*
X63496327Y-54244956D01*
X63555342Y-54063328D01*
X63558583Y-54032498D01*
X63574614Y-53879965D01*
X63575304Y-53873400D01*
X63569592Y-53819056D01*
X63556032Y-53690035D01*
X63556032Y-53690033D01*
X63555342Y-53683472D01*
X63496327Y-53501844D01*
X63485176Y-53482529D01*
X63452600Y-53426106D01*
X63400840Y-53336456D01*
X63385838Y-53319794D01*
X63277475Y-53199445D01*
X63277474Y-53199444D01*
X63273053Y-53194534D01*
X63118552Y-53082282D01*
X63112524Y-53079598D01*
X63112522Y-53079597D01*
X62950119Y-53007291D01*
X62950118Y-53007291D01*
X62944088Y-53004606D01*
X62838799Y-52982226D01*
X62763744Y-52966272D01*
X62763739Y-52966272D01*
X62757287Y-52964900D01*
X62566313Y-52964900D01*
X62559861Y-52966272D01*
X62559856Y-52966272D01*
X62484801Y-52982226D01*
X62379512Y-53004606D01*
X62373482Y-53007291D01*
X62373481Y-53007291D01*
X62211078Y-53079597D01*
X62211076Y-53079598D01*
X62205048Y-53082282D01*
X62050547Y-53194534D01*
X62046126Y-53199444D01*
X62046125Y-53199445D01*
X61937763Y-53319794D01*
X61922760Y-53336456D01*
X61871000Y-53426106D01*
X61838425Y-53482529D01*
X61827273Y-53501844D01*
X61768258Y-53683472D01*
X61767568Y-53690033D01*
X61767568Y-53690035D01*
X61754008Y-53819056D01*
X61748296Y-53873400D01*
X40240504Y-53873400D01*
X41195699Y-52918205D01*
X41258011Y-52884179D01*
X41284794Y-52881300D01*
X41882033Y-52881300D01*
X41893216Y-52881827D01*
X41900709Y-52883502D01*
X41908635Y-52883253D01*
X41908636Y-52883253D01*
X41968786Y-52881362D01*
X41972745Y-52881300D01*
X42000656Y-52881300D01*
X42004591Y-52880803D01*
X42004656Y-52880795D01*
X42016493Y-52879862D01*
X42048751Y-52878848D01*
X42052770Y-52878722D01*
X42060689Y-52878473D01*
X42080143Y-52872821D01*
X42099500Y-52868813D01*
X42111730Y-52867268D01*
X42111731Y-52867268D01*
X42119597Y-52866274D01*
X42126968Y-52863355D01*
X42126970Y-52863355D01*
X42160712Y-52849996D01*
X42171942Y-52846151D01*
X42206783Y-52836029D01*
X42206784Y-52836029D01*
X42214393Y-52833818D01*
X42221212Y-52829785D01*
X42221217Y-52829783D01*
X42231828Y-52823507D01*
X42249576Y-52814812D01*
X42268417Y-52807352D01*
X42304187Y-52781364D01*
X42314107Y-52774848D01*
X42345335Y-52756380D01*
X42345338Y-52756378D01*
X42352162Y-52752342D01*
X42366483Y-52738021D01*
X42381517Y-52725180D01*
X42391494Y-52717931D01*
X42397907Y-52713272D01*
X42426098Y-52679195D01*
X42434088Y-52670416D01*
X45215406Y-49889098D01*
X45277718Y-49855072D01*
X45348533Y-49860137D01*
X45405369Y-49902684D01*
X45430180Y-49969204D01*
X45430501Y-49978193D01*
X45430501Y-51944216D01*
X45419338Y-51996067D01*
X45406987Y-52023421D01*
X45405602Y-52030893D01*
X45404098Y-52035694D01*
X45401119Y-52046151D01*
X45399871Y-52051012D01*
X45397112Y-52058088D01*
X45389181Y-52118335D01*
X45389083Y-52119078D01*
X45388051Y-52125595D01*
X45379965Y-52169221D01*
X45349712Y-52230568D01*
X45331977Y-52250265D01*
X45324961Y-52258057D01*
X45229474Y-52423445D01*
X45170459Y-52605073D01*
X45169769Y-52611634D01*
X45169769Y-52611636D01*
X45159729Y-52707166D01*
X45150497Y-52795001D01*
X45151187Y-52801566D01*
X45159773Y-52883253D01*
X45170459Y-52984929D01*
X45229474Y-53166557D01*
X45232777Y-53172279D01*
X45232778Y-53172280D01*
X45248374Y-53199293D01*
X45324961Y-53331945D01*
X45329379Y-53336852D01*
X45329380Y-53336853D01*
X45409744Y-53426106D01*
X45452748Y-53473867D01*
X45526888Y-53527733D01*
X45583361Y-53568763D01*
X45607249Y-53586119D01*
X45613277Y-53588803D01*
X45613279Y-53588804D01*
X45775682Y-53661110D01*
X45781713Y-53663795D01*
X45875113Y-53683648D01*
X45962057Y-53702129D01*
X45962062Y-53702129D01*
X45968514Y-53703501D01*
X46159488Y-53703501D01*
X46165940Y-53702129D01*
X46165945Y-53702129D01*
X46252889Y-53683648D01*
X46346289Y-53663795D01*
X46352320Y-53661110D01*
X46514723Y-53588804D01*
X46514725Y-53588803D01*
X46520753Y-53586119D01*
X46544642Y-53568763D01*
X46601114Y-53527733D01*
X46675254Y-53473867D01*
X46718258Y-53426106D01*
X46798622Y-53336853D01*
X46798623Y-53336852D01*
X46803041Y-53331945D01*
X46879628Y-53199293D01*
X46895224Y-53172280D01*
X46895225Y-53172279D01*
X46898528Y-53166557D01*
X46957543Y-52984929D01*
X46968230Y-52883253D01*
X46976815Y-52801566D01*
X46977505Y-52795001D01*
X46968273Y-52707166D01*
X46958233Y-52611636D01*
X46958233Y-52611634D01*
X46957543Y-52605073D01*
X46898528Y-52423445D01*
X46855684Y-52349237D01*
X46817529Y-52283150D01*
X46803284Y-52222426D01*
X46801162Y-52222548D01*
X46797710Y-52162673D01*
X46797501Y-52155421D01*
X46797501Y-50945500D01*
X46817503Y-50877379D01*
X46871159Y-50830886D01*
X46923501Y-50819500D01*
X47085487Y-50819500D01*
X47091939Y-50818128D01*
X47091944Y-50818128D01*
X47182501Y-50798879D01*
X47272288Y-50779794D01*
X47446752Y-50702118D01*
X47517118Y-50692684D01*
X47549247Y-50702118D01*
X47549248Y-50702118D01*
X47723712Y-50779794D01*
X47813499Y-50798879D01*
X47904056Y-50818128D01*
X47904061Y-50818128D01*
X47910513Y-50819500D01*
X48101487Y-50819500D01*
X48107939Y-50818128D01*
X48107944Y-50818128D01*
X48198501Y-50798879D01*
X48288288Y-50779794D01*
X48294315Y-50777111D01*
X48294323Y-50777108D01*
X48415252Y-50723267D01*
X48485619Y-50713833D01*
X48549916Y-50743940D01*
X48587729Y-50804029D01*
X48592500Y-50838374D01*
X48592500Y-50915006D01*
X48572498Y-50983127D01*
X48560135Y-50999317D01*
X48541383Y-51020143D01*
X48541380Y-51020147D01*
X48536960Y-51025056D01*
X48533657Y-51030777D01*
X48492102Y-51102753D01*
X48441473Y-51190444D01*
X48382458Y-51372072D01*
X48362496Y-51562000D01*
X48382458Y-51751928D01*
X48441473Y-51933556D01*
X48444776Y-51939278D01*
X48444777Y-51939279D01*
X48449331Y-51947166D01*
X48536960Y-52098944D01*
X48541378Y-52103851D01*
X48541379Y-52103852D01*
X48648253Y-52222548D01*
X48664747Y-52240866D01*
X48819248Y-52353118D01*
X48825276Y-52355802D01*
X48825278Y-52355803D01*
X48987681Y-52428109D01*
X48993712Y-52430794D01*
X49057888Y-52444435D01*
X49174056Y-52469128D01*
X49174061Y-52469128D01*
X49180513Y-52470500D01*
X49267094Y-52470500D01*
X49335215Y-52490502D01*
X49381708Y-52544158D01*
X49392404Y-52583329D01*
X49395379Y-52611636D01*
X49398458Y-52640928D01*
X49457473Y-52822556D01*
X49460776Y-52828278D01*
X49460777Y-52828279D01*
X49492660Y-52883502D01*
X49552960Y-52987944D01*
X49557378Y-52992851D01*
X49557379Y-52992852D01*
X49637902Y-53082282D01*
X49680747Y-53129866D01*
X49835248Y-53242118D01*
X49841276Y-53244802D01*
X49841278Y-53244803D01*
X49846242Y-53247013D01*
X50009712Y-53319794D01*
X50089968Y-53336853D01*
X50190056Y-53358128D01*
X50190061Y-53358128D01*
X50196513Y-53359500D01*
X50387487Y-53359500D01*
X50393939Y-53358128D01*
X50393944Y-53358128D01*
X50494032Y-53336853D01*
X50574288Y-53319794D01*
X50737758Y-53247013D01*
X50742722Y-53244803D01*
X50742724Y-53244802D01*
X50748752Y-53242118D01*
X50903253Y-53129866D01*
X50946098Y-53082282D01*
X51026621Y-52992852D01*
X51026622Y-52992851D01*
X51031040Y-52987944D01*
X51091340Y-52883502D01*
X51123223Y-52828279D01*
X51123224Y-52828278D01*
X51126527Y-52822556D01*
X51185542Y-52640928D01*
X51189311Y-52605073D01*
X51204814Y-52457565D01*
X51205504Y-52451000D01*
X51204814Y-52444435D01*
X51186232Y-52267635D01*
X51186232Y-52267633D01*
X51185542Y-52261072D01*
X51126527Y-52079444D01*
X51104460Y-52041222D01*
X51034343Y-51919777D01*
X51031040Y-51914056D01*
X51026620Y-51909147D01*
X51026617Y-51909143D01*
X51007865Y-51888317D01*
X50977147Y-51824310D01*
X50975500Y-51804006D01*
X50975500Y-51090739D01*
X50995502Y-51022618D01*
X51049158Y-50976125D01*
X51119432Y-50966021D01*
X51179245Y-50991585D01*
X51224327Y-51026934D01*
X51231251Y-51030060D01*
X51235560Y-51032670D01*
X51244975Y-51038041D01*
X51249423Y-51040426D01*
X51255638Y-51044794D01*
X51262715Y-51047553D01*
X51312956Y-51067141D01*
X51319028Y-51069693D01*
X51375104Y-51095013D01*
X51382581Y-51096399D01*
X51387401Y-51097909D01*
X51397834Y-51100881D01*
X51402695Y-51102129D01*
X51409771Y-51104888D01*
X51470018Y-51112819D01*
X51470761Y-51112917D01*
X51477277Y-51113949D01*
X51477736Y-51114034D01*
X51537766Y-51125160D01*
X51545346Y-51124723D01*
X51545347Y-51124723D01*
X51597641Y-51121708D01*
X51604893Y-51121499D01*
X58626956Y-51121499D01*
X58635525Y-51121791D01*
X58683459Y-51125059D01*
X58683463Y-51125059D01*
X58691035Y-51125575D01*
X58698512Y-51124270D01*
X58698515Y-51124270D01*
X58751648Y-51114997D01*
X58758172Y-51114034D01*
X58811692Y-51107557D01*
X58819236Y-51106644D01*
X58826346Y-51103957D01*
X58831249Y-51102753D01*
X58841701Y-51099894D01*
X58846518Y-51098440D01*
X58854005Y-51097133D01*
X58883633Y-51084127D01*
X58917599Y-51077000D01*
X66292496Y-51077000D01*
X66312458Y-51266928D01*
X66371473Y-51448556D01*
X66466960Y-51613944D01*
X66471378Y-51618851D01*
X66471379Y-51618852D01*
X66560405Y-51717725D01*
X66594747Y-51755866D01*
X66749248Y-51868118D01*
X66755276Y-51870802D01*
X66755278Y-51870803D01*
X66909079Y-51939279D01*
X66923712Y-51945794D01*
X67017112Y-51965647D01*
X67104056Y-51984128D01*
X67104061Y-51984128D01*
X67110513Y-51985500D01*
X67301487Y-51985500D01*
X67307939Y-51984128D01*
X67307944Y-51984128D01*
X67394887Y-51965647D01*
X67488288Y-51945794D01*
X67502921Y-51939279D01*
X67656722Y-51870803D01*
X67656724Y-51870802D01*
X67662752Y-51868118D01*
X67817253Y-51755866D01*
X67851595Y-51717725D01*
X67940621Y-51618852D01*
X67940622Y-51618851D01*
X67945040Y-51613944D01*
X68040527Y-51448556D01*
X68099542Y-51266928D01*
X68119504Y-51077000D01*
X68108902Y-50976125D01*
X68100232Y-50893635D01*
X68100232Y-50893633D01*
X68099542Y-50887072D01*
X68040527Y-50705444D01*
X67945040Y-50540056D01*
X67817253Y-50398134D01*
X67662752Y-50285882D01*
X67656724Y-50283198D01*
X67656722Y-50283197D01*
X67494319Y-50210891D01*
X67494318Y-50210891D01*
X67488288Y-50208206D01*
X67394887Y-50188353D01*
X67307944Y-50169872D01*
X67307939Y-50169872D01*
X67301487Y-50168500D01*
X67110513Y-50168500D01*
X67104061Y-50169872D01*
X67104056Y-50169872D01*
X67017113Y-50188353D01*
X66923712Y-50208206D01*
X66917682Y-50210891D01*
X66917681Y-50210891D01*
X66755278Y-50283197D01*
X66755276Y-50283198D01*
X66749248Y-50285882D01*
X66594747Y-50398134D01*
X66466960Y-50540056D01*
X66371473Y-50705444D01*
X66312458Y-50887072D01*
X66311768Y-50893633D01*
X66311768Y-50893635D01*
X66303098Y-50976125D01*
X66292496Y-51077000D01*
X58917599Y-51077000D01*
X58934279Y-51073500D01*
X59023487Y-51073500D01*
X59029939Y-51072128D01*
X59029944Y-51072128D01*
X59145557Y-51047553D01*
X59210288Y-51033794D01*
X59216319Y-51031109D01*
X59378722Y-50958803D01*
X59378724Y-50958802D01*
X59384752Y-50956118D01*
X59393629Y-50949669D01*
X59526001Y-50853494D01*
X59539253Y-50843866D01*
X59575122Y-50804029D01*
X59662621Y-50706852D01*
X59662622Y-50706851D01*
X59667040Y-50701944D01*
X59762527Y-50536556D01*
X59821542Y-50354928D01*
X59841504Y-50165000D01*
X59833689Y-50090646D01*
X59822232Y-49981635D01*
X59822232Y-49981633D01*
X59821542Y-49975072D01*
X59762527Y-49793444D01*
X59667040Y-49628056D01*
X59641118Y-49599266D01*
X59543675Y-49491045D01*
X59543674Y-49491044D01*
X59539253Y-49486134D01*
X59400009Y-49384967D01*
X59390094Y-49377763D01*
X59390093Y-49377762D01*
X59384752Y-49373882D01*
X59378724Y-49371198D01*
X59378722Y-49371197D01*
X59216319Y-49298891D01*
X59216318Y-49298891D01*
X59210288Y-49296206D01*
X59087898Y-49270191D01*
X59029944Y-49257872D01*
X59029939Y-49257872D01*
X59023487Y-49256500D01*
X58832513Y-49256500D01*
X58826061Y-49257872D01*
X58826056Y-49257872D01*
X58768102Y-49270191D01*
X58645712Y-49296206D01*
X58639682Y-49298891D01*
X58639681Y-49298891D01*
X58477278Y-49371197D01*
X58477276Y-49371198D01*
X58471248Y-49373882D01*
X58465907Y-49377762D01*
X58465906Y-49377763D01*
X58455991Y-49384967D01*
X58316747Y-49486134D01*
X58312326Y-49491044D01*
X58312325Y-49491045D01*
X58214883Y-49599266D01*
X58188960Y-49628056D01*
X58185659Y-49633774D01*
X58152331Y-49691499D01*
X58100948Y-49740492D01*
X58043212Y-49754499D01*
X52135682Y-49754499D01*
X52067561Y-49734497D01*
X52021068Y-49680841D01*
X52020256Y-49678756D01*
X52020253Y-49678757D01*
X52017569Y-49672728D01*
X52015527Y-49666444D01*
X51920040Y-49501056D01*
X51898458Y-49477086D01*
X51796675Y-49364045D01*
X51796674Y-49364044D01*
X51792253Y-49359134D01*
X51653235Y-49258131D01*
X51643094Y-49250763D01*
X51643093Y-49250762D01*
X51637752Y-49246882D01*
X51631724Y-49244198D01*
X51631722Y-49244197D01*
X51469319Y-49171891D01*
X51469318Y-49171891D01*
X51463288Y-49169206D01*
X51363673Y-49148032D01*
X51282944Y-49130872D01*
X51282939Y-49130872D01*
X51276487Y-49129500D01*
X51215499Y-49129500D01*
X51147378Y-49109498D01*
X51100885Y-49055842D01*
X51089499Y-49003500D01*
X51089499Y-45847000D01*
X54331496Y-45847000D01*
X54351458Y-46036928D01*
X54410473Y-46218556D01*
X54413776Y-46224278D01*
X54413777Y-46224279D01*
X54418509Y-46232475D01*
X54505960Y-46383944D01*
X54510378Y-46388851D01*
X54510379Y-46388852D01*
X54626149Y-46517428D01*
X54633747Y-46525866D01*
X54647105Y-46535571D01*
X54775649Y-46628964D01*
X54788248Y-46638118D01*
X54794276Y-46640802D01*
X54794278Y-46640803D01*
X54956681Y-46713109D01*
X54962712Y-46715794D01*
X55056112Y-46735647D01*
X55143056Y-46754128D01*
X55143061Y-46754128D01*
X55149513Y-46755500D01*
X55340487Y-46755500D01*
X55346939Y-46754128D01*
X55346944Y-46754128D01*
X55433887Y-46735647D01*
X55527288Y-46715794D01*
X55533319Y-46713109D01*
X55695722Y-46640803D01*
X55695724Y-46640802D01*
X55701752Y-46638118D01*
X55714352Y-46628964D01*
X55842895Y-46535571D01*
X55856253Y-46525866D01*
X55863851Y-46517428D01*
X55979621Y-46388852D01*
X55979622Y-46388851D01*
X55984040Y-46383944D01*
X56071491Y-46232475D01*
X56076223Y-46224279D01*
X56076224Y-46224278D01*
X56079527Y-46218556D01*
X56138542Y-46036928D01*
X56158504Y-45847000D01*
X56155297Y-45816485D01*
X56139232Y-45663635D01*
X56139232Y-45663633D01*
X56138542Y-45657072D01*
X56079527Y-45475444D01*
X56075537Y-45468532D01*
X55996679Y-45331948D01*
X55984040Y-45310056D01*
X55975250Y-45300293D01*
X55860675Y-45173045D01*
X55860674Y-45173044D01*
X55856253Y-45168134D01*
X55745166Y-45087424D01*
X55707094Y-45059763D01*
X55707093Y-45059762D01*
X55701752Y-45055882D01*
X55695724Y-45053198D01*
X55695722Y-45053197D01*
X55533319Y-44980891D01*
X55533318Y-44980891D01*
X55527288Y-44978206D01*
X55433887Y-44958353D01*
X55346944Y-44939872D01*
X55346939Y-44939872D01*
X55340487Y-44938500D01*
X55149513Y-44938500D01*
X55143061Y-44939872D01*
X55143056Y-44939872D01*
X55056113Y-44958353D01*
X54962712Y-44978206D01*
X54956682Y-44980891D01*
X54956681Y-44980891D01*
X54794278Y-45053197D01*
X54794276Y-45053198D01*
X54788248Y-45055882D01*
X54782907Y-45059762D01*
X54782906Y-45059763D01*
X54744834Y-45087424D01*
X54633747Y-45168134D01*
X54629326Y-45173044D01*
X54629325Y-45173045D01*
X54514751Y-45300293D01*
X54505960Y-45310056D01*
X54493321Y-45331948D01*
X54414464Y-45468532D01*
X54410473Y-45475444D01*
X54351458Y-45657072D01*
X54350768Y-45663633D01*
X54350768Y-45663635D01*
X54334703Y-45816485D01*
X54331496Y-45847000D01*
X51089499Y-45847000D01*
X51089499Y-44332138D01*
X51109501Y-44264017D01*
X51126404Y-44243043D01*
X54311459Y-41057988D01*
X54317724Y-41052134D01*
X54321548Y-41048798D01*
X54359670Y-41015542D01*
X54395046Y-40965206D01*
X54398972Y-40959920D01*
X54432251Y-40917478D01*
X54432252Y-40917477D01*
X54436935Y-40911504D01*
X54440060Y-40904583D01*
X54442673Y-40900268D01*
X54448042Y-40890856D01*
X54450427Y-40886408D01*
X54454795Y-40880193D01*
X54477142Y-40822876D01*
X54479697Y-40816798D01*
X54495208Y-40782446D01*
X54505014Y-40760728D01*
X54506399Y-40753256D01*
X54507919Y-40748405D01*
X54510862Y-40738075D01*
X54512130Y-40733136D01*
X54514889Y-40726060D01*
X54522922Y-40665047D01*
X54523953Y-40658535D01*
X54535160Y-40598065D01*
X54531709Y-40538207D01*
X54531500Y-40530955D01*
X54531500Y-39927305D01*
X54551502Y-39859184D01*
X54605158Y-39812691D01*
X54675432Y-39802587D01*
X54740012Y-39832081D01*
X54746595Y-39838210D01*
X55957183Y-41048798D01*
X55991209Y-41111110D01*
X55993398Y-41124723D01*
X56001099Y-41197993D01*
X56002458Y-41210928D01*
X56061473Y-41392556D01*
X56064776Y-41398278D01*
X56064777Y-41398279D01*
X56089596Y-41441266D01*
X56156960Y-41557944D01*
X56161378Y-41562851D01*
X56161379Y-41562852D01*
X56266347Y-41679431D01*
X56284747Y-41699866D01*
X56370062Y-41761851D01*
X56413206Y-41793197D01*
X56439248Y-41812118D01*
X56445276Y-41814802D01*
X56445278Y-41814803D01*
X56607681Y-41887109D01*
X56613712Y-41889794D01*
X56693239Y-41906698D01*
X56794056Y-41928128D01*
X56794061Y-41928128D01*
X56800513Y-41929500D01*
X56991487Y-41929500D01*
X56997939Y-41928128D01*
X56997944Y-41928128D01*
X57098761Y-41906698D01*
X57178288Y-41889794D01*
X57184319Y-41887109D01*
X57346722Y-41814803D01*
X57346724Y-41814802D01*
X57352752Y-41812118D01*
X57378795Y-41793197D01*
X57421938Y-41761851D01*
X57507253Y-41699866D01*
X57525653Y-41679431D01*
X57630621Y-41562852D01*
X57630622Y-41562851D01*
X57635040Y-41557944D01*
X57702404Y-41441266D01*
X57727223Y-41398279D01*
X57727224Y-41398278D01*
X57730527Y-41392556D01*
X57789542Y-41210928D01*
X57791879Y-41188699D01*
X57808814Y-41027565D01*
X57809504Y-41021000D01*
X57800308Y-40933502D01*
X57790232Y-40837635D01*
X57790232Y-40837633D01*
X57789542Y-40831072D01*
X57730527Y-40649444D01*
X57721611Y-40634000D01*
X57638341Y-40489774D01*
X57635040Y-40484056D01*
X57507253Y-40342134D01*
X57352752Y-40229882D01*
X57346724Y-40227198D01*
X57346722Y-40227197D01*
X57184319Y-40154891D01*
X57184318Y-40154891D01*
X57178288Y-40152206D01*
X57042292Y-40123299D01*
X56997943Y-40113872D01*
X56997940Y-40113872D01*
X56991487Y-40112500D01*
X56991554Y-40112183D01*
X56929219Y-40086538D01*
X56918950Y-40077335D01*
X55962285Y-39120670D01*
X63449160Y-39120670D01*
X63454887Y-39128320D01*
X63626042Y-39233205D01*
X63634837Y-39237687D01*
X63844988Y-39324734D01*
X63854373Y-39327783D01*
X64075554Y-39380885D01*
X64085301Y-39382428D01*
X64312070Y-39400275D01*
X64321930Y-39400275D01*
X64548699Y-39382428D01*
X64558446Y-39380885D01*
X64779627Y-39327783D01*
X64789012Y-39324734D01*
X64999163Y-39237687D01*
X65007958Y-39233205D01*
X65063113Y-39199406D01*
X67320423Y-39199406D01*
X67325704Y-39206461D01*
X67502080Y-39309527D01*
X67511363Y-39313974D01*
X67718003Y-39392883D01*
X67727901Y-39395759D01*
X67944653Y-39439857D01*
X67954883Y-39441076D01*
X68175914Y-39449182D01*
X68186223Y-39448714D01*
X68405623Y-39420608D01*
X68415688Y-39418468D01*
X68627557Y-39354905D01*
X68637152Y-39351144D01*
X68835778Y-39253838D01*
X68844636Y-39248559D01*
X68902097Y-39207572D01*
X68910497Y-39196874D01*
X68903510Y-39183721D01*
X68129811Y-38410021D01*
X68115868Y-38402408D01*
X68114034Y-38402539D01*
X68107420Y-38406790D01*
X67327180Y-39187031D01*
X67320423Y-39199406D01*
X65063113Y-39199406D01*
X65175445Y-39130568D01*
X65184907Y-39120110D01*
X65181124Y-39111334D01*
X64329812Y-38260022D01*
X64315868Y-38252408D01*
X64314035Y-38252539D01*
X64307420Y-38256790D01*
X63455920Y-39108290D01*
X63449160Y-39120670D01*
X55962285Y-39120670D01*
X55330405Y-38488790D01*
X55296379Y-38426478D01*
X55293500Y-38399695D01*
X55293500Y-37892930D01*
X62804725Y-37892930D01*
X62822572Y-38119699D01*
X62824115Y-38129446D01*
X62877217Y-38350627D01*
X62880266Y-38360012D01*
X62967313Y-38570163D01*
X62971795Y-38578958D01*
X63074432Y-38746445D01*
X63084890Y-38755907D01*
X63093666Y-38752124D01*
X63944978Y-37900812D01*
X63952592Y-37886868D01*
X63952461Y-37885035D01*
X63948210Y-37878420D01*
X63096710Y-37026920D01*
X63084330Y-37020160D01*
X63076680Y-37025887D01*
X62971795Y-37197042D01*
X62967313Y-37205837D01*
X62880266Y-37415988D01*
X62877217Y-37425373D01*
X62824115Y-37646554D01*
X62822572Y-37656301D01*
X62804725Y-37883070D01*
X62804725Y-37892930D01*
X55293500Y-37892930D01*
X55293500Y-36655890D01*
X63449093Y-36655890D01*
X63452876Y-36664666D01*
X65537290Y-38749080D01*
X65549670Y-38755840D01*
X65557320Y-38750113D01*
X65662205Y-38578958D01*
X65666687Y-38570163D01*
X65753734Y-38360012D01*
X65756783Y-38350627D01*
X65809885Y-38129446D01*
X65811428Y-38119699D01*
X65820169Y-38008638D01*
X66704893Y-38008638D01*
X66717627Y-38229468D01*
X66719061Y-38239670D01*
X66767685Y-38455439D01*
X66770773Y-38465292D01*
X66853986Y-38670220D01*
X66858634Y-38679421D01*
X66947097Y-38823781D01*
X66957553Y-38833242D01*
X66966331Y-38829458D01*
X67744979Y-38050811D01*
X67752592Y-38036868D01*
X67752461Y-38035034D01*
X67748210Y-38028420D01*
X66970862Y-37251073D01*
X66959330Y-37244776D01*
X66947048Y-37254399D01*
X66891467Y-37335877D01*
X66886379Y-37344833D01*
X66793252Y-37545459D01*
X66789689Y-37555146D01*
X66730581Y-37768280D01*
X66728650Y-37778400D01*
X66705145Y-37998349D01*
X66704893Y-38008638D01*
X65820169Y-38008638D01*
X65829275Y-37892930D01*
X65829275Y-37883070D01*
X65811428Y-37656298D01*
X65809885Y-37646555D01*
X65791743Y-37570989D01*
X65795290Y-37500081D01*
X65836610Y-37442347D01*
X65851262Y-37432456D01*
X65879785Y-37415988D01*
X65903944Y-37402040D01*
X65940666Y-37368976D01*
X66040955Y-37278675D01*
X66040956Y-37278674D01*
X66045866Y-37274253D01*
X66158118Y-37119752D01*
X66195471Y-37035857D01*
X66233109Y-36951319D01*
X66233109Y-36951318D01*
X66235794Y-36945288D01*
X66249945Y-36878711D01*
X67322508Y-36878711D01*
X67329251Y-36891040D01*
X68104189Y-37665979D01*
X68118132Y-37673592D01*
X68119966Y-37673461D01*
X68126580Y-37669210D01*
X68905994Y-36889795D01*
X68913011Y-36876944D01*
X68905237Y-36866274D01*
X68902902Y-36864430D01*
X68894320Y-36858729D01*
X68700678Y-36751833D01*
X68691272Y-36747606D01*
X68482772Y-36673772D01*
X68472809Y-36671140D01*
X68255047Y-36632350D01*
X68244796Y-36631381D01*
X68023616Y-36628679D01*
X68013332Y-36629399D01*
X67794693Y-36662855D01*
X67784666Y-36665244D01*
X67574426Y-36733961D01*
X67564916Y-36737958D01*
X67368725Y-36840089D01*
X67360007Y-36845578D01*
X67330961Y-36867386D01*
X67322508Y-36878711D01*
X66249945Y-36878711D01*
X66275500Y-36758487D01*
X66275500Y-36567513D01*
X66273432Y-36557780D01*
X66250658Y-36450642D01*
X66235794Y-36380712D01*
X66227482Y-36362043D01*
X66160803Y-36212278D01*
X66160802Y-36212276D01*
X66158118Y-36206248D01*
X66150197Y-36195345D01*
X66107434Y-36136488D01*
X66045866Y-36051747D01*
X65903944Y-35923960D01*
X65754803Y-35837853D01*
X65744279Y-35831777D01*
X65744278Y-35831776D01*
X65738556Y-35828473D01*
X65556928Y-35769458D01*
X65550367Y-35768768D01*
X65550365Y-35768768D01*
X65497111Y-35763171D01*
X65414610Y-35754500D01*
X65319390Y-35754500D01*
X65236889Y-35763171D01*
X65183635Y-35768768D01*
X65183633Y-35768768D01*
X65177072Y-35769458D01*
X64995444Y-35828473D01*
X64989722Y-35831776D01*
X64989721Y-35831777D01*
X64979197Y-35837853D01*
X64830056Y-35923960D01*
X64688134Y-36051747D01*
X64626566Y-36136488D01*
X64583804Y-36195345D01*
X64575882Y-36206248D01*
X64573199Y-36212274D01*
X64573195Y-36212281D01*
X64530603Y-36307947D01*
X64484623Y-36362043D01*
X64416696Y-36382693D01*
X64405610Y-36382311D01*
X64321930Y-36375725D01*
X64312070Y-36375725D01*
X64085301Y-36393572D01*
X64075554Y-36395115D01*
X63854373Y-36448217D01*
X63844988Y-36451266D01*
X63634837Y-36538313D01*
X63626042Y-36542795D01*
X63458555Y-36645432D01*
X63449093Y-36655890D01*
X55293500Y-36655890D01*
X55293500Y-31670670D01*
X63449160Y-31670670D01*
X63454887Y-31678320D01*
X63626042Y-31783205D01*
X63634837Y-31787687D01*
X63844988Y-31874734D01*
X63854373Y-31877783D01*
X64075554Y-31930885D01*
X64085301Y-31932428D01*
X64312070Y-31950275D01*
X64321930Y-31950275D01*
X64405610Y-31943689D01*
X64475090Y-31958285D01*
X64525649Y-32008127D01*
X64530603Y-32018053D01*
X64573195Y-32113719D01*
X64573197Y-32113722D01*
X64575882Y-32119752D01*
X64579762Y-32125093D01*
X64579763Y-32125094D01*
X64592694Y-32142892D01*
X64688134Y-32274253D01*
X64693044Y-32278674D01*
X64693045Y-32278675D01*
X64757741Y-32336927D01*
X64830056Y-32402040D01*
X64995444Y-32497527D01*
X65177072Y-32556542D01*
X65183633Y-32557232D01*
X65183635Y-32557232D01*
X65236889Y-32562829D01*
X65319390Y-32571500D01*
X65414610Y-32571500D01*
X65497111Y-32562829D01*
X65550365Y-32557232D01*
X65550367Y-32557232D01*
X65556928Y-32556542D01*
X65738556Y-32497527D01*
X65903944Y-32402040D01*
X65976260Y-32336927D01*
X66040955Y-32278675D01*
X66040956Y-32278674D01*
X66045866Y-32274253D01*
X66141306Y-32142892D01*
X66154237Y-32125094D01*
X66154238Y-32125093D01*
X66158118Y-32119752D01*
X66172805Y-32086766D01*
X66233109Y-31951319D01*
X66233109Y-31951318D01*
X66235794Y-31945288D01*
X66265715Y-31804522D01*
X66274128Y-31764944D01*
X66274128Y-31764939D01*
X66275500Y-31758487D01*
X66275500Y-31567513D01*
X66272080Y-31551419D01*
X66250395Y-31449406D01*
X67320423Y-31449406D01*
X67325704Y-31456461D01*
X67502080Y-31559527D01*
X67511363Y-31563974D01*
X67718003Y-31642883D01*
X67727901Y-31645759D01*
X67944653Y-31689857D01*
X67954883Y-31691076D01*
X68175914Y-31699182D01*
X68186223Y-31698714D01*
X68405623Y-31670608D01*
X68415688Y-31668468D01*
X68627557Y-31604905D01*
X68637152Y-31601144D01*
X68835778Y-31503838D01*
X68844636Y-31498559D01*
X68902097Y-31457572D01*
X68910497Y-31446874D01*
X68903510Y-31433721D01*
X68129811Y-30660021D01*
X68115868Y-30652408D01*
X68114034Y-30652539D01*
X68107420Y-30656790D01*
X67327180Y-31437031D01*
X67320423Y-31449406D01*
X66250395Y-31449406D01*
X66244793Y-31423051D01*
X66235794Y-31380712D01*
X66222250Y-31350292D01*
X66160803Y-31212278D01*
X66160802Y-31212276D01*
X66158118Y-31206248D01*
X66138374Y-31179072D01*
X66095573Y-31120163D01*
X66045866Y-31051747D01*
X66020269Y-31028699D01*
X65908852Y-30928379D01*
X65908851Y-30928378D01*
X65903944Y-30923960D01*
X65851262Y-30893544D01*
X65802269Y-30842161D01*
X65788833Y-30772448D01*
X65791743Y-30755011D01*
X65809885Y-30679445D01*
X65811428Y-30669702D01*
X65829275Y-30442930D01*
X65829275Y-30433070D01*
X65815547Y-30258638D01*
X66704893Y-30258638D01*
X66717627Y-30479468D01*
X66719061Y-30489670D01*
X66767685Y-30705439D01*
X66770773Y-30715292D01*
X66853986Y-30920220D01*
X66858634Y-30929421D01*
X66947097Y-31073781D01*
X66957553Y-31083242D01*
X66966331Y-31079458D01*
X67744979Y-30300811D01*
X67752592Y-30286868D01*
X67752461Y-30285034D01*
X67748210Y-30278420D01*
X66970862Y-29501073D01*
X66959330Y-29494776D01*
X66947048Y-29504399D01*
X66891467Y-29585877D01*
X66886379Y-29594833D01*
X66793252Y-29795459D01*
X66789689Y-29805146D01*
X66730581Y-30018280D01*
X66728650Y-30028400D01*
X66705145Y-30248349D01*
X66704893Y-30258638D01*
X65815547Y-30258638D01*
X65811428Y-30206301D01*
X65809885Y-30196554D01*
X65756783Y-29975373D01*
X65753734Y-29965988D01*
X65666687Y-29755837D01*
X65662205Y-29747042D01*
X65559568Y-29579555D01*
X65549110Y-29570093D01*
X65540334Y-29573876D01*
X63455920Y-31658290D01*
X63449160Y-31670670D01*
X55293500Y-31670670D01*
X55293500Y-30762045D01*
X55293792Y-30753476D01*
X55297060Y-30705542D01*
X55297060Y-30705538D01*
X55297576Y-30697966D01*
X55296210Y-30690134D01*
X55286998Y-30637353D01*
X55286035Y-30630829D01*
X55279558Y-30577309D01*
X55278645Y-30569765D01*
X55275958Y-30562655D01*
X55274754Y-30557752D01*
X55271886Y-30547266D01*
X55270439Y-30542474D01*
X55269134Y-30534996D01*
X55256902Y-30507130D01*
X55244405Y-30478659D01*
X55241914Y-30472554D01*
X55230720Y-30442930D01*
X62804725Y-30442930D01*
X62822572Y-30669699D01*
X62824115Y-30679446D01*
X62877217Y-30900627D01*
X62880266Y-30910012D01*
X62967313Y-31120163D01*
X62971795Y-31128958D01*
X63074432Y-31296445D01*
X63084890Y-31305907D01*
X63093666Y-31302124D01*
X63944978Y-30450812D01*
X63952592Y-30436868D01*
X63952461Y-30435035D01*
X63948210Y-30428420D01*
X63096710Y-29576920D01*
X63084330Y-29570160D01*
X63076680Y-29575887D01*
X62971795Y-29747042D01*
X62967313Y-29755837D01*
X62880266Y-29965988D01*
X62877217Y-29975373D01*
X62824115Y-30196554D01*
X62822572Y-30206301D01*
X62804725Y-30433070D01*
X62804725Y-30442930D01*
X55230720Y-30442930D01*
X55222855Y-30422118D01*
X55222853Y-30422115D01*
X55220169Y-30415011D01*
X55215869Y-30408754D01*
X55213533Y-30404286D01*
X55208275Y-30394840D01*
X55205693Y-30390474D01*
X55202638Y-30383515D01*
X55165177Y-30334696D01*
X55161314Y-30329377D01*
X55130769Y-30284935D01*
X55126466Y-30278674D01*
X55081676Y-30238767D01*
X55076402Y-30233787D01*
X54048505Y-29205890D01*
X63449093Y-29205890D01*
X63452876Y-29214666D01*
X64304188Y-30065978D01*
X64318132Y-30073592D01*
X64319965Y-30073461D01*
X64326580Y-30069210D01*
X65178080Y-29217710D01*
X65184840Y-29205330D01*
X65179113Y-29197680D01*
X65066567Y-29128711D01*
X67322508Y-29128711D01*
X67329251Y-29141040D01*
X68104189Y-29915979D01*
X68118132Y-29923592D01*
X68119966Y-29923461D01*
X68126580Y-29919210D01*
X68905994Y-29139795D01*
X68913011Y-29126944D01*
X68905237Y-29116274D01*
X68902902Y-29114430D01*
X68894320Y-29108729D01*
X68700678Y-29001833D01*
X68691272Y-28997606D01*
X68482772Y-28923772D01*
X68472809Y-28921140D01*
X68255047Y-28882350D01*
X68244796Y-28881381D01*
X68023616Y-28878679D01*
X68013332Y-28879399D01*
X67794693Y-28912855D01*
X67784666Y-28915244D01*
X67574426Y-28983961D01*
X67564916Y-28987958D01*
X67368725Y-29090089D01*
X67360007Y-29095578D01*
X67330961Y-29117386D01*
X67322508Y-29128711D01*
X65066567Y-29128711D01*
X65007958Y-29092795D01*
X64999163Y-29088313D01*
X64789012Y-29001266D01*
X64779627Y-28998217D01*
X64558446Y-28945115D01*
X64548699Y-28943572D01*
X64321930Y-28925725D01*
X64312070Y-28925725D01*
X64085301Y-28943572D01*
X64075554Y-28945115D01*
X63854373Y-28998217D01*
X63844988Y-29001266D01*
X63634837Y-29088313D01*
X63626042Y-29092795D01*
X63458555Y-29195432D01*
X63449093Y-29205890D01*
X54048505Y-29205890D01*
X51109636Y-26267021D01*
X51075610Y-26204709D01*
X51080675Y-26133894D01*
X51097905Y-26102361D01*
X51103551Y-26094828D01*
X51142615Y-26042705D01*
X51193745Y-25906316D01*
X51200500Y-25844134D01*
X51200500Y-24685500D01*
X51220502Y-24617379D01*
X51274158Y-24570886D01*
X51326500Y-24559500D01*
X54668721Y-24559500D01*
X54736842Y-24579502D01*
X54783335Y-24633158D01*
X54793401Y-24703169D01*
X54792458Y-24706072D01*
X54777500Y-24848390D01*
X54777500Y-25443610D01*
X54792458Y-25585928D01*
X54851473Y-25767556D01*
X54854776Y-25773278D01*
X54854777Y-25773279D01*
X54888686Y-25832010D01*
X54946960Y-25932944D01*
X54951378Y-25937851D01*
X54951379Y-25937852D01*
X55045789Y-26042705D01*
X55074747Y-26074866D01*
X55124356Y-26110909D01*
X55223308Y-26182802D01*
X55229248Y-26187118D01*
X55235276Y-26189802D01*
X55235278Y-26189803D01*
X55382844Y-26255503D01*
X55403712Y-26264794D01*
X55497112Y-26284647D01*
X55584056Y-26303128D01*
X55584061Y-26303128D01*
X55590513Y-26304500D01*
X55781487Y-26304500D01*
X55787939Y-26303128D01*
X55787944Y-26303128D01*
X55874887Y-26284647D01*
X55968288Y-26264794D01*
X55989156Y-26255503D01*
X56136722Y-26189803D01*
X56136724Y-26189802D01*
X56142752Y-26187118D01*
X56148693Y-26182802D01*
X56236939Y-26118687D01*
X56303807Y-26094828D01*
X56372958Y-26110909D01*
X56385061Y-26118687D01*
X56473308Y-26182802D01*
X56479248Y-26187118D01*
X56485276Y-26189802D01*
X56485278Y-26189803D01*
X56632844Y-26255503D01*
X56653712Y-26264794D01*
X56747112Y-26284647D01*
X56834056Y-26303128D01*
X56834061Y-26303128D01*
X56840513Y-26304500D01*
X57031487Y-26304500D01*
X57037939Y-26303128D01*
X57037944Y-26303128D01*
X57124887Y-26284647D01*
X57218288Y-26264794D01*
X57239156Y-26255503D01*
X57386722Y-26189803D01*
X57386724Y-26189802D01*
X57392752Y-26187118D01*
X57487366Y-26118377D01*
X57554230Y-26094520D01*
X57623382Y-26110600D01*
X57635485Y-26118378D01*
X57724157Y-26182802D01*
X57735529Y-26189368D01*
X57897839Y-26261633D01*
X57910325Y-26265690D01*
X57914278Y-26266530D01*
X57928341Y-26265457D01*
X57932000Y-26255503D01*
X57932000Y-26252182D01*
X58440000Y-26252182D01*
X58443973Y-26265713D01*
X58454468Y-26267222D01*
X58461675Y-26265690D01*
X58474161Y-26261633D01*
X58616823Y-26198116D01*
X58687190Y-26188682D01*
X58743636Y-26212396D01*
X58766632Y-26229630D01*
X58789295Y-26246615D01*
X58925684Y-26297745D01*
X58987866Y-26304500D01*
X59884134Y-26304500D01*
X59946316Y-26297745D01*
X60082705Y-26246615D01*
X60199261Y-26159261D01*
X60286615Y-26042705D01*
X60337745Y-25906316D01*
X60344500Y-25844134D01*
X60344500Y-24447866D01*
X60337745Y-24385684D01*
X60286615Y-24249295D01*
X60199261Y-24132739D01*
X60082705Y-24045385D01*
X59946316Y-23994255D01*
X59884134Y-23987500D01*
X58987866Y-23987500D01*
X58925684Y-23994255D01*
X58789295Y-24045385D01*
X58767539Y-24061690D01*
X58743636Y-24079604D01*
X58677129Y-24104451D01*
X58616823Y-24093884D01*
X58474161Y-24030367D01*
X58461675Y-24026310D01*
X58457722Y-24025470D01*
X58443659Y-24026543D01*
X58440000Y-24036497D01*
X58440000Y-26252182D01*
X57932000Y-26252182D01*
X57932000Y-24039818D01*
X57928027Y-24026287D01*
X57917532Y-24024778D01*
X57910325Y-24026310D01*
X57897839Y-24030367D01*
X57781057Y-24082362D01*
X57710690Y-24091796D01*
X57646393Y-24061690D01*
X57608580Y-24001601D01*
X57607581Y-23996630D01*
X57607369Y-23996682D01*
X57605558Y-23989309D01*
X57604645Y-23981765D01*
X57601958Y-23974655D01*
X57600754Y-23969752D01*
X57597886Y-23959266D01*
X57596439Y-23954474D01*
X57595134Y-23946996D01*
X57591097Y-23937800D01*
X57570405Y-23890659D01*
X57567914Y-23884554D01*
X57548855Y-23834118D01*
X57548853Y-23834115D01*
X57546169Y-23827011D01*
X57541869Y-23820754D01*
X57539533Y-23816286D01*
X57534275Y-23806840D01*
X57531693Y-23802474D01*
X57528638Y-23795515D01*
X57491177Y-23746696D01*
X57487314Y-23741377D01*
X57456769Y-23696935D01*
X57452466Y-23690674D01*
X57407676Y-23650767D01*
X57402402Y-23645787D01*
X56619146Y-22862531D01*
X56613292Y-22856266D01*
X56581694Y-22820045D01*
X56576700Y-22814320D01*
X56526335Y-22778924D01*
X56521067Y-22775010D01*
X56478639Y-22741742D01*
X56472662Y-22737055D01*
X56465738Y-22733929D01*
X56461429Y-22731319D01*
X56452014Y-22725948D01*
X56447566Y-22723563D01*
X56441351Y-22719195D01*
X56384029Y-22696846D01*
X56377961Y-22694296D01*
X56321885Y-22668976D01*
X56314408Y-22667590D01*
X56309588Y-22666080D01*
X56299155Y-22663108D01*
X56294294Y-22661860D01*
X56287218Y-22659101D01*
X56226228Y-22651072D01*
X56219712Y-22650040D01*
X56166690Y-22640213D01*
X56159223Y-22638829D01*
X56151643Y-22639266D01*
X56151642Y-22639266D01*
X56099348Y-22642281D01*
X56092096Y-22642490D01*
X45520224Y-22642490D01*
X45511655Y-22642198D01*
X45463721Y-22638930D01*
X45463717Y-22638930D01*
X45456145Y-22638414D01*
X45448668Y-22639719D01*
X45448665Y-22639719D01*
X45395532Y-22648992D01*
X45389008Y-22649955D01*
X45335488Y-22656432D01*
X45327944Y-22657345D01*
X45320834Y-22660032D01*
X45315931Y-22661236D01*
X45305445Y-22664104D01*
X45300653Y-22665551D01*
X45293175Y-22666856D01*
X45286223Y-22669908D01*
X45286222Y-22669908D01*
X45236838Y-22691585D01*
X45230733Y-22694076D01*
X45180297Y-22713135D01*
X45180294Y-22713137D01*
X45173190Y-22715821D01*
X45166933Y-22720121D01*
X45162465Y-22722457D01*
X45153019Y-22727715D01*
X45148653Y-22730297D01*
X45141694Y-22733352D01*
X45092875Y-22770813D01*
X45087556Y-22774676D01*
X45081345Y-22778945D01*
X45036853Y-22809524D01*
X45031802Y-22815193D01*
X44996947Y-22854313D01*
X44991966Y-22859588D01*
X44151942Y-23699612D01*
X44145677Y-23705466D01*
X44103731Y-23742058D01*
X44068335Y-23792423D01*
X44064423Y-23797688D01*
X44026466Y-23846096D01*
X44023340Y-23853020D01*
X44020730Y-23857329D01*
X44015359Y-23866744D01*
X44012974Y-23871192D01*
X44008606Y-23877407D01*
X44005847Y-23884484D01*
X43986259Y-23934725D01*
X43983707Y-23940797D01*
X43958387Y-23996873D01*
X43957001Y-24004350D01*
X43955491Y-24009170D01*
X43952519Y-24019603D01*
X43951271Y-24024464D01*
X43948512Y-24031540D01*
X43944543Y-24061690D01*
X43940483Y-24092530D01*
X43939451Y-24099046D01*
X43937427Y-24109966D01*
X43928240Y-24159535D01*
X43928677Y-24167115D01*
X43928677Y-24167116D01*
X43931692Y-24219410D01*
X43931901Y-24226662D01*
X43931901Y-30491297D01*
X43911899Y-30559418D01*
X43894996Y-30580392D01*
X43748642Y-30726746D01*
X43686330Y-30760772D01*
X43615515Y-30755707D01*
X43565911Y-30721961D01*
X43541673Y-30695041D01*
X43541664Y-30695033D01*
X43537253Y-30690134D01*
X43485328Y-30652408D01*
X43388094Y-30581763D01*
X43388093Y-30581762D01*
X43382752Y-30577882D01*
X43376724Y-30575198D01*
X43376722Y-30575197D01*
X43214319Y-30502891D01*
X43214318Y-30502891D01*
X43208288Y-30500206D01*
X43092729Y-30475643D01*
X43027944Y-30461872D01*
X43027939Y-30461872D01*
X43021487Y-30460500D01*
X42830513Y-30460500D01*
X42824061Y-30461872D01*
X42824056Y-30461872D01*
X42759271Y-30475643D01*
X42643712Y-30500206D01*
X42637682Y-30502891D01*
X42637681Y-30502891D01*
X42475278Y-30575197D01*
X42475276Y-30575198D01*
X42469248Y-30577882D01*
X42314747Y-30690134D01*
X42310329Y-30695041D01*
X42310325Y-30695045D01*
X42256332Y-30755011D01*
X42186960Y-30832056D01*
X42091473Y-30997444D01*
X42032458Y-31179072D01*
X42024406Y-31255689D01*
X42023398Y-31265277D01*
X41996385Y-31330934D01*
X41987183Y-31341202D01*
X41028790Y-32299595D01*
X40966478Y-32333621D01*
X40939695Y-32336500D01*
X39544500Y-32336500D01*
X39476379Y-32316498D01*
X39429886Y-32262842D01*
X39418500Y-32210500D01*
X39418500Y-31397056D01*
X39418792Y-31388486D01*
X39419322Y-31380712D01*
X39422577Y-31332966D01*
X39417195Y-31302124D01*
X39411997Y-31272342D01*
X39411034Y-31265819D01*
X39404558Y-31212308D01*
X39404558Y-31212307D01*
X39403645Y-31204765D01*
X39400959Y-31197655D01*
X39399754Y-31192752D01*
X39396895Y-31182300D01*
X39395441Y-31177484D01*
X39394134Y-31169996D01*
X39369390Y-31113627D01*
X39366925Y-31107588D01*
X39345169Y-31050011D01*
X39340864Y-31043748D01*
X39338517Y-31039258D01*
X39333257Y-31029807D01*
X39330690Y-31025466D01*
X39327639Y-31018515D01*
X39323020Y-31012495D01*
X39323015Y-31012487D01*
X39290181Y-30969698D01*
X39286319Y-30964384D01*
X39251466Y-30913674D01*
X39206676Y-30873767D01*
X39201402Y-30868787D01*
X38887956Y-30555341D01*
X38882102Y-30549076D01*
X38850504Y-30512855D01*
X38845510Y-30507130D01*
X38795145Y-30471734D01*
X38789877Y-30467820D01*
X38747449Y-30434552D01*
X38741472Y-30429865D01*
X38734548Y-30426739D01*
X38730239Y-30424129D01*
X38720824Y-30418758D01*
X38716376Y-30416373D01*
X38710161Y-30412005D01*
X38652839Y-30389656D01*
X38646771Y-30387106D01*
X38590695Y-30361786D01*
X38583218Y-30360400D01*
X38578398Y-30358890D01*
X38567965Y-30355918D01*
X38563104Y-30354670D01*
X38556028Y-30351911D01*
X38495038Y-30343882D01*
X38488522Y-30342850D01*
X38446658Y-30335091D01*
X38428033Y-30331639D01*
X38420453Y-30332076D01*
X38420452Y-30332076D01*
X38368158Y-30335091D01*
X38360906Y-30335300D01*
X34244615Y-30335300D01*
X34176494Y-30315298D01*
X34170554Y-30311236D01*
X34060894Y-30231563D01*
X34060893Y-30231562D01*
X34055552Y-30227682D01*
X34049524Y-30224998D01*
X34049522Y-30224997D01*
X33887119Y-30152691D01*
X33887118Y-30152691D01*
X33881088Y-30150006D01*
X33770417Y-30126482D01*
X33700744Y-30111672D01*
X33700739Y-30111672D01*
X33694287Y-30110300D01*
X33503313Y-30110300D01*
X33496861Y-30111672D01*
X33496856Y-30111672D01*
X33329697Y-30147203D01*
X33258906Y-30141801D01*
X33202273Y-30098984D01*
X33177780Y-30032346D01*
X33177500Y-30023956D01*
X33177500Y-29286200D01*
X38227896Y-29286200D01*
X38228586Y-29292765D01*
X38241001Y-29410883D01*
X38247858Y-29476128D01*
X38306873Y-29657756D01*
X38402360Y-29823144D01*
X38530147Y-29965066D01*
X38684648Y-30077318D01*
X38690676Y-30080002D01*
X38690678Y-30080003D01*
X38853081Y-30152309D01*
X38859112Y-30154994D01*
X38952513Y-30174847D01*
X39039456Y-30193328D01*
X39039461Y-30193328D01*
X39045913Y-30194700D01*
X39236887Y-30194700D01*
X39243339Y-30193328D01*
X39243344Y-30193328D01*
X39330287Y-30174847D01*
X39423688Y-30154994D01*
X39429719Y-30152309D01*
X39592122Y-30080003D01*
X39592124Y-30080002D01*
X39598152Y-30077318D01*
X39752653Y-29965066D01*
X39880440Y-29823144D01*
X39975927Y-29657756D01*
X40034942Y-29476128D01*
X40041800Y-29410883D01*
X40054214Y-29292765D01*
X40054904Y-29286200D01*
X40047912Y-29219671D01*
X40035632Y-29102835D01*
X40035632Y-29102833D01*
X40034942Y-29096272D01*
X39975927Y-28914644D01*
X39944474Y-28860165D01*
X39883741Y-28754974D01*
X39880440Y-28749256D01*
X39868376Y-28735857D01*
X39757075Y-28612245D01*
X39757074Y-28612244D01*
X39752653Y-28607334D01*
X39598152Y-28495082D01*
X39592124Y-28492398D01*
X39592122Y-28492397D01*
X39429719Y-28420091D01*
X39429718Y-28420091D01*
X39423688Y-28417406D01*
X39330288Y-28397553D01*
X39243344Y-28379072D01*
X39243339Y-28379072D01*
X39236887Y-28377700D01*
X39045913Y-28377700D01*
X39039461Y-28379072D01*
X39039456Y-28379072D01*
X38952512Y-28397553D01*
X38859112Y-28417406D01*
X38853082Y-28420091D01*
X38853081Y-28420091D01*
X38690678Y-28492397D01*
X38690676Y-28492398D01*
X38684648Y-28495082D01*
X38530147Y-28607334D01*
X38525726Y-28612244D01*
X38525725Y-28612245D01*
X38414425Y-28735857D01*
X38402360Y-28749256D01*
X38399059Y-28754974D01*
X38338327Y-28860165D01*
X38306873Y-28914644D01*
X38247858Y-29096272D01*
X38247168Y-29102833D01*
X38247168Y-29102835D01*
X38234888Y-29219671D01*
X38227896Y-29286200D01*
X33177500Y-29286200D01*
X33177500Y-26136600D01*
X37872296Y-26136600D01*
X37872986Y-26143165D01*
X37889799Y-26303128D01*
X37892258Y-26326528D01*
X37951273Y-26508156D01*
X37954576Y-26513878D01*
X37954577Y-26513879D01*
X37960516Y-26524165D01*
X38046760Y-26673544D01*
X38051178Y-26678451D01*
X38051179Y-26678452D01*
X38170125Y-26810555D01*
X38174547Y-26815466D01*
X38329048Y-26927718D01*
X38335076Y-26930402D01*
X38335078Y-26930403D01*
X38488295Y-26998619D01*
X38503512Y-27005394D01*
X38596913Y-27025247D01*
X38683856Y-27043728D01*
X38683861Y-27043728D01*
X38690313Y-27045100D01*
X38881287Y-27045100D01*
X38887739Y-27043728D01*
X38887744Y-27043728D01*
X38974687Y-27025247D01*
X39068088Y-27005394D01*
X39083305Y-26998619D01*
X39236522Y-26930403D01*
X39236524Y-26930402D01*
X39242552Y-26927718D01*
X39397053Y-26815466D01*
X39401475Y-26810555D01*
X39520421Y-26678452D01*
X39520422Y-26678451D01*
X39524840Y-26673544D01*
X39611084Y-26524165D01*
X39614875Y-26517600D01*
X40666296Y-26517600D01*
X40686258Y-26707528D01*
X40745273Y-26889156D01*
X40840760Y-27054544D01*
X40845178Y-27059451D01*
X40845179Y-27059452D01*
X40963732Y-27191118D01*
X40968547Y-27196466D01*
X41067643Y-27268464D01*
X41117426Y-27304633D01*
X41123048Y-27308718D01*
X41129076Y-27311402D01*
X41129078Y-27311403D01*
X41291481Y-27383709D01*
X41297512Y-27386394D01*
X41390913Y-27406247D01*
X41477856Y-27424728D01*
X41477861Y-27424728D01*
X41484313Y-27426100D01*
X41675287Y-27426100D01*
X41681739Y-27424728D01*
X41681744Y-27424728D01*
X41768687Y-27406247D01*
X41862088Y-27386394D01*
X42036552Y-27308718D01*
X42106918Y-27299284D01*
X42139047Y-27308718D01*
X42139048Y-27308718D01*
X42313512Y-27386394D01*
X42406913Y-27406247D01*
X42493856Y-27424728D01*
X42493861Y-27424728D01*
X42500313Y-27426100D01*
X42691287Y-27426100D01*
X42697739Y-27424728D01*
X42697744Y-27424728D01*
X42784687Y-27406247D01*
X42878088Y-27386394D01*
X42884119Y-27383709D01*
X43046522Y-27311403D01*
X43046524Y-27311402D01*
X43052552Y-27308718D01*
X43058175Y-27304633D01*
X43107957Y-27268464D01*
X43207053Y-27196466D01*
X43211868Y-27191118D01*
X43330421Y-27059452D01*
X43330422Y-27059451D01*
X43334840Y-27054544D01*
X43430327Y-26889156D01*
X43489342Y-26707528D01*
X43509304Y-26517600D01*
X43494413Y-26375922D01*
X43490032Y-26334235D01*
X43490032Y-26334233D01*
X43489342Y-26327672D01*
X43430327Y-26146044D01*
X43414533Y-26118687D01*
X43387924Y-26072600D01*
X43371186Y-26003605D01*
X43387924Y-25946600D01*
X43427023Y-25878879D01*
X43427024Y-25878878D01*
X43430327Y-25873156D01*
X43489342Y-25691528D01*
X43499599Y-25593943D01*
X43508614Y-25508165D01*
X43509304Y-25501600D01*
X43502861Y-25440302D01*
X43490032Y-25318235D01*
X43490032Y-25318233D01*
X43489342Y-25311672D01*
X43430327Y-25130044D01*
X43402589Y-25082000D01*
X43385851Y-25013004D01*
X43402589Y-24956000D01*
X43427023Y-24913679D01*
X43427024Y-24913678D01*
X43430327Y-24907956D01*
X43489342Y-24726328D01*
X43490881Y-24711691D01*
X43508614Y-24542965D01*
X43509304Y-24536400D01*
X43492686Y-24378285D01*
X43490032Y-24353035D01*
X43490032Y-24353033D01*
X43489342Y-24346472D01*
X43430327Y-24164844D01*
X43334840Y-23999456D01*
X43308095Y-23969752D01*
X43211475Y-23862445D01*
X43211474Y-23862444D01*
X43207053Y-23857534D01*
X43052552Y-23745282D01*
X43046524Y-23742598D01*
X43046522Y-23742597D01*
X42884119Y-23670291D01*
X42884118Y-23670291D01*
X42878088Y-23667606D01*
X42775438Y-23645787D01*
X42697744Y-23629272D01*
X42697739Y-23629272D01*
X42691287Y-23627900D01*
X42500313Y-23627900D01*
X42493861Y-23629272D01*
X42493856Y-23629272D01*
X42416162Y-23645787D01*
X42313512Y-23667606D01*
X42139048Y-23745282D01*
X42068682Y-23754716D01*
X42036553Y-23745282D01*
X42036552Y-23745282D01*
X41862088Y-23667606D01*
X41759438Y-23645787D01*
X41681744Y-23629272D01*
X41681739Y-23629272D01*
X41675287Y-23627900D01*
X41484313Y-23627900D01*
X41477861Y-23629272D01*
X41477856Y-23629272D01*
X41400162Y-23645787D01*
X41297512Y-23667606D01*
X41291482Y-23670291D01*
X41291481Y-23670291D01*
X41129078Y-23742597D01*
X41129076Y-23742598D01*
X41123048Y-23745282D01*
X40968547Y-23857534D01*
X40964126Y-23862444D01*
X40964125Y-23862445D01*
X40867506Y-23969752D01*
X40840760Y-23999456D01*
X40745273Y-24164844D01*
X40686258Y-24346472D01*
X40685568Y-24353033D01*
X40685568Y-24353035D01*
X40682914Y-24378285D01*
X40666296Y-24536400D01*
X40666986Y-24542965D01*
X40684720Y-24711691D01*
X40686258Y-24726328D01*
X40745273Y-24907956D01*
X40748576Y-24913678D01*
X40748577Y-24913679D01*
X40773011Y-24956000D01*
X40789749Y-25024996D01*
X40773011Y-25082000D01*
X40745273Y-25130044D01*
X40686258Y-25311672D01*
X40685568Y-25318233D01*
X40685568Y-25318235D01*
X40672739Y-25440302D01*
X40666296Y-25501600D01*
X40666986Y-25508165D01*
X40676002Y-25593943D01*
X40686258Y-25691528D01*
X40745273Y-25873156D01*
X40748576Y-25878878D01*
X40748577Y-25878879D01*
X40787676Y-25946600D01*
X40804414Y-26015595D01*
X40787676Y-26072600D01*
X40761068Y-26118687D01*
X40745273Y-26146044D01*
X40686258Y-26327672D01*
X40685568Y-26334233D01*
X40685568Y-26334235D01*
X40681187Y-26375922D01*
X40666296Y-26517600D01*
X39614875Y-26517600D01*
X39617023Y-26513879D01*
X39617024Y-26513878D01*
X39620327Y-26508156D01*
X39679342Y-26326528D01*
X39681802Y-26303128D01*
X39698614Y-26143165D01*
X39699304Y-26136600D01*
X39693224Y-26078749D01*
X39680032Y-25953235D01*
X39680032Y-25953233D01*
X39679342Y-25946672D01*
X39620327Y-25765044D01*
X39608594Y-25744721D01*
X39574093Y-25684965D01*
X39524840Y-25599656D01*
X39518039Y-25592102D01*
X39401475Y-25462645D01*
X39401474Y-25462644D01*
X39397053Y-25457734D01*
X39242552Y-25345482D01*
X39236524Y-25342798D01*
X39236522Y-25342797D01*
X39074119Y-25270491D01*
X39074118Y-25270491D01*
X39068088Y-25267806D01*
X38962446Y-25245351D01*
X38887744Y-25229472D01*
X38887739Y-25229472D01*
X38881287Y-25228100D01*
X38690313Y-25228100D01*
X38683861Y-25229472D01*
X38683856Y-25229472D01*
X38609154Y-25245351D01*
X38503512Y-25267806D01*
X38497482Y-25270491D01*
X38497481Y-25270491D01*
X38335078Y-25342797D01*
X38335076Y-25342798D01*
X38329048Y-25345482D01*
X38174547Y-25457734D01*
X38170126Y-25462644D01*
X38170125Y-25462645D01*
X38053562Y-25592102D01*
X38046760Y-25599656D01*
X37997507Y-25684965D01*
X37963007Y-25744721D01*
X37951273Y-25765044D01*
X37892258Y-25946672D01*
X37891568Y-25953233D01*
X37891568Y-25953235D01*
X37878376Y-26078749D01*
X37872296Y-26136600D01*
X33177500Y-26136600D01*
X33177500Y-25897707D01*
X33162182Y-25766319D01*
X33145781Y-25721134D01*
X33104329Y-25606939D01*
X33104329Y-25606938D01*
X33101833Y-25600063D01*
X33041583Y-25508165D01*
X33008868Y-25458267D01*
X33008867Y-25458266D01*
X33004856Y-25452148D01*
X32876453Y-25330510D01*
X32723510Y-25241674D01*
X32620976Y-25210620D01*
X32561579Y-25171731D01*
X32532635Y-25106903D01*
X32531500Y-25090030D01*
X32531500Y-24447866D01*
X32524745Y-24385684D01*
X32473615Y-24249295D01*
X32386261Y-24132739D01*
X32269705Y-24045385D01*
X32133316Y-23994255D01*
X32071134Y-23987500D01*
X31174866Y-23987500D01*
X31112684Y-23994255D01*
X30976295Y-24045385D01*
X30954539Y-24061690D01*
X30930636Y-24079604D01*
X30864129Y-24104451D01*
X30803823Y-24093884D01*
X30661161Y-24030367D01*
X30648675Y-24026310D01*
X30644722Y-24025470D01*
X30630659Y-24026543D01*
X30627000Y-24036497D01*
X30627000Y-26252182D01*
X30630973Y-26265713D01*
X30641468Y-26267222D01*
X30648675Y-26265690D01*
X30661161Y-26261633D01*
X30803823Y-26198116D01*
X30874190Y-26188682D01*
X30930636Y-26212396D01*
X30953632Y-26229630D01*
X30976295Y-26246615D01*
X31112684Y-26297745D01*
X31174866Y-26304500D01*
X31534500Y-26304500D01*
X31602621Y-26324502D01*
X31649114Y-26378158D01*
X31660500Y-26430500D01*
X31660500Y-26859071D01*
X31640498Y-26927192D01*
X31586842Y-26973685D01*
X31534500Y-26985071D01*
X29069000Y-26985071D01*
X29069000Y-29079749D01*
X29048998Y-29147870D01*
X28995342Y-29194363D01*
X28925068Y-29204467D01*
X28860488Y-29174973D01*
X28843263Y-29153625D01*
X28841835Y-29154695D01*
X28789300Y-29084598D01*
X28754481Y-29038139D01*
X28637925Y-28950785D01*
X28501536Y-28899655D01*
X28439354Y-28892900D01*
X26643086Y-28892900D01*
X26580904Y-28899655D01*
X26444515Y-28950785D01*
X26327959Y-29038139D01*
X26240605Y-29154695D01*
X26237453Y-29163103D01*
X26204120Y-29252018D01*
X26161478Y-29308782D01*
X26094917Y-29333482D01*
X26025568Y-29318274D01*
X25992945Y-29292588D01*
X25933152Y-29226876D01*
X25933142Y-29226867D01*
X25929670Y-29223051D01*
X25925619Y-29219852D01*
X25925615Y-29219848D01*
X25758414Y-29087800D01*
X25758410Y-29087798D01*
X25754359Y-29084598D01*
X25718028Y-29064542D01*
X25669521Y-29037765D01*
X25558789Y-28976638D01*
X25553920Y-28974914D01*
X25553916Y-28974912D01*
X25353087Y-28903795D01*
X25353083Y-28903794D01*
X25348212Y-28902069D01*
X25343119Y-28901162D01*
X25343116Y-28901161D01*
X25133373Y-28863800D01*
X25133367Y-28863799D01*
X25128284Y-28862894D01*
X25054452Y-28861992D01*
X24910081Y-28860228D01*
X24910079Y-28860228D01*
X24904911Y-28860165D01*
X24684091Y-28893955D01*
X24471756Y-28963357D01*
X24273607Y-29066507D01*
X24269474Y-29069610D01*
X24269471Y-29069612D01*
X24099100Y-29197530D01*
X24094965Y-29200635D01*
X23940629Y-29362138D01*
X23937715Y-29366410D01*
X23937714Y-29366411D01*
X23922798Y-29388277D01*
X23850792Y-29493835D01*
X23832898Y-29520066D01*
X23777987Y-29565069D01*
X23707462Y-29573240D01*
X23643715Y-29541986D01*
X23623018Y-29517502D01*
X23542426Y-29392926D01*
X23536136Y-29384757D01*
X23392806Y-29227240D01*
X23385273Y-29220215D01*
X23218139Y-29088222D01*
X23209552Y-29082517D01*
X23023117Y-28979599D01*
X23013705Y-28975369D01*
X22812959Y-28904280D01*
X22802988Y-28901646D01*
X22731837Y-28888972D01*
X22718540Y-28890432D01*
X22714000Y-28904989D01*
X22714000Y-49318517D01*
X22718064Y-49332359D01*
X22731478Y-49334393D01*
X22738184Y-49333534D01*
X22748262Y-49331392D01*
X22952255Y-49270191D01*
X22961842Y-49266433D01*
X23153095Y-49172739D01*
X23161945Y-49167464D01*
X23335328Y-49043792D01*
X23343193Y-49037145D01*
X23447897Y-48932805D01*
X23510268Y-48898889D01*
X23581075Y-48904077D01*
X23637837Y-48946723D01*
X23654819Y-48977826D01*
X23677057Y-49037145D01*
X23699385Y-49096705D01*
X23716327Y-49119311D01*
X23741174Y-49185815D01*
X23741500Y-49194874D01*
X23741500Y-54626604D01*
X23740422Y-54643051D01*
X23737521Y-54665086D01*
X23741271Y-54744606D01*
X23741360Y-54746488D01*
X23741500Y-54752424D01*
X23741500Y-54774999D01*
X23741750Y-54777796D01*
X23743819Y-54800988D01*
X23744178Y-54806248D01*
X23748104Y-54889488D01*
X23749356Y-54894954D01*
X23749356Y-54894955D01*
X23751820Y-54905714D01*
X23755000Y-54933843D01*
X23755000Y-56429634D01*
X23761755Y-56491816D01*
X23812885Y-56628205D01*
X23900239Y-56744761D01*
X24016795Y-56832115D01*
X24153184Y-56883245D01*
X24215366Y-56890000D01*
X24695414Y-56890000D01*
X24763535Y-56910002D01*
X24810028Y-56963658D01*
X24820132Y-57033932D01*
X24790638Y-57098512D01*
X24748165Y-57130426D01*
X24637369Y-57181504D01*
X24629214Y-57186024D01*
X24461968Y-57295675D01*
X24452830Y-57306417D01*
X24457403Y-57316193D01*
X25450688Y-58309478D01*
X25464632Y-58317092D01*
X25466465Y-58316961D01*
X25473080Y-58312710D01*
X26465988Y-57319802D01*
X26472372Y-57308112D01*
X26462960Y-57296002D01*
X26336644Y-57208373D01*
X26328616Y-57203645D01*
X26177263Y-57129006D01*
X26125014Y-57080938D01*
X26107047Y-57012252D01*
X26129066Y-56944757D01*
X26184081Y-56899880D01*
X26232991Y-56890000D01*
X26711634Y-56890000D01*
X26773816Y-56883245D01*
X26910205Y-56832115D01*
X27026761Y-56744761D01*
X27114115Y-56628205D01*
X27165245Y-56491816D01*
X27172000Y-56429634D01*
X27172000Y-53933366D01*
X27165245Y-53871184D01*
X27114115Y-53734795D01*
X27026761Y-53618239D01*
X26910205Y-53530885D01*
X26773816Y-53479755D01*
X26711634Y-53473000D01*
X26384500Y-53473000D01*
X26316379Y-53452998D01*
X26269886Y-53399342D01*
X26258500Y-53347000D01*
X26258500Y-49194874D01*
X26278502Y-49126753D01*
X26283661Y-49119327D01*
X26300615Y-49096705D01*
X26323651Y-49035258D01*
X26336750Y-49000315D01*
X26379391Y-48943550D01*
X26445953Y-48918850D01*
X26515302Y-48934057D01*
X26549969Y-48962046D01*
X26584085Y-49001431D01*
X26584089Y-49001435D01*
X26587470Y-49005338D01*
X26759346Y-49148032D01*
X26952220Y-49260738D01*
X26957045Y-49262580D01*
X26957046Y-49262581D01*
X26976975Y-49270191D01*
X27160912Y-49340430D01*
X27165980Y-49341461D01*
X27165983Y-49341462D01*
X27273237Y-49363283D01*
X27379817Y-49384967D01*
X27384992Y-49385157D01*
X27384994Y-49385157D01*
X27597893Y-49392964D01*
X27597897Y-49392964D01*
X27603057Y-49393153D01*
X27608177Y-49392497D01*
X27608179Y-49392497D01*
X27819508Y-49365425D01*
X27819509Y-49365425D01*
X27824636Y-49364768D01*
X27856358Y-49355251D01*
X28033649Y-49302061D01*
X28033654Y-49302059D01*
X28038604Y-49300574D01*
X28239214Y-49202296D01*
X28421080Y-49072573D01*
X28579316Y-48914889D01*
X28589876Y-48900194D01*
X28706655Y-48737677D01*
X28709673Y-48733477D01*
X28766575Y-48618345D01*
X28770043Y-48611327D01*
X28818156Y-48559120D01*
X28886858Y-48541213D01*
X28954334Y-48563291D01*
X28999162Y-48618345D01*
X29009000Y-48667154D01*
X29009000Y-52151595D01*
X30513009Y-52151595D01*
X30581130Y-52171597D01*
X30627623Y-52225253D01*
X30637727Y-52295527D01*
X30609530Y-52358586D01*
X30532846Y-52449974D01*
X30529879Y-52455372D01*
X30529875Y-52455377D01*
X30481068Y-52544158D01*
X30437567Y-52623287D01*
X30435706Y-52629154D01*
X30435705Y-52629156D01*
X30403396Y-52731007D01*
X30377765Y-52811806D01*
X30355719Y-53008351D01*
X30356235Y-53014495D01*
X30371353Y-53194534D01*
X30372268Y-53205434D01*
X30426783Y-53395550D01*
X30433150Y-53407938D01*
X30446496Y-53477665D01*
X30426300Y-53529766D01*
X30428079Y-53530740D01*
X30423771Y-53538608D01*
X30418385Y-53545795D01*
X30367255Y-53682184D01*
X30360500Y-53744366D01*
X30360500Y-54840634D01*
X30367255Y-54902816D01*
X30418385Y-55039205D01*
X30505739Y-55155761D01*
X30622295Y-55243115D01*
X30758684Y-55294245D01*
X30820866Y-55301000D01*
X31917134Y-55301000D01*
X31979316Y-55294245D01*
X32115705Y-55243115D01*
X32232261Y-55155761D01*
X32319615Y-55039205D01*
X32370745Y-54902816D01*
X32377500Y-54840634D01*
X32377500Y-53744366D01*
X32370745Y-53682184D01*
X32319615Y-53545795D01*
X32314229Y-53538609D01*
X32309921Y-53530740D01*
X32311942Y-53529633D01*
X32291506Y-53474943D01*
X32297621Y-53426106D01*
X32355250Y-53252865D01*
X32357197Y-53247013D01*
X32381985Y-53050795D01*
X32382380Y-53022500D01*
X32363080Y-52825667D01*
X32357551Y-52807352D01*
X32332741Y-52725180D01*
X32305916Y-52636331D01*
X32213066Y-52461704D01*
X32121340Y-52349237D01*
X32091960Y-52313213D01*
X32091957Y-52313210D01*
X32088065Y-52308438D01*
X32050453Y-52277323D01*
X32010716Y-52218491D01*
X32007648Y-52153456D01*
X32008053Y-52151595D01*
X32011000Y-52151595D01*
X32011000Y-50215364D01*
X32031002Y-50147243D01*
X32084658Y-50100750D01*
X32154932Y-50090646D01*
X32174261Y-50094999D01*
X32215232Y-50107682D01*
X32221357Y-50108326D01*
X32221358Y-50108326D01*
X32405796Y-50127711D01*
X32405798Y-50127711D01*
X32411925Y-50128355D01*
X32494424Y-50120847D01*
X32602749Y-50110989D01*
X32602752Y-50110988D01*
X32608888Y-50110430D01*
X32614794Y-50108692D01*
X32614798Y-50108691D01*
X32719924Y-50077751D01*
X32798619Y-50054590D01*
X32804077Y-50051737D01*
X32804081Y-50051735D01*
X32947598Y-49976705D01*
X32973890Y-49962960D01*
X33128025Y-49839032D01*
X33255154Y-49687526D01*
X33258121Y-49682128D01*
X33258125Y-49682123D01*
X33347467Y-49519608D01*
X33350433Y-49514213D01*
X33357783Y-49491045D01*
X33408373Y-49331564D01*
X33408373Y-49331563D01*
X33410235Y-49325694D01*
X33427500Y-49171773D01*
X33427500Y-47033231D01*
X33426442Y-47022433D01*
X33414759Y-46903295D01*
X33413080Y-46886167D01*
X33402172Y-46850036D01*
X33379443Y-46774757D01*
X33355916Y-46696831D01*
X33263066Y-46522204D01*
X33205857Y-46452059D01*
X33178303Y-46386627D01*
X33177500Y-46372423D01*
X33177500Y-44767682D01*
X33197502Y-44699561D01*
X33251158Y-44653068D01*
X33321432Y-44642964D01*
X33386012Y-44672458D01*
X33397135Y-44683371D01*
X33500947Y-44798666D01*
X33655448Y-44910918D01*
X33661476Y-44913602D01*
X33661478Y-44913603D01*
X33821157Y-44984696D01*
X33829912Y-44988594D01*
X33923312Y-45008447D01*
X34010256Y-45026928D01*
X34010261Y-45026928D01*
X34016713Y-45028300D01*
X34207687Y-45028300D01*
X34214146Y-45026927D01*
X34214147Y-45026927D01*
X34216308Y-45026468D01*
X34217587Y-45026566D01*
X34220715Y-45026237D01*
X34220775Y-45026809D01*
X34287099Y-45031873D01*
X34343730Y-45074692D01*
X34368221Y-45141331D01*
X34368500Y-45149716D01*
X34368500Y-45437952D01*
X34368208Y-45446521D01*
X34365149Y-45491400D01*
X34364424Y-45502034D01*
X34365729Y-45509511D01*
X34365729Y-45509514D01*
X34375002Y-45562647D01*
X34375965Y-45569171D01*
X34383355Y-45630235D01*
X34386042Y-45637345D01*
X34387246Y-45642248D01*
X34390114Y-45652734D01*
X34391561Y-45657526D01*
X34392866Y-45665004D01*
X34395918Y-45671956D01*
X34395918Y-45671957D01*
X34417595Y-45721341D01*
X34420086Y-45727446D01*
X34439145Y-45777882D01*
X34441831Y-45784989D01*
X34446131Y-45791246D01*
X34448467Y-45795714D01*
X34453725Y-45805160D01*
X34456307Y-45809526D01*
X34459362Y-45816485D01*
X34496823Y-45865304D01*
X34500686Y-45870623D01*
X34512940Y-45888452D01*
X34535534Y-45921326D01*
X34541203Y-45926377D01*
X34580323Y-45961232D01*
X34585598Y-45966213D01*
X34632290Y-46012905D01*
X34666316Y-46075217D01*
X34661251Y-46146032D01*
X34618704Y-46202868D01*
X34552184Y-46227679D01*
X34543195Y-46228000D01*
X33782000Y-46228000D01*
X33782000Y-53392786D01*
X33761998Y-53460907D01*
X33707248Y-53507893D01*
X33585281Y-53562195D01*
X33585274Y-53562199D01*
X33579248Y-53564882D01*
X33573907Y-53568762D01*
X33573906Y-53568763D01*
X33550018Y-53586119D01*
X33424747Y-53677134D01*
X33296960Y-53819056D01*
X33201473Y-53984444D01*
X33142458Y-54166072D01*
X33141768Y-54172633D01*
X33141768Y-54172635D01*
X33124401Y-54337872D01*
X33122496Y-54356000D01*
X33123186Y-54362565D01*
X33133192Y-54457763D01*
X33142458Y-54545928D01*
X33201473Y-54727556D01*
X33204776Y-54733278D01*
X33204777Y-54733279D01*
X33216232Y-54753119D01*
X33296960Y-54892944D01*
X33301378Y-54897851D01*
X33301379Y-54897852D01*
X33420325Y-55029955D01*
X33424747Y-55034866D01*
X33492578Y-55084148D01*
X33560820Y-55133729D01*
X33579248Y-55147118D01*
X33585276Y-55149802D01*
X33585278Y-55149803D01*
X33731750Y-55215016D01*
X33753712Y-55224794D01*
X33817888Y-55238435D01*
X33934056Y-55263128D01*
X33934061Y-55263128D01*
X33940513Y-55264500D01*
X34131487Y-55264500D01*
X34137939Y-55263128D01*
X34137944Y-55263128D01*
X34254112Y-55238435D01*
X34318288Y-55224794D01*
X34340250Y-55215016D01*
X34486722Y-55149803D01*
X34486724Y-55149802D01*
X34492752Y-55147118D01*
X34511181Y-55133729D01*
X34579422Y-55084148D01*
X34647253Y-55034866D01*
X34651675Y-55029955D01*
X34770621Y-54897852D01*
X34770622Y-54897851D01*
X34775040Y-54892944D01*
X34855768Y-54753119D01*
X34867223Y-54733279D01*
X34867224Y-54733278D01*
X34870527Y-54727556D01*
X34929542Y-54545928D01*
X34938809Y-54457763D01*
X34948814Y-54362565D01*
X34949504Y-54356000D01*
X34947599Y-54337872D01*
X34930232Y-54172635D01*
X34930232Y-54172633D01*
X34929542Y-54166072D01*
X34870527Y-53984444D01*
X34775040Y-53819056D01*
X34761762Y-53804309D01*
X34731045Y-53740301D01*
X34739810Y-53669848D01*
X34785274Y-53615317D01*
X34855399Y-53594000D01*
X37846000Y-53594000D01*
X37846000Y-51815000D01*
X37866002Y-51746879D01*
X37919658Y-51700386D01*
X37972000Y-51689000D01*
X40328905Y-51689000D01*
X40397026Y-51709002D01*
X40443519Y-51762658D01*
X40453623Y-51832932D01*
X40424129Y-51897512D01*
X40418000Y-51904095D01*
X37641500Y-54680595D01*
X37579188Y-54714621D01*
X37552405Y-54717500D01*
X37496513Y-54717500D01*
X37490061Y-54718872D01*
X37490056Y-54718872D01*
X37422279Y-54733279D01*
X37309712Y-54757206D01*
X37303682Y-54759891D01*
X37303681Y-54759891D01*
X37141278Y-54832197D01*
X37141276Y-54832198D01*
X37135248Y-54834882D01*
X37129907Y-54838762D01*
X37129906Y-54838763D01*
X37111987Y-54851782D01*
X36980747Y-54947134D01*
X36976326Y-54952044D01*
X36976325Y-54952045D01*
X36898257Y-55038749D01*
X36852960Y-55089056D01*
X36827168Y-55133729D01*
X36762926Y-55245000D01*
X36757473Y-55254444D01*
X36698458Y-55436072D01*
X36697768Y-55442633D01*
X36697768Y-55442635D01*
X36689160Y-55524540D01*
X36678496Y-55626000D01*
X36679186Y-55632565D01*
X36691897Y-55753500D01*
X36698458Y-55815928D01*
X36757473Y-55997556D01*
X36852960Y-56162944D01*
X36857378Y-56167851D01*
X36857379Y-56167852D01*
X36955500Y-56276826D01*
X36980747Y-56304866D01*
X37051398Y-56356197D01*
X37104207Y-56394565D01*
X37135248Y-56417118D01*
X37141276Y-56419802D01*
X37141278Y-56419803D01*
X37285378Y-56483960D01*
X37309712Y-56494794D01*
X37403113Y-56514647D01*
X37490056Y-56533128D01*
X37490061Y-56533128D01*
X37496513Y-56534500D01*
X37687487Y-56534500D01*
X37693939Y-56533128D01*
X37693944Y-56533128D01*
X37780888Y-56514647D01*
X37874288Y-56494794D01*
X37898656Y-56483945D01*
X38048752Y-56417118D01*
X38049677Y-56419196D01*
X38108488Y-56404924D01*
X38175581Y-56428141D01*
X38219472Y-56483945D01*
X38228500Y-56530782D01*
X38228500Y-66723233D01*
X38227973Y-66734416D01*
X38226298Y-66741909D01*
X38226547Y-66749835D01*
X38226547Y-66749836D01*
X38228438Y-66809986D01*
X38228500Y-66813945D01*
X38228500Y-66841856D01*
X38228997Y-66845790D01*
X38228997Y-66845791D01*
X38229005Y-66845856D01*
X38229938Y-66857693D01*
X38231327Y-66901889D01*
X38236978Y-66921339D01*
X38240987Y-66940700D01*
X38243526Y-66960797D01*
X38246445Y-66968168D01*
X38246445Y-66968170D01*
X38259804Y-67001912D01*
X38263649Y-67013142D01*
X38263987Y-67014305D01*
X38275982Y-67055593D01*
X38280015Y-67062412D01*
X38280017Y-67062417D01*
X38286293Y-67073028D01*
X38294988Y-67090776D01*
X38302448Y-67109617D01*
X38307110Y-67116033D01*
X38307110Y-67116034D01*
X38328436Y-67145387D01*
X38334952Y-67155307D01*
X38349557Y-67180002D01*
X38357458Y-67193362D01*
X38371779Y-67207683D01*
X38384619Y-67222716D01*
X38396528Y-67239107D01*
X38402634Y-67244158D01*
X38430605Y-67267298D01*
X38439384Y-67275288D01*
X39501348Y-68337253D01*
X39508888Y-68345539D01*
X39513000Y-68352018D01*
X39518777Y-68357443D01*
X39562651Y-68398643D01*
X39565493Y-68401398D01*
X39585230Y-68421135D01*
X39588427Y-68423615D01*
X39597447Y-68431318D01*
X39629679Y-68461586D01*
X39636625Y-68465405D01*
X39636628Y-68465407D01*
X39647434Y-68471348D01*
X39663953Y-68482199D01*
X39679959Y-68494614D01*
X39687228Y-68497759D01*
X39687232Y-68497762D01*
X39720537Y-68512174D01*
X39731187Y-68517391D01*
X39769940Y-68538695D01*
X39777615Y-68540666D01*
X39777616Y-68540666D01*
X39789562Y-68543733D01*
X39808266Y-68550137D01*
X39811927Y-68551721D01*
X39826855Y-68558181D01*
X39834678Y-68559420D01*
X39834688Y-68559423D01*
X39870524Y-68565099D01*
X39882144Y-68567505D01*
X39913959Y-68575673D01*
X39924970Y-68578500D01*
X39945224Y-68578500D01*
X39964934Y-68580051D01*
X39984943Y-68583220D01*
X39992835Y-68582474D01*
X40011580Y-68580702D01*
X40028962Y-68579059D01*
X40040819Y-68578500D01*
X41645200Y-68578500D01*
X41713321Y-68598502D01*
X41759814Y-68652158D01*
X41769918Y-68722432D01*
X41754319Y-68767500D01*
X41731079Y-68807753D01*
X41710473Y-68843444D01*
X41651458Y-69025072D01*
X41631496Y-69215000D01*
X41645430Y-69347568D01*
X41645930Y-69352329D01*
X41633158Y-69422168D01*
X41584656Y-69474014D01*
X41520620Y-69491500D01*
X38908924Y-69491500D01*
X38840803Y-69471498D01*
X38794310Y-69417842D01*
X38784206Y-69347568D01*
X38796212Y-69312874D01*
X38794939Y-69312307D01*
X38797623Y-69306279D01*
X38800927Y-69300556D01*
X38859942Y-69118928D01*
X38879904Y-68929000D01*
X38870310Y-68837721D01*
X38860632Y-68745635D01*
X38860632Y-68745633D01*
X38859942Y-68739072D01*
X38800927Y-68557444D01*
X38792791Y-68543351D01*
X38757484Y-68482199D01*
X38705440Y-68392056D01*
X38674275Y-68357443D01*
X38582075Y-68255045D01*
X38582074Y-68255044D01*
X38577653Y-68250134D01*
X38467196Y-68169882D01*
X38428494Y-68141763D01*
X38428493Y-68141762D01*
X38423152Y-68137882D01*
X38417124Y-68135198D01*
X38417122Y-68135197D01*
X38254719Y-68062891D01*
X38254718Y-68062891D01*
X38248688Y-68060206D01*
X38155287Y-68040353D01*
X38068344Y-68021872D01*
X38068339Y-68021872D01*
X38061887Y-68020500D01*
X37870913Y-68020500D01*
X37864461Y-68021872D01*
X37864456Y-68021872D01*
X37777513Y-68040353D01*
X37684112Y-68060206D01*
X37678082Y-68062891D01*
X37678081Y-68062891D01*
X37515678Y-68135197D01*
X37515676Y-68135198D01*
X37509648Y-68137882D01*
X37504307Y-68141762D01*
X37504306Y-68141763D01*
X37465604Y-68169882D01*
X37355147Y-68250134D01*
X37350726Y-68255044D01*
X37350725Y-68255045D01*
X37258526Y-68357443D01*
X37227360Y-68392056D01*
X37175316Y-68482199D01*
X37140010Y-68543351D01*
X37131873Y-68557444D01*
X37072858Y-68739072D01*
X37072168Y-68745633D01*
X37072168Y-68745635D01*
X37062490Y-68837721D01*
X37052896Y-68929000D01*
X37072858Y-69118928D01*
X37131873Y-69300556D01*
X37135177Y-69306279D01*
X37137861Y-69312307D01*
X37135620Y-69313305D01*
X37149732Y-69371513D01*
X37126502Y-69438602D01*
X37070689Y-69482481D01*
X37023876Y-69491500D01*
X31944307Y-69491500D01*
X31876186Y-69471498D01*
X31829693Y-69417842D01*
X31819589Y-69347568D01*
X31824474Y-69326564D01*
X31879502Y-69157206D01*
X31881542Y-69150928D01*
X31884246Y-69125206D01*
X31900814Y-68967565D01*
X31901504Y-68961000D01*
X31884190Y-68796267D01*
X31882232Y-68777635D01*
X31882232Y-68777633D01*
X31881542Y-68771072D01*
X31822527Y-68589444D01*
X31816209Y-68578500D01*
X31748708Y-68461586D01*
X31727040Y-68424056D01*
X31705366Y-68399984D01*
X31603675Y-68287045D01*
X31603674Y-68287044D01*
X31599253Y-68282134D01*
X31465644Y-68185061D01*
X31450094Y-68173763D01*
X31450093Y-68173762D01*
X31444752Y-68169882D01*
X31438724Y-68167198D01*
X31438722Y-68167197D01*
X31276319Y-68094891D01*
X31276318Y-68094891D01*
X31270288Y-68092206D01*
X31159288Y-68068612D01*
X31089944Y-68053872D01*
X31089939Y-68053872D01*
X31083487Y-68052500D01*
X30892513Y-68052500D01*
X30886061Y-68053872D01*
X30886056Y-68053872D01*
X30816712Y-68068612D01*
X30705712Y-68092206D01*
X30699682Y-68094891D01*
X30699681Y-68094891D01*
X30537278Y-68167197D01*
X30537276Y-68167198D01*
X30531248Y-68169882D01*
X30525907Y-68173762D01*
X30525906Y-68173763D01*
X30510356Y-68185061D01*
X30376747Y-68282134D01*
X30372326Y-68287044D01*
X30372325Y-68287045D01*
X30270635Y-68399984D01*
X30248960Y-68424056D01*
X30227292Y-68461586D01*
X30159792Y-68578500D01*
X30153473Y-68589444D01*
X30094458Y-68771072D01*
X30093768Y-68777633D01*
X30093768Y-68777635D01*
X30091810Y-68796267D01*
X30074496Y-68961000D01*
X30075186Y-68967565D01*
X30091755Y-69125206D01*
X30094458Y-69150928D01*
X30096498Y-69157206D01*
X30151526Y-69326564D01*
X30153554Y-69397531D01*
X30116891Y-69458329D01*
X30053179Y-69489655D01*
X30031693Y-69491500D01*
X25839946Y-69491500D01*
X25771825Y-69471498D01*
X25725332Y-69417842D01*
X25715228Y-69347568D01*
X25744722Y-69282988D01*
X25782743Y-69253233D01*
X25853606Y-69217126D01*
X25859315Y-69213830D01*
X26179728Y-69005751D01*
X26185065Y-69001874D01*
X26423835Y-68808522D01*
X26432300Y-68796267D01*
X26425966Y-68785176D01*
X26243736Y-68602946D01*
X26209710Y-68540634D01*
X26214775Y-68469819D01*
X26258769Y-68411916D01*
X26302962Y-68379807D01*
X26302963Y-68379806D01*
X26308309Y-68375922D01*
X26421693Y-68249997D01*
X26482138Y-68212758D01*
X26553122Y-68214110D01*
X26604423Y-68245213D01*
X26784310Y-68425100D01*
X26797386Y-68432241D01*
X26807753Y-68424784D01*
X27001877Y-68185061D01*
X27005747Y-68179735D01*
X27213831Y-67859313D01*
X27217128Y-67853603D01*
X27390578Y-67513189D01*
X27393260Y-67507164D01*
X27530171Y-67150498D01*
X27532212Y-67144216D01*
X27631094Y-66775184D01*
X27632465Y-66768734D01*
X27692234Y-66391371D01*
X27692920Y-66384833D01*
X27712916Y-66003301D01*
X27712916Y-65996699D01*
X27692920Y-65615167D01*
X27692234Y-65608629D01*
X27632465Y-65231266D01*
X27631094Y-65224816D01*
X27532212Y-64855784D01*
X27530171Y-64849502D01*
X27393260Y-64492836D01*
X27390578Y-64486811D01*
X27217128Y-64146397D01*
X27213831Y-64140687D01*
X27005747Y-63820265D01*
X27001877Y-63814939D01*
X26808522Y-63576165D01*
X26796267Y-63567700D01*
X26785176Y-63574034D01*
X26604423Y-63754787D01*
X26542111Y-63788813D01*
X26471296Y-63783748D01*
X26421692Y-63750003D01*
X26406169Y-63732763D01*
X26308309Y-63624078D01*
X26302962Y-63620193D01*
X26258769Y-63588084D01*
X26215416Y-63531862D01*
X26209341Y-63461125D01*
X26243736Y-63397054D01*
X26425100Y-63215690D01*
X26432241Y-63202614D01*
X26424784Y-63192247D01*
X26185065Y-62998126D01*
X26179728Y-62994249D01*
X25859315Y-62786170D01*
X25853606Y-62782873D01*
X25731192Y-62720500D01*
X26754996Y-62720500D01*
X26774958Y-62910428D01*
X26833973Y-63092056D01*
X26929460Y-63257444D01*
X27057247Y-63399366D01*
X27211748Y-63511618D01*
X27217776Y-63514302D01*
X27217778Y-63514303D01*
X27379640Y-63586368D01*
X27386212Y-63589294D01*
X27479612Y-63609147D01*
X27566556Y-63627628D01*
X27566561Y-63627628D01*
X27573013Y-63629000D01*
X27763987Y-63629000D01*
X27770439Y-63627628D01*
X27770444Y-63627628D01*
X27857388Y-63609147D01*
X27950788Y-63589294D01*
X27957360Y-63586368D01*
X28119222Y-63514303D01*
X28119224Y-63514302D01*
X28125252Y-63511618D01*
X28279753Y-63399366D01*
X28407540Y-63257444D01*
X28503027Y-63092056D01*
X28562042Y-62910428D01*
X28582004Y-62720500D01*
X28570329Y-62609422D01*
X28562732Y-62537135D01*
X28562732Y-62537133D01*
X28562042Y-62530572D01*
X28503027Y-62348944D01*
X28407540Y-62183556D01*
X28279753Y-62041634D01*
X28125252Y-61929382D01*
X28119224Y-61926698D01*
X28119222Y-61926697D01*
X27956819Y-61854391D01*
X27956818Y-61854391D01*
X27950788Y-61851706D01*
X27857387Y-61831853D01*
X27770444Y-61813372D01*
X27770439Y-61813372D01*
X27763987Y-61812000D01*
X27573013Y-61812000D01*
X27566561Y-61813372D01*
X27566556Y-61813372D01*
X27479613Y-61831853D01*
X27386212Y-61851706D01*
X27380182Y-61854391D01*
X27380181Y-61854391D01*
X27217778Y-61926697D01*
X27217776Y-61926698D01*
X27211748Y-61929382D01*
X27057247Y-62041634D01*
X26929460Y-62183556D01*
X26833973Y-62348944D01*
X26774958Y-62530572D01*
X26774268Y-62537133D01*
X26774268Y-62537135D01*
X26766671Y-62609422D01*
X26754996Y-62720500D01*
X25731192Y-62720500D01*
X25513189Y-62609422D01*
X25507164Y-62606740D01*
X25150498Y-62469829D01*
X25144216Y-62467788D01*
X24775184Y-62368906D01*
X24768734Y-62367535D01*
X24391371Y-62307766D01*
X24384833Y-62307080D01*
X24003301Y-62287084D01*
X23996699Y-62287084D01*
X23615167Y-62307080D01*
X23608629Y-62307766D01*
X23231266Y-62367535D01*
X23224816Y-62368906D01*
X22855784Y-62467788D01*
X22849502Y-62469829D01*
X22492836Y-62606740D01*
X22486811Y-62609422D01*
X22146397Y-62782872D01*
X22140687Y-62786169D01*
X21820265Y-62994253D01*
X21814939Y-62998123D01*
X21576165Y-63191478D01*
X21567700Y-63203733D01*
X21574034Y-63214824D01*
X21756264Y-63397054D01*
X21790290Y-63459366D01*
X21785225Y-63530181D01*
X21741231Y-63588084D01*
X21697038Y-63620193D01*
X21691691Y-63624078D01*
X21593831Y-63732763D01*
X21578308Y-63750003D01*
X21517862Y-63787242D01*
X21446878Y-63785890D01*
X21395577Y-63754787D01*
X21215690Y-63574900D01*
X21202614Y-63567759D01*
X21192247Y-63575216D01*
X20998123Y-63814939D01*
X20994253Y-63820265D01*
X20786169Y-64140687D01*
X20782872Y-64146397D01*
X20746767Y-64217258D01*
X20698019Y-64268873D01*
X20629104Y-64285939D01*
X20561902Y-64263038D01*
X20517750Y-64207441D01*
X20508500Y-64160055D01*
X20508500Y-60054859D01*
X24454886Y-60054859D01*
X24463599Y-60066379D01*
X24552086Y-60131260D01*
X24560005Y-60136208D01*
X24776377Y-60250047D01*
X24784951Y-60253775D01*
X25015782Y-60334385D01*
X25024791Y-60336799D01*
X25265018Y-60382408D01*
X25274275Y-60383462D01*
X25518607Y-60393063D01*
X25527920Y-60392737D01*
X25770978Y-60366118D01*
X25780155Y-60364417D01*
X26016607Y-60302165D01*
X26025426Y-60299128D01*
X26250084Y-60202607D01*
X26258356Y-60198300D01*
X26466277Y-60069635D01*
X26468120Y-60068296D01*
X26475538Y-60057041D01*
X26469474Y-60046684D01*
X25476312Y-59053522D01*
X25462368Y-59045908D01*
X25460535Y-59046039D01*
X25453920Y-59050290D01*
X24461544Y-60042666D01*
X24454886Y-60054859D01*
X20508500Y-60054859D01*
X20508500Y-58641335D01*
X23751522Y-58641335D01*
X23763254Y-58885564D01*
X23764391Y-58894824D01*
X23812093Y-59134643D01*
X23814582Y-59143618D01*
X23897208Y-59373750D01*
X23901005Y-59382278D01*
X24016734Y-59597660D01*
X24021745Y-59605527D01*
X24078673Y-59681763D01*
X24089931Y-59690212D01*
X24102350Y-59683440D01*
X25091478Y-58694312D01*
X25097856Y-58682632D01*
X25827908Y-58682632D01*
X25828039Y-58684465D01*
X25832290Y-58691080D01*
X26827232Y-59686022D01*
X26839612Y-59692782D01*
X26847953Y-59686538D01*
X26966200Y-59502702D01*
X26970647Y-59494511D01*
X27071072Y-59271576D01*
X27074267Y-59262798D01*
X27140635Y-59027473D01*
X27142493Y-59018344D01*
X27173544Y-58774270D01*
X27174025Y-58767983D01*
X27176206Y-58684660D01*
X27176055Y-58678351D01*
X27157821Y-58432986D01*
X27156444Y-58423780D01*
X27102479Y-58185286D01*
X27099755Y-58176375D01*
X27011133Y-57948483D01*
X27007119Y-57940067D01*
X26885784Y-57727776D01*
X26880574Y-57720053D01*
X26849287Y-57680365D01*
X26837363Y-57671895D01*
X26825828Y-57678382D01*
X25835522Y-58668688D01*
X25827908Y-58682632D01*
X25097856Y-58682632D01*
X25099092Y-58680368D01*
X25098961Y-58678535D01*
X25094710Y-58671920D01*
X24100328Y-57677538D01*
X24087020Y-57670271D01*
X24076981Y-57677393D01*
X24072081Y-57683284D01*
X24066668Y-57690873D01*
X23939822Y-57899909D01*
X23935584Y-57908226D01*
X23841029Y-58133714D01*
X23838072Y-58142552D01*
X23777884Y-58379542D01*
X23776263Y-58388732D01*
X23751767Y-58632010D01*
X23751522Y-58641335D01*
X20508500Y-58641335D01*
X20508500Y-48267966D01*
X21128257Y-48267966D01*
X21158565Y-48402446D01*
X21161645Y-48412275D01*
X21241770Y-48609603D01*
X21246413Y-48618794D01*
X21357694Y-48800388D01*
X21363777Y-48808699D01*
X21503213Y-48969667D01*
X21510580Y-48976883D01*
X21674434Y-49112916D01*
X21682881Y-49118831D01*
X21866756Y-49226279D01*
X21876042Y-49230729D01*
X22075001Y-49306703D01*
X22084899Y-49309579D01*
X22188250Y-49330606D01*
X22202299Y-49329410D01*
X22206000Y-49319065D01*
X22206000Y-48272115D01*
X22201525Y-48256876D01*
X22200135Y-48255671D01*
X22192452Y-48254000D01*
X21143225Y-48254000D01*
X21129694Y-48257973D01*
X21128257Y-48267966D01*
X20508500Y-48267966D01*
X20508500Y-47734183D01*
X21124389Y-47734183D01*
X21125912Y-47742607D01*
X21138292Y-47746000D01*
X22187885Y-47746000D01*
X22203124Y-47741525D01*
X22204329Y-47740135D01*
X22206000Y-47732452D01*
X22206000Y-45732115D01*
X22201525Y-45716876D01*
X22200135Y-45715671D01*
X22192452Y-45714000D01*
X21143225Y-45714000D01*
X21129694Y-45717973D01*
X21128257Y-45727966D01*
X21158565Y-45862446D01*
X21161645Y-45872275D01*
X21241770Y-46069603D01*
X21246413Y-46078794D01*
X21357694Y-46260388D01*
X21363777Y-46268699D01*
X21503213Y-46429667D01*
X21510580Y-46436883D01*
X21674434Y-46572916D01*
X21682881Y-46578831D01*
X21752479Y-46619501D01*
X21801203Y-46671140D01*
X21814274Y-46740923D01*
X21787543Y-46806694D01*
X21747087Y-46840053D01*
X21738462Y-46844542D01*
X21729738Y-46850036D01*
X21559433Y-46977905D01*
X21551726Y-46984748D01*
X21404590Y-47138717D01*
X21398104Y-47146727D01*
X21278098Y-47322649D01*
X21273000Y-47331623D01*
X21183338Y-47524783D01*
X21179775Y-47534470D01*
X21124389Y-47734183D01*
X20508500Y-47734183D01*
X20508500Y-45194183D01*
X21124389Y-45194183D01*
X21125912Y-45202607D01*
X21138292Y-45206000D01*
X22187885Y-45206000D01*
X22203124Y-45201525D01*
X22204329Y-45200135D01*
X22206000Y-45192452D01*
X22206000Y-43192115D01*
X22201525Y-43176876D01*
X22200135Y-43175671D01*
X22192452Y-43174000D01*
X21143225Y-43174000D01*
X21129694Y-43177973D01*
X21128257Y-43187966D01*
X21158565Y-43322446D01*
X21161645Y-43332275D01*
X21241770Y-43529603D01*
X21246413Y-43538794D01*
X21357694Y-43720388D01*
X21363777Y-43728699D01*
X21503213Y-43889667D01*
X21510580Y-43896883D01*
X21674434Y-44032916D01*
X21682881Y-44038831D01*
X21752479Y-44079501D01*
X21801203Y-44131140D01*
X21814274Y-44200923D01*
X21787543Y-44266694D01*
X21747087Y-44300053D01*
X21738462Y-44304542D01*
X21729738Y-44310036D01*
X21559433Y-44437905D01*
X21551726Y-44444748D01*
X21404590Y-44598717D01*
X21398104Y-44606727D01*
X21278098Y-44782649D01*
X21273000Y-44791623D01*
X21183338Y-44984783D01*
X21179775Y-44994470D01*
X21124389Y-45194183D01*
X20508500Y-45194183D01*
X20508500Y-42654183D01*
X21124389Y-42654183D01*
X21125912Y-42662607D01*
X21138292Y-42666000D01*
X22187885Y-42666000D01*
X22203124Y-42661525D01*
X22204329Y-42660135D01*
X22206000Y-42652452D01*
X22206000Y-40652115D01*
X22201525Y-40636876D01*
X22200135Y-40635671D01*
X22192452Y-40634000D01*
X21143225Y-40634000D01*
X21129694Y-40637973D01*
X21128257Y-40647966D01*
X21158565Y-40782446D01*
X21161645Y-40792275D01*
X21241770Y-40989603D01*
X21246413Y-40998794D01*
X21357694Y-41180388D01*
X21363777Y-41188699D01*
X21503213Y-41349667D01*
X21510580Y-41356883D01*
X21674434Y-41492916D01*
X21682881Y-41498831D01*
X21752479Y-41539501D01*
X21801203Y-41591140D01*
X21814274Y-41660923D01*
X21787543Y-41726694D01*
X21747087Y-41760053D01*
X21738462Y-41764542D01*
X21729738Y-41770036D01*
X21559433Y-41897905D01*
X21551726Y-41904748D01*
X21404590Y-42058717D01*
X21398104Y-42066727D01*
X21278098Y-42242649D01*
X21273000Y-42251623D01*
X21183338Y-42444783D01*
X21179775Y-42454470D01*
X21124389Y-42654183D01*
X20508500Y-42654183D01*
X20508500Y-40114183D01*
X21124389Y-40114183D01*
X21125912Y-40122607D01*
X21138292Y-40126000D01*
X22187885Y-40126000D01*
X22203124Y-40121525D01*
X22204329Y-40120135D01*
X22206000Y-40112452D01*
X22206000Y-38112115D01*
X22201525Y-38096876D01*
X22200135Y-38095671D01*
X22192452Y-38094000D01*
X21143225Y-38094000D01*
X21129694Y-38097973D01*
X21128257Y-38107966D01*
X21158565Y-38242446D01*
X21161645Y-38252275D01*
X21241770Y-38449603D01*
X21246413Y-38458794D01*
X21357694Y-38640388D01*
X21363777Y-38648699D01*
X21503213Y-38809667D01*
X21510580Y-38816883D01*
X21674434Y-38952916D01*
X21682881Y-38958831D01*
X21752479Y-38999501D01*
X21801203Y-39051140D01*
X21814274Y-39120923D01*
X21787543Y-39186694D01*
X21747087Y-39220053D01*
X21738462Y-39224542D01*
X21729738Y-39230036D01*
X21559433Y-39357905D01*
X21551726Y-39364748D01*
X21404590Y-39518717D01*
X21398104Y-39526727D01*
X21278098Y-39702649D01*
X21273000Y-39711623D01*
X21183338Y-39904783D01*
X21179775Y-39914470D01*
X21124389Y-40114183D01*
X20508500Y-40114183D01*
X20508500Y-37574183D01*
X21124389Y-37574183D01*
X21125912Y-37582607D01*
X21138292Y-37586000D01*
X22187885Y-37586000D01*
X22203124Y-37581525D01*
X22204329Y-37580135D01*
X22206000Y-37572452D01*
X22206000Y-35572115D01*
X22201525Y-35556876D01*
X22200135Y-35555671D01*
X22192452Y-35554000D01*
X21143225Y-35554000D01*
X21129694Y-35557973D01*
X21128257Y-35567966D01*
X21158565Y-35702446D01*
X21161645Y-35712275D01*
X21241770Y-35909603D01*
X21246413Y-35918794D01*
X21357694Y-36100388D01*
X21363777Y-36108699D01*
X21503213Y-36269667D01*
X21510580Y-36276883D01*
X21674434Y-36412916D01*
X21682881Y-36418831D01*
X21752479Y-36459501D01*
X21801203Y-36511140D01*
X21814274Y-36580923D01*
X21787543Y-36646694D01*
X21747087Y-36680053D01*
X21738462Y-36684542D01*
X21729738Y-36690036D01*
X21559433Y-36817905D01*
X21551726Y-36824748D01*
X21404590Y-36978717D01*
X21398104Y-36986727D01*
X21278098Y-37162649D01*
X21273000Y-37171623D01*
X21183338Y-37364783D01*
X21179775Y-37374470D01*
X21124389Y-37574183D01*
X20508500Y-37574183D01*
X20508500Y-35034183D01*
X21124389Y-35034183D01*
X21125912Y-35042607D01*
X21138292Y-35046000D01*
X22187885Y-35046000D01*
X22203124Y-35041525D01*
X22204329Y-35040135D01*
X22206000Y-35032452D01*
X22206000Y-33032115D01*
X22201525Y-33016876D01*
X22200135Y-33015671D01*
X22192452Y-33014000D01*
X21143225Y-33014000D01*
X21129694Y-33017973D01*
X21128257Y-33027966D01*
X21158565Y-33162446D01*
X21161645Y-33172275D01*
X21241770Y-33369603D01*
X21246413Y-33378794D01*
X21357694Y-33560388D01*
X21363777Y-33568699D01*
X21503213Y-33729667D01*
X21510580Y-33736883D01*
X21674434Y-33872916D01*
X21682881Y-33878831D01*
X21752479Y-33919501D01*
X21801203Y-33971140D01*
X21814274Y-34040923D01*
X21787543Y-34106694D01*
X21747087Y-34140053D01*
X21738462Y-34144542D01*
X21729738Y-34150036D01*
X21559433Y-34277905D01*
X21551726Y-34284748D01*
X21404590Y-34438717D01*
X21398104Y-34446727D01*
X21278098Y-34622649D01*
X21273000Y-34631623D01*
X21183338Y-34824783D01*
X21179775Y-34834470D01*
X21124389Y-35034183D01*
X20508500Y-35034183D01*
X20508500Y-32494183D01*
X21124389Y-32494183D01*
X21125912Y-32502607D01*
X21138292Y-32506000D01*
X22187885Y-32506000D01*
X22203124Y-32501525D01*
X22204329Y-32500135D01*
X22206000Y-32492452D01*
X22206000Y-30492115D01*
X22201525Y-30476876D01*
X22200135Y-30475671D01*
X22192452Y-30474000D01*
X21143225Y-30474000D01*
X21129694Y-30477973D01*
X21128257Y-30487966D01*
X21158565Y-30622446D01*
X21161645Y-30632275D01*
X21241770Y-30829603D01*
X21246413Y-30838794D01*
X21357694Y-31020388D01*
X21363777Y-31028699D01*
X21503213Y-31189667D01*
X21510580Y-31196883D01*
X21674434Y-31332916D01*
X21682881Y-31338831D01*
X21752479Y-31379501D01*
X21801203Y-31431140D01*
X21814274Y-31500923D01*
X21787543Y-31566694D01*
X21747087Y-31600053D01*
X21738462Y-31604542D01*
X21729738Y-31610036D01*
X21559433Y-31737905D01*
X21551726Y-31744748D01*
X21404590Y-31898717D01*
X21398104Y-31906727D01*
X21278098Y-32082649D01*
X21273000Y-32091623D01*
X21183338Y-32284783D01*
X21179775Y-32294470D01*
X21124389Y-32494183D01*
X20508500Y-32494183D01*
X20508500Y-29954183D01*
X21124389Y-29954183D01*
X21125912Y-29962607D01*
X21138292Y-29966000D01*
X22187885Y-29966000D01*
X22203124Y-29961525D01*
X22204329Y-29960135D01*
X22206000Y-29952452D01*
X22206000Y-28903102D01*
X22202082Y-28889758D01*
X22187806Y-28887771D01*
X22149324Y-28893660D01*
X22139288Y-28896051D01*
X21936868Y-28962212D01*
X21927359Y-28966209D01*
X21738463Y-29064542D01*
X21729738Y-29070036D01*
X21559433Y-29197905D01*
X21551726Y-29204748D01*
X21404590Y-29358717D01*
X21398104Y-29366727D01*
X21278098Y-29542649D01*
X21273000Y-29551623D01*
X21183338Y-29744783D01*
X21179775Y-29754470D01*
X21124389Y-29954183D01*
X20508500Y-29954183D01*
X20508500Y-25839945D01*
X20528502Y-25771824D01*
X20582158Y-25725331D01*
X20652432Y-25715227D01*
X20717012Y-25744721D01*
X20746767Y-25782742D01*
X20782872Y-25853603D01*
X20786169Y-25859313D01*
X20994253Y-26179735D01*
X20998123Y-26185061D01*
X21191478Y-26423835D01*
X21203733Y-26432300D01*
X21214824Y-26425966D01*
X21395577Y-26245213D01*
X21457889Y-26211187D01*
X21528704Y-26216252D01*
X21578307Y-26249997D01*
X21691691Y-26375922D01*
X21697037Y-26379806D01*
X21697038Y-26379807D01*
X21741231Y-26411916D01*
X21784584Y-26468138D01*
X21790659Y-26538875D01*
X21756264Y-26602946D01*
X21574900Y-26784310D01*
X21567759Y-26797386D01*
X21575216Y-26807753D01*
X21814935Y-27001874D01*
X21820272Y-27005751D01*
X22140685Y-27213830D01*
X22146394Y-27217127D01*
X22486811Y-27390578D01*
X22492836Y-27393260D01*
X22849502Y-27530171D01*
X22855784Y-27532212D01*
X23224816Y-27631094D01*
X23231266Y-27632465D01*
X23608629Y-27692234D01*
X23615167Y-27692920D01*
X23996699Y-27712916D01*
X24003301Y-27712916D01*
X24384833Y-27692920D01*
X24391371Y-27692234D01*
X24768734Y-27632465D01*
X24775184Y-27631094D01*
X25144216Y-27532212D01*
X25150498Y-27530171D01*
X25507164Y-27393260D01*
X25513189Y-27390578D01*
X25853606Y-27217127D01*
X25859315Y-27213830D01*
X26179728Y-27005751D01*
X26185065Y-27001874D01*
X26423835Y-26808522D01*
X26432300Y-26796267D01*
X26425966Y-26785176D01*
X26243736Y-26602946D01*
X26209710Y-26540634D01*
X26214775Y-26469819D01*
X26258769Y-26411916D01*
X26302962Y-26379807D01*
X26302963Y-26379806D01*
X26308309Y-26375922D01*
X26421693Y-26249997D01*
X26482138Y-26212758D01*
X26553122Y-26214110D01*
X26604423Y-26245213D01*
X26784310Y-26425100D01*
X26797386Y-26432241D01*
X26807753Y-26424784D01*
X27001877Y-26185061D01*
X27005747Y-26179735D01*
X27213831Y-25859313D01*
X27217128Y-25853603D01*
X27390578Y-25513189D01*
X27393260Y-25507164D01*
X27418926Y-25440302D01*
X29465000Y-25440302D01*
X29465344Y-25446862D01*
X29479259Y-25579261D01*
X29481989Y-25592102D01*
X29536889Y-25761066D01*
X29542235Y-25773074D01*
X29631062Y-25926927D01*
X29638786Y-25937558D01*
X29757663Y-26069585D01*
X29767426Y-26078376D01*
X29911157Y-26182802D01*
X29922529Y-26189368D01*
X30084839Y-26261633D01*
X30097325Y-26265690D01*
X30101278Y-26266530D01*
X30115341Y-26265457D01*
X30119000Y-26255503D01*
X30119000Y-25418115D01*
X30114525Y-25402876D01*
X30113135Y-25401671D01*
X30105452Y-25400000D01*
X29483115Y-25400000D01*
X29467876Y-25404475D01*
X29466671Y-25405865D01*
X29465000Y-25413548D01*
X29465000Y-25440302D01*
X27418926Y-25440302D01*
X27530171Y-25150498D01*
X27532212Y-25144216D01*
X27604647Y-24873885D01*
X29465000Y-24873885D01*
X29469475Y-24889124D01*
X29470865Y-24890329D01*
X29478548Y-24892000D01*
X30100885Y-24892000D01*
X30116124Y-24887525D01*
X30117329Y-24886135D01*
X30119000Y-24878452D01*
X30119000Y-24039818D01*
X30115027Y-24026287D01*
X30104532Y-24024778D01*
X30097325Y-24026310D01*
X30084839Y-24030367D01*
X29922529Y-24102632D01*
X29911157Y-24109198D01*
X29767426Y-24213624D01*
X29757663Y-24222415D01*
X29638786Y-24354442D01*
X29631062Y-24365073D01*
X29542235Y-24518926D01*
X29536889Y-24530934D01*
X29481989Y-24699898D01*
X29479259Y-24712739D01*
X29465344Y-24845138D01*
X29465000Y-24851698D01*
X29465000Y-24873885D01*
X27604647Y-24873885D01*
X27631094Y-24775184D01*
X27632465Y-24768734D01*
X27692234Y-24391371D01*
X27692920Y-24384833D01*
X27712916Y-24003301D01*
X27712916Y-23996699D01*
X27692920Y-23615167D01*
X27692234Y-23608629D01*
X27632465Y-23231266D01*
X27631094Y-23224816D01*
X27532212Y-22855784D01*
X27530171Y-22849502D01*
X27393260Y-22492836D01*
X27390578Y-22486811D01*
X27217128Y-22146397D01*
X27213831Y-22140687D01*
X27005747Y-21820265D01*
X27001877Y-21814939D01*
X26808522Y-21576165D01*
X26796267Y-21567700D01*
X26785176Y-21574034D01*
X24372022Y-23987188D01*
X24364408Y-24001132D01*
X24364539Y-24002965D01*
X24368790Y-24009580D01*
X25150376Y-24791166D01*
X25184402Y-24853478D01*
X25179337Y-24924293D01*
X25135343Y-24982196D01*
X25092941Y-25013004D01*
X25085803Y-25018190D01*
X24972420Y-25144115D01*
X24911974Y-25181354D01*
X24840990Y-25180002D01*
X24789689Y-25148899D01*
X24012812Y-24372022D01*
X23998868Y-24364408D01*
X23997035Y-24364539D01*
X23990420Y-24368790D01*
X23210311Y-25148899D01*
X23147999Y-25182925D01*
X23077184Y-25177860D01*
X23027580Y-25144115D01*
X22914197Y-25018190D01*
X22907059Y-25013004D01*
X22864657Y-24982196D01*
X22821304Y-24925974D01*
X22815229Y-24855237D01*
X22849624Y-24791166D01*
X26425100Y-21215690D01*
X26432241Y-21202614D01*
X26424784Y-21192247D01*
X26185065Y-20998126D01*
X26179728Y-20994249D01*
X25859315Y-20786170D01*
X25853606Y-20782874D01*
X25782743Y-20746767D01*
X25731128Y-20698019D01*
X25714062Y-20629104D01*
X25736963Y-20561902D01*
X25792560Y-20517750D01*
X25839946Y-20508500D01*
X64160055Y-20508500D01*
X64228176Y-20528502D01*
G37*
G04 #@! TD.AperFunction*
G04 #@! TA.AperFunction,Conductor*
G36*
X24922816Y-64822140D02*
G01*
X24972419Y-64855885D01*
X25085803Y-64981810D01*
X25091149Y-64985694D01*
X25091150Y-64985695D01*
X25135343Y-65017804D01*
X25178696Y-65074026D01*
X25184771Y-65144763D01*
X25150376Y-65208834D01*
X24372022Y-65987188D01*
X24364408Y-66001132D01*
X24364539Y-66002965D01*
X24368790Y-66009580D01*
X25150376Y-66791166D01*
X25184402Y-66853478D01*
X25179337Y-66924293D01*
X25135343Y-66982196D01*
X25100611Y-67007431D01*
X25085803Y-67018190D01*
X24989444Y-67125208D01*
X24972420Y-67144115D01*
X24911974Y-67181354D01*
X24840990Y-67180002D01*
X24789689Y-67148899D01*
X22849624Y-65208834D01*
X22815598Y-65146522D01*
X22820663Y-65075707D01*
X22864657Y-65017804D01*
X22908850Y-64985695D01*
X22908851Y-64985694D01*
X22914197Y-64981810D01*
X23027581Y-64855885D01*
X23088026Y-64818646D01*
X23159010Y-64819998D01*
X23210311Y-64851101D01*
X23987188Y-65627978D01*
X24001132Y-65635592D01*
X24002965Y-65635461D01*
X24009580Y-65631210D01*
X24789689Y-64851101D01*
X24852001Y-64817075D01*
X24922816Y-64822140D01*
G37*
G04 #@! TD.AperFunction*
G04 #@! TA.AperFunction,Conductor*
G36*
X39712416Y-46677502D02*
G01*
X39733390Y-46694405D01*
X41987183Y-48948198D01*
X42021209Y-49010510D01*
X42023397Y-49024119D01*
X42027775Y-49065773D01*
X42030143Y-49088297D01*
X42032458Y-49110328D01*
X42091473Y-49291956D01*
X42119790Y-49341002D01*
X42136527Y-49409994D01*
X42113307Y-49477086D01*
X42057500Y-49520974D01*
X42010670Y-49530000D01*
X37972000Y-49530000D01*
X37903879Y-49509998D01*
X37857386Y-49456342D01*
X37846000Y-49404000D01*
X37846000Y-46900940D01*
X37866002Y-46832819D01*
X37919658Y-46786326D01*
X37960580Y-46775459D01*
X38009600Y-46770998D01*
X38016302Y-46768820D01*
X38016304Y-46768820D01*
X38175409Y-46717124D01*
X38175412Y-46717123D01*
X38182108Y-46714947D01*
X38188159Y-46711340D01*
X38188161Y-46711339D01*
X38248666Y-46675271D01*
X38313183Y-46657500D01*
X39644295Y-46657500D01*
X39712416Y-46677502D01*
G37*
G04 #@! TD.AperFunction*
G04 #@! TA.AperFunction,Conductor*
G36*
X46092010Y-38337512D02*
G01*
X46138503Y-38391168D01*
X46149889Y-38443510D01*
X46149889Y-39693344D01*
X46149597Y-39701913D01*
X46147132Y-39738080D01*
X46145813Y-39757423D01*
X46147118Y-39764900D01*
X46147118Y-39764903D01*
X46156391Y-39818036D01*
X46157354Y-39824560D01*
X46164744Y-39885624D01*
X46167431Y-39892734D01*
X46168635Y-39897637D01*
X46171503Y-39908123D01*
X46172950Y-39912915D01*
X46174255Y-39920393D01*
X46177307Y-39927345D01*
X46177307Y-39927346D01*
X46198984Y-39976730D01*
X46201475Y-39982835D01*
X46220534Y-40033271D01*
X46223220Y-40040378D01*
X46227520Y-40046635D01*
X46229856Y-40051103D01*
X46235114Y-40060549D01*
X46237696Y-40064915D01*
X46240751Y-40071874D01*
X46278212Y-40120693D01*
X46282075Y-40126012D01*
X46299135Y-40150834D01*
X46316923Y-40176715D01*
X46322592Y-40181766D01*
X46361712Y-40216621D01*
X46366987Y-40221602D01*
X47883844Y-41738459D01*
X47889698Y-41744724D01*
X47926290Y-41786670D01*
X47976655Y-41822066D01*
X47981920Y-41825978D01*
X48030328Y-41863935D01*
X48037252Y-41867061D01*
X48041561Y-41869671D01*
X48050976Y-41875042D01*
X48055424Y-41877427D01*
X48061639Y-41881795D01*
X48118957Y-41904142D01*
X48125029Y-41906694D01*
X48181105Y-41932014D01*
X48188582Y-41933400D01*
X48193402Y-41934910D01*
X48203818Y-41937878D01*
X48208698Y-41939131D01*
X48215772Y-41941889D01*
X48223305Y-41942881D01*
X48223306Y-41942881D01*
X48235589Y-41944498D01*
X48300516Y-41973220D01*
X48339609Y-42032484D01*
X48343034Y-42092380D01*
X48334839Y-42136597D01*
X48335276Y-42144177D01*
X48335276Y-42144178D01*
X48338291Y-42196472D01*
X48338500Y-42203724D01*
X48338500Y-46700345D01*
X48318498Y-46768466D01*
X48264842Y-46814959D01*
X48194568Y-46825063D01*
X48129988Y-46795569D01*
X48123405Y-46789440D01*
X47567831Y-46233865D01*
X46802498Y-45468532D01*
X46796644Y-45462267D01*
X46782908Y-45446521D01*
X46760051Y-45420320D01*
X46709686Y-45384924D01*
X46704418Y-45381010D01*
X46661990Y-45347742D01*
X46656013Y-45343055D01*
X46649089Y-45339929D01*
X46644780Y-45337319D01*
X46635365Y-45331948D01*
X46630917Y-45329563D01*
X46624702Y-45325195D01*
X46567385Y-45302848D01*
X46561307Y-45300293D01*
X46536973Y-45289306D01*
X46505237Y-45274976D01*
X46497765Y-45273591D01*
X46492914Y-45272071D01*
X46482576Y-45269126D01*
X46477645Y-45267860D01*
X46470569Y-45265101D01*
X46463040Y-45264110D01*
X46463037Y-45264109D01*
X46409575Y-45257071D01*
X46403060Y-45256039D01*
X46350042Y-45246213D01*
X46350041Y-45246213D01*
X46342574Y-45244829D01*
X46334994Y-45245266D01*
X46334993Y-45245266D01*
X46282699Y-45248281D01*
X46275447Y-45248490D01*
X44870295Y-45248490D01*
X44802174Y-45228488D01*
X44781200Y-45211585D01*
X44643406Y-45073791D01*
X44609380Y-45011479D01*
X44606501Y-44984696D01*
X44606501Y-41971080D01*
X44626503Y-41902959D01*
X44681252Y-41855973D01*
X44773722Y-41814803D01*
X44773724Y-41814802D01*
X44779752Y-41812118D01*
X44805795Y-41793197D01*
X44848938Y-41761851D01*
X44934253Y-41699866D01*
X44952653Y-41679431D01*
X45057621Y-41562852D01*
X45057622Y-41562851D01*
X45062040Y-41557944D01*
X45129404Y-41441266D01*
X45154223Y-41398279D01*
X45154224Y-41398278D01*
X45157527Y-41392556D01*
X45216542Y-41210928D01*
X45218879Y-41188699D01*
X45235814Y-41027565D01*
X45236504Y-41021000D01*
X45227308Y-40933502D01*
X45217232Y-40837635D01*
X45217232Y-40837633D01*
X45216542Y-40831072D01*
X45157527Y-40649444D01*
X45148611Y-40634000D01*
X45065341Y-40489774D01*
X45062040Y-40484056D01*
X44934253Y-40342134D01*
X44779752Y-40229882D01*
X44773724Y-40227198D01*
X44773722Y-40227197D01*
X44611319Y-40154891D01*
X44611318Y-40154891D01*
X44605288Y-40152206D01*
X44482056Y-40126012D01*
X44424944Y-40113872D01*
X44424939Y-40113872D01*
X44418487Y-40112500D01*
X44227513Y-40112500D01*
X44221061Y-40113872D01*
X44221056Y-40113872D01*
X44163944Y-40126012D01*
X44040712Y-40152206D01*
X44034682Y-40154891D01*
X44034681Y-40154891D01*
X43872278Y-40227197D01*
X43872276Y-40227198D01*
X43866248Y-40229882D01*
X43711747Y-40342134D01*
X43583960Y-40484056D01*
X43580659Y-40489774D01*
X43497390Y-40634000D01*
X43488473Y-40649444D01*
X43429458Y-40831072D01*
X43421005Y-40911504D01*
X43420095Y-40920160D01*
X43397872Y-40979439D01*
X43390729Y-40989603D01*
X43375955Y-41010625D01*
X43372023Y-41015919D01*
X43334066Y-41064327D01*
X43330940Y-41071251D01*
X43328330Y-41075560D01*
X43322959Y-41084975D01*
X43320574Y-41089423D01*
X43316206Y-41095638D01*
X43293859Y-41152956D01*
X43291307Y-41159028D01*
X43265987Y-41215104D01*
X43264601Y-41222581D01*
X43263091Y-41227401D01*
X43260119Y-41237834D01*
X43258871Y-41242695D01*
X43256112Y-41249771D01*
X43249692Y-41298537D01*
X43248083Y-41310761D01*
X43247051Y-41317277D01*
X43235840Y-41377766D01*
X43236277Y-41385346D01*
X43236277Y-41385347D01*
X43239292Y-41437641D01*
X43239501Y-41444893D01*
X43239501Y-45016696D01*
X43219499Y-45084817D01*
X43165843Y-45131310D01*
X43095569Y-45141414D01*
X43030989Y-45111920D01*
X43024406Y-45105791D01*
X42757405Y-44838790D01*
X42723379Y-44776478D01*
X42720500Y-44749695D01*
X42720500Y-39127994D01*
X42740502Y-39059873D01*
X42752865Y-39043683D01*
X42771617Y-39022857D01*
X42771620Y-39022853D01*
X42776040Y-39017944D01*
X42813584Y-38952916D01*
X42868223Y-38858279D01*
X42868224Y-38858278D01*
X42871527Y-38852556D01*
X42930542Y-38670928D01*
X42932879Y-38648699D01*
X42949814Y-38487565D01*
X42950504Y-38481000D01*
X42947948Y-38456680D01*
X42960720Y-38386842D01*
X43009223Y-38334995D01*
X43073258Y-38317510D01*
X46023889Y-38317510D01*
X46092010Y-38337512D01*
G37*
G04 #@! TD.AperFunction*
G04 #@! TA.AperFunction,Conductor*
G36*
X41068863Y-38337512D02*
G01*
X41115356Y-38391168D01*
X41126052Y-38456680D01*
X41123496Y-38481000D01*
X41124186Y-38487565D01*
X41141122Y-38648699D01*
X41143458Y-38670928D01*
X41202473Y-38852556D01*
X41205776Y-38858278D01*
X41205777Y-38858279D01*
X41260416Y-38952916D01*
X41297960Y-39017944D01*
X41302380Y-39022853D01*
X41302383Y-39022857D01*
X41321135Y-39043683D01*
X41351853Y-39107690D01*
X41353500Y-39127994D01*
X41353500Y-43908526D01*
X41333498Y-43976647D01*
X41279842Y-44023140D01*
X41209568Y-44033244D01*
X41144988Y-44003750D01*
X41138405Y-43997621D01*
X41094984Y-43954200D01*
X41059955Y-43886767D01*
X41050599Y-43833156D01*
X41049636Y-43826632D01*
X41043159Y-43773112D01*
X41042246Y-43765568D01*
X41039559Y-43758458D01*
X41038355Y-43753555D01*
X41035487Y-43743069D01*
X41034040Y-43738277D01*
X41032735Y-43730799D01*
X41029683Y-43723846D01*
X41008006Y-43674462D01*
X41005515Y-43668357D01*
X40986456Y-43617921D01*
X40986454Y-43617918D01*
X40983770Y-43610814D01*
X40979470Y-43604557D01*
X40977134Y-43600089D01*
X40971876Y-43590643D01*
X40969294Y-43586277D01*
X40966239Y-43579318D01*
X40928778Y-43530499D01*
X40924915Y-43525180D01*
X40894370Y-43480738D01*
X40890067Y-43474477D01*
X40845277Y-43434570D01*
X40840003Y-43429590D01*
X40435817Y-43025404D01*
X40401791Y-42963092D01*
X40399602Y-42949479D01*
X40391232Y-42869837D01*
X40391232Y-42869835D01*
X40390542Y-42863274D01*
X40331527Y-42681646D01*
X40236040Y-42516258D01*
X40173694Y-42447015D01*
X40112675Y-42379247D01*
X40112674Y-42379246D01*
X40108253Y-42374336D01*
X39953752Y-42262084D01*
X39947724Y-42259400D01*
X39947722Y-42259399D01*
X39785319Y-42187093D01*
X39785318Y-42187093D01*
X39779288Y-42184408D01*
X39685887Y-42164555D01*
X39598944Y-42146074D01*
X39598939Y-42146074D01*
X39592487Y-42144702D01*
X39401513Y-42144702D01*
X39395061Y-42146074D01*
X39395056Y-42146074D01*
X39308113Y-42164555D01*
X39214712Y-42184408D01*
X39208682Y-42187093D01*
X39208681Y-42187093D01*
X39046278Y-42259399D01*
X39046276Y-42259400D01*
X39040248Y-42262084D01*
X38885747Y-42374336D01*
X38881326Y-42379246D01*
X38881325Y-42379247D01*
X38820307Y-42447015D01*
X38757960Y-42516258D01*
X38662473Y-42681646D01*
X38603458Y-42863274D01*
X38602768Y-42869835D01*
X38602768Y-42869837D01*
X38594196Y-42951400D01*
X38583496Y-43053202D01*
X38584186Y-43059767D01*
X38600460Y-43214602D01*
X38603458Y-43243130D01*
X38662473Y-43424758D01*
X38665776Y-43430480D01*
X38665777Y-43430481D01*
X38676045Y-43448265D01*
X38757960Y-43590146D01*
X38836465Y-43677334D01*
X38867181Y-43741341D01*
X38858416Y-43811794D01*
X38851946Y-43824643D01*
X38770569Y-43965593D01*
X38764073Y-43976844D01*
X38705058Y-44158472D01*
X38704368Y-44165033D01*
X38704368Y-44165035D01*
X38700596Y-44200923D01*
X38687817Y-44322517D01*
X38687338Y-44327071D01*
X38660325Y-44392728D01*
X38602103Y-44433358D01*
X38562028Y-44439901D01*
X37237440Y-44439901D01*
X37169319Y-44419899D01*
X37122826Y-44366243D01*
X37112722Y-44295969D01*
X37142216Y-44231389D01*
X37148345Y-44224806D01*
X37312073Y-44061078D01*
X37318338Y-44055224D01*
X37360284Y-44018632D01*
X37395680Y-43968270D01*
X37399590Y-43963005D01*
X37404190Y-43957139D01*
X37437549Y-43914593D01*
X37440676Y-43907668D01*
X37443297Y-43903340D01*
X37448660Y-43893939D01*
X37451042Y-43889497D01*
X37455409Y-43883283D01*
X37477756Y-43825966D01*
X37480312Y-43819885D01*
X37502503Y-43770738D01*
X37505628Y-43763817D01*
X37507013Y-43756345D01*
X37508517Y-43751544D01*
X37511492Y-43741104D01*
X37512745Y-43736224D01*
X37515503Y-43729150D01*
X37523535Y-43668145D01*
X37524567Y-43661632D01*
X37534391Y-43608623D01*
X37534391Y-43608621D01*
X37535775Y-43601154D01*
X37532323Y-43541279D01*
X37532114Y-43534027D01*
X37532114Y-41337691D01*
X37552116Y-41269570D01*
X37569019Y-41248596D01*
X40463200Y-38354415D01*
X40525512Y-38320389D01*
X40552295Y-38317510D01*
X41000742Y-38317510D01*
X41068863Y-38337512D01*
G37*
G04 #@! TD.AperFunction*
G04 #@! TA.AperFunction,Conductor*
G36*
X52848013Y-31463082D02*
G01*
X52854596Y-31469211D01*
X53127595Y-31742210D01*
X53161621Y-31804522D01*
X53164500Y-31831305D01*
X53164500Y-40219527D01*
X53144498Y-40287648D01*
X53127595Y-40308622D01*
X52854596Y-40581621D01*
X52792284Y-40615647D01*
X52721469Y-40610582D01*
X52664633Y-40568035D01*
X52639822Y-40501515D01*
X52639501Y-40492526D01*
X52639501Y-31558306D01*
X52659503Y-31490185D01*
X52713159Y-31443692D01*
X52783433Y-31433588D01*
X52848013Y-31463082D01*
G37*
G04 #@! TD.AperFunction*
G04 #@! TA.AperFunction,Conductor*
G36*
X46541047Y-33265732D02*
G01*
X46597883Y-33308279D01*
X46622694Y-33374799D01*
X46606134Y-33446788D01*
X46546939Y-33549317D01*
X46536473Y-33567444D01*
X46477458Y-33749072D01*
X46476768Y-33755633D01*
X46476768Y-33755635D01*
X46460418Y-33911202D01*
X46457496Y-33939000D01*
X46458186Y-33945565D01*
X46476429Y-34119134D01*
X46477458Y-34128928D01*
X46536473Y-34310556D01*
X46539776Y-34316278D01*
X46539777Y-34316279D01*
X46550269Y-34334451D01*
X46631960Y-34475944D01*
X46759747Y-34617866D01*
X46815097Y-34658080D01*
X46907917Y-34725518D01*
X46914248Y-34730118D01*
X46920276Y-34732802D01*
X46920278Y-34732803D01*
X47082681Y-34805109D01*
X47088712Y-34807794D01*
X47168639Y-34824783D01*
X47269057Y-34846128D01*
X47269060Y-34846128D01*
X47273782Y-34847132D01*
X47275513Y-34847500D01*
X47275446Y-34847817D01*
X47337781Y-34873462D01*
X47348050Y-34882665D01*
X47855920Y-35390535D01*
X47889946Y-35452847D01*
X47884881Y-35523662D01*
X47842334Y-35580498D01*
X47818074Y-35594737D01*
X47682278Y-35655197D01*
X47682276Y-35655198D01*
X47676248Y-35657882D01*
X47670907Y-35661762D01*
X47670906Y-35661763D01*
X47561246Y-35741436D01*
X47494378Y-35765295D01*
X47487185Y-35765500D01*
X45556376Y-35765500D01*
X45488255Y-35745498D01*
X45441762Y-35691842D01*
X45431658Y-35621568D01*
X45436541Y-35600571D01*
X45470542Y-35495928D01*
X45472546Y-35476866D01*
X45489814Y-35312565D01*
X45490504Y-35306000D01*
X45470542Y-35116072D01*
X45411527Y-34934444D01*
X45316040Y-34769056D01*
X45214827Y-34656647D01*
X45184111Y-34592642D01*
X45192875Y-34522188D01*
X45219369Y-34483244D01*
X46407920Y-33294693D01*
X46470232Y-33260667D01*
X46541047Y-33265732D01*
G37*
G04 #@! TD.AperFunction*
M02*
