G04 #@! TF.GenerationSoftware,KiCad,Pcbnew,(6.0.9)*
G04 #@! TF.CreationDate,2023-03-18T16:21:46+02:00*
G04 #@! TF.ProjectId,HadesMicro,48616465-734d-4696-9372-6f2e6b696361,rev?*
G04 #@! TF.SameCoordinates,Original*
G04 #@! TF.FileFunction,AssemblyDrawing,Top*
%FSLAX46Y46*%
G04 Gerber Fmt 4.6, Leading zero omitted, Abs format (unit mm)*
G04 Created by KiCad (PCBNEW (6.0.9)) date 2023-03-18 16:21:46*
%MOMM*%
%LPD*%
G01*
G04 APERTURE LIST*
%ADD10C,0.150000*%
%ADD11C,0.100000*%
G04 APERTURE END LIST*
D10*
X43815000Y-67386200D02*
G75*
G03*
X43815000Y-67386200I-25400J0D01*
G01*
X43846396Y-67386200D02*
G75*
G03*
X43846396Y-67386200I-56796J0D01*
G01*
D11*
X34271152Y-28412285D02*
X34437819Y-28412285D01*
X34509247Y-28674190D02*
X34271152Y-28674190D01*
X34271152Y-28174190D01*
X34509247Y-28174190D01*
X34723533Y-28412285D02*
X34890200Y-28412285D01*
X34961628Y-28674190D02*
X34723533Y-28674190D01*
X34723533Y-28174190D01*
X34961628Y-28174190D01*
X35175914Y-28674190D02*
X35175914Y-28174190D01*
X35366390Y-28174190D01*
X35414009Y-28198000D01*
X35437819Y-28221809D01*
X35461628Y-28269428D01*
X35461628Y-28340857D01*
X35437819Y-28388476D01*
X35414009Y-28412285D01*
X35366390Y-28436095D01*
X35175914Y-28436095D01*
X35961628Y-28674190D02*
X35794961Y-28436095D01*
X35675914Y-28674190D02*
X35675914Y-28174190D01*
X35866390Y-28174190D01*
X35914009Y-28198000D01*
X35937819Y-28221809D01*
X35961628Y-28269428D01*
X35961628Y-28340857D01*
X35937819Y-28388476D01*
X35914009Y-28412285D01*
X35866390Y-28436095D01*
X35675914Y-28436095D01*
X36271152Y-28174190D02*
X36366390Y-28174190D01*
X36414009Y-28198000D01*
X36461628Y-28245619D01*
X36485438Y-28340857D01*
X36485438Y-28507523D01*
X36461628Y-28602761D01*
X36414009Y-28650380D01*
X36366390Y-28674190D01*
X36271152Y-28674190D01*
X36223533Y-28650380D01*
X36175914Y-28602761D01*
X36152104Y-28507523D01*
X36152104Y-28340857D01*
X36175914Y-28245619D01*
X36223533Y-28198000D01*
X36271152Y-28174190D01*
X36699723Y-28674190D02*
X36699723Y-28174190D01*
X36866390Y-28531333D01*
X37033057Y-28174190D01*
X37033057Y-28674190D01*
X37533057Y-28674190D02*
X37247342Y-28674190D01*
X37390200Y-28674190D02*
X37390200Y-28174190D01*
X37342580Y-28245619D01*
X37294961Y-28293238D01*
X37247342Y-28317047D01*
X35044866Y-26924771D02*
X35021057Y-26948580D01*
X34949628Y-26972390D01*
X34902009Y-26972390D01*
X34830580Y-26948580D01*
X34782961Y-26900961D01*
X34759152Y-26853342D01*
X34735342Y-26758104D01*
X34735342Y-26686676D01*
X34759152Y-26591438D01*
X34782961Y-26543819D01*
X34830580Y-26496200D01*
X34902009Y-26472390D01*
X34949628Y-26472390D01*
X35021057Y-26496200D01*
X35044866Y-26520009D01*
X35521057Y-26972390D02*
X35235342Y-26972390D01*
X35378200Y-26972390D02*
X35378200Y-26472390D01*
X35330580Y-26543819D01*
X35282961Y-26591438D01*
X35235342Y-26615247D01*
X41064666Y-23902171D02*
X41040857Y-23925980D01*
X40969428Y-23949790D01*
X40921809Y-23949790D01*
X40850380Y-23925980D01*
X40802761Y-23878361D01*
X40778952Y-23830742D01*
X40755142Y-23735504D01*
X40755142Y-23664076D01*
X40778952Y-23568838D01*
X40802761Y-23521219D01*
X40850380Y-23473600D01*
X40921809Y-23449790D01*
X40969428Y-23449790D01*
X41040857Y-23473600D01*
X41064666Y-23497409D01*
X41255142Y-23497409D02*
X41278952Y-23473600D01*
X41326571Y-23449790D01*
X41445619Y-23449790D01*
X41493238Y-23473600D01*
X41517047Y-23497409D01*
X41540857Y-23545028D01*
X41540857Y-23592647D01*
X41517047Y-23664076D01*
X41231333Y-23949790D01*
X41540857Y-23949790D01*
X39458990Y-28298752D02*
X39458990Y-27898752D01*
X39611371Y-27898752D01*
X39649466Y-27917800D01*
X39668514Y-27936847D01*
X39687561Y-27974942D01*
X39687561Y-28032085D01*
X39668514Y-28070180D01*
X39649466Y-28089228D01*
X39611371Y-28108276D01*
X39458990Y-28108276D01*
X39820895Y-27898752D02*
X39916133Y-28298752D01*
X39992323Y-28013038D01*
X40068514Y-28298752D01*
X40163752Y-27898752D01*
X40544704Y-28298752D02*
X40411371Y-28108276D01*
X40316133Y-28298752D02*
X40316133Y-27898752D01*
X40468514Y-27898752D01*
X40506609Y-27917800D01*
X40525657Y-27936847D01*
X40544704Y-27974942D01*
X40544704Y-28032085D01*
X40525657Y-28070180D01*
X40506609Y-28089228D01*
X40468514Y-28108276D01*
X40316133Y-28108276D01*
X40925657Y-28298752D02*
X40697085Y-28298752D01*
X40811371Y-28298752D02*
X40811371Y-27898752D01*
X40773276Y-27955895D01*
X40735180Y-27993990D01*
X40697085Y-28013038D01*
X42122733Y-28476552D02*
X41989400Y-28286076D01*
X41894161Y-28476552D02*
X41894161Y-28076552D01*
X42046542Y-28076552D01*
X42084638Y-28095600D01*
X42103685Y-28114647D01*
X42122733Y-28152742D01*
X42122733Y-28209885D01*
X42103685Y-28247980D01*
X42084638Y-28267028D01*
X42046542Y-28286076D01*
X41894161Y-28286076D01*
X42256066Y-28076552D02*
X42503685Y-28076552D01*
X42370352Y-28228933D01*
X42427495Y-28228933D01*
X42465590Y-28247980D01*
X42484638Y-28267028D01*
X42503685Y-28305123D01*
X42503685Y-28400361D01*
X42484638Y-28438457D01*
X42465590Y-28457504D01*
X42427495Y-28476552D01*
X42313209Y-28476552D01*
X42275114Y-28457504D01*
X42256066Y-28438457D01*
X38954057Y-30102142D02*
X38973104Y-30121190D01*
X38992152Y-30178333D01*
X38992152Y-30216428D01*
X38973104Y-30273571D01*
X38935009Y-30311666D01*
X38896914Y-30330714D01*
X38820723Y-30349761D01*
X38763580Y-30349761D01*
X38687390Y-30330714D01*
X38649295Y-30311666D01*
X38611200Y-30273571D01*
X38592152Y-30216428D01*
X38592152Y-30178333D01*
X38611200Y-30121190D01*
X38630247Y-30102142D01*
X38992152Y-29721190D02*
X38992152Y-29949761D01*
X38992152Y-29835476D02*
X38592152Y-29835476D01*
X38649295Y-29873571D01*
X38687390Y-29911666D01*
X38706438Y-29949761D01*
X38992152Y-29530714D02*
X38992152Y-29454523D01*
X38973104Y-29416428D01*
X38954057Y-29397380D01*
X38896914Y-29359285D01*
X38820723Y-29340238D01*
X38668342Y-29340238D01*
X38630247Y-29359285D01*
X38611200Y-29378333D01*
X38592152Y-29416428D01*
X38592152Y-29492619D01*
X38611200Y-29530714D01*
X38630247Y-29549761D01*
X38668342Y-29568809D01*
X38763580Y-29568809D01*
X38801676Y-29549761D01*
X38820723Y-29530714D01*
X38839771Y-29492619D01*
X38839771Y-29416428D01*
X38820723Y-29378333D01*
X38801676Y-29359285D01*
X38763580Y-29340238D01*
D10*
X29834828Y-22525485D02*
X30084828Y-23275485D01*
X30334828Y-22525485D01*
X30584828Y-23275485D02*
X30584828Y-22525485D01*
X30941971Y-23275485D02*
X30941971Y-22525485D01*
X31370542Y-23275485D01*
X31370542Y-22525485D01*
X32120542Y-23275485D02*
X31691971Y-23275485D01*
X31906257Y-23275485D02*
X31906257Y-22525485D01*
X31834828Y-22632628D01*
X31763400Y-22704057D01*
X31691971Y-22739771D01*
X47912400Y-23326285D02*
X47662400Y-22969142D01*
X47483828Y-23326285D02*
X47483828Y-22576285D01*
X47769542Y-22576285D01*
X47840971Y-22612000D01*
X47876685Y-22647714D01*
X47912400Y-22719142D01*
X47912400Y-22826285D01*
X47876685Y-22897714D01*
X47840971Y-22933428D01*
X47769542Y-22969142D01*
X47483828Y-22969142D01*
X48662400Y-23254857D02*
X48626685Y-23290571D01*
X48519542Y-23326285D01*
X48448114Y-23326285D01*
X48340971Y-23290571D01*
X48269542Y-23219142D01*
X48233828Y-23147714D01*
X48198114Y-23004857D01*
X48198114Y-22897714D01*
X48233828Y-22754857D01*
X48269542Y-22683428D01*
X48340971Y-22612000D01*
X48448114Y-22576285D01*
X48519542Y-22576285D01*
X48626685Y-22612000D01*
X48662400Y-22647714D01*
X49376685Y-23326285D02*
X48948114Y-23326285D01*
X49162400Y-23326285D02*
X49162400Y-22576285D01*
X49090971Y-22683428D01*
X49019542Y-22754857D01*
X48948114Y-22790571D01*
X55498057Y-22550885D02*
X55926628Y-22550885D01*
X55712342Y-23300885D02*
X55712342Y-22550885D01*
X56176628Y-22908028D02*
X56426628Y-22908028D01*
X56533771Y-23300885D02*
X56176628Y-23300885D01*
X56176628Y-22550885D01*
X56533771Y-22550885D01*
X57212342Y-23300885D02*
X56855200Y-23300885D01*
X56855200Y-22550885D01*
X57462342Y-22908028D02*
X57712342Y-22908028D01*
X57819485Y-23300885D02*
X57462342Y-23300885D01*
X57462342Y-22550885D01*
X57819485Y-22550885D01*
X58140914Y-23300885D02*
X58140914Y-22550885D01*
X58390914Y-23086600D01*
X58640914Y-22550885D01*
X58640914Y-23300885D01*
X59390914Y-23300885D02*
X58962342Y-23300885D01*
X59176628Y-23300885D02*
X59176628Y-22550885D01*
X59105200Y-22658028D01*
X59033771Y-22729457D01*
X58962342Y-22765171D01*
X65295228Y-33879285D02*
X65295228Y-34486428D01*
X65330942Y-34557857D01*
X65366657Y-34593571D01*
X65438085Y-34629285D01*
X65580942Y-34629285D01*
X65652371Y-34593571D01*
X65688085Y-34557857D01*
X65723800Y-34486428D01*
X65723800Y-33879285D01*
X66045228Y-34593571D02*
X66152371Y-34629285D01*
X66330942Y-34629285D01*
X66402371Y-34593571D01*
X66438085Y-34557857D01*
X66473800Y-34486428D01*
X66473800Y-34415000D01*
X66438085Y-34343571D01*
X66402371Y-34307857D01*
X66330942Y-34272142D01*
X66188085Y-34236428D01*
X66116657Y-34200714D01*
X66080942Y-34165000D01*
X66045228Y-34093571D01*
X66045228Y-34022142D01*
X66080942Y-33950714D01*
X66116657Y-33915000D01*
X66188085Y-33879285D01*
X66366657Y-33879285D01*
X66473800Y-33915000D01*
X67045228Y-34236428D02*
X67152371Y-34272142D01*
X67188085Y-34307857D01*
X67223800Y-34379285D01*
X67223800Y-34486428D01*
X67188085Y-34557857D01*
X67152371Y-34593571D01*
X67080942Y-34629285D01*
X66795228Y-34629285D01*
X66795228Y-33879285D01*
X67045228Y-33879285D01*
X67116657Y-33915000D01*
X67152371Y-33950714D01*
X67188085Y-34022142D01*
X67188085Y-34093571D01*
X67152371Y-34165000D01*
X67116657Y-34200714D01*
X67045228Y-34236428D01*
X66795228Y-34236428D01*
X67938085Y-34629285D02*
X67509514Y-34629285D01*
X67723800Y-34629285D02*
X67723800Y-33879285D01*
X67652371Y-33986428D01*
X67580942Y-34057857D01*
X67509514Y-34093571D01*
X34758885Y-37753485D02*
X34758885Y-37003485D01*
X35044600Y-37003485D01*
X35116028Y-37039200D01*
X35151742Y-37074914D01*
X35187457Y-37146342D01*
X35187457Y-37253485D01*
X35151742Y-37324914D01*
X35116028Y-37360628D01*
X35044600Y-37396342D01*
X34758885Y-37396342D01*
X35437457Y-37003485D02*
X35616028Y-37753485D01*
X35758885Y-37217771D01*
X35901742Y-37753485D01*
X36080314Y-37003485D01*
X36366028Y-37753485D02*
X36366028Y-37003485D01*
X36616028Y-37539200D01*
X36866028Y-37003485D01*
X36866028Y-37753485D01*
X37616028Y-37753485D02*
X37187457Y-37753485D01*
X37401742Y-37753485D02*
X37401742Y-37003485D01*
X37330314Y-37110628D01*
X37258885Y-37182057D01*
X37187457Y-37217771D01*
X44008028Y-39277485D02*
X44008028Y-38527485D01*
X44365171Y-39277485D02*
X44365171Y-38527485D01*
X44615171Y-39063200D01*
X44865171Y-38527485D01*
X44865171Y-39277485D01*
X45222314Y-38527485D02*
X45222314Y-39134628D01*
X45258028Y-39206057D01*
X45293742Y-39241771D01*
X45365171Y-39277485D01*
X45508028Y-39277485D01*
X45579457Y-39241771D01*
X45615171Y-39206057D01*
X45650885Y-39134628D01*
X45650885Y-38527485D01*
X46400885Y-39277485D02*
X45972314Y-39277485D01*
X46186600Y-39277485D02*
X46186600Y-38527485D01*
X46115171Y-38634628D01*
X46043742Y-38706057D01*
X45972314Y-38741771D01*
D11*
X44419152Y-32103190D02*
X44419152Y-31603190D01*
X44585819Y-31960333D01*
X44752485Y-31603190D01*
X44752485Y-32103190D01*
X44966771Y-31960333D02*
X45204866Y-31960333D01*
X44919152Y-32103190D02*
X45085819Y-31603190D01*
X45252485Y-32103190D01*
X45681057Y-31627000D02*
X45633438Y-31603190D01*
X45562009Y-31603190D01*
X45490580Y-31627000D01*
X45442961Y-31674619D01*
X45419152Y-31722238D01*
X45395342Y-31817476D01*
X45395342Y-31888904D01*
X45419152Y-31984142D01*
X45442961Y-32031761D01*
X45490580Y-32079380D01*
X45562009Y-32103190D01*
X45609628Y-32103190D01*
X45681057Y-32079380D01*
X45704866Y-32055571D01*
X45704866Y-31888904D01*
X45609628Y-31888904D01*
X46181057Y-32103190D02*
X45895342Y-32103190D01*
X46038200Y-32103190D02*
X46038200Y-31603190D01*
X45990580Y-31674619D01*
X45942961Y-31722238D01*
X45895342Y-31746047D01*
D10*
X44877266Y-52623980D02*
X44877266Y-51623980D01*
X45210600Y-52338266D01*
X45543933Y-51623980D01*
X45543933Y-52623980D01*
X46591552Y-52528742D02*
X46543933Y-52576361D01*
X46401076Y-52623980D01*
X46305838Y-52623980D01*
X46162980Y-52576361D01*
X46067742Y-52481123D01*
X46020123Y-52385885D01*
X45972504Y-52195409D01*
X45972504Y-52052552D01*
X46020123Y-51862076D01*
X46067742Y-51766838D01*
X46162980Y-51671600D01*
X46305838Y-51623980D01*
X46401076Y-51623980D01*
X46543933Y-51671600D01*
X46591552Y-51719219D01*
X47020123Y-51623980D02*
X47020123Y-52433504D01*
X47067742Y-52528742D01*
X47115361Y-52576361D01*
X47210600Y-52623980D01*
X47401076Y-52623980D01*
X47496314Y-52576361D01*
X47543933Y-52528742D01*
X47591552Y-52433504D01*
X47591552Y-51623980D01*
X48591552Y-52623980D02*
X48020123Y-52623980D01*
X48305838Y-52623980D02*
X48305838Y-51623980D01*
X48210600Y-51766838D01*
X48115361Y-51862076D01*
X48020123Y-51909695D01*
X54025895Y-35748980D02*
X54025895Y-36558504D01*
X54073514Y-36653742D01*
X54121133Y-36701361D01*
X54216371Y-36748980D01*
X54406847Y-36748980D01*
X54502085Y-36701361D01*
X54549704Y-36653742D01*
X54597323Y-36558504D01*
X54597323Y-35748980D01*
X55025895Y-35844219D02*
X55073514Y-35796600D01*
X55168752Y-35748980D01*
X55406847Y-35748980D01*
X55502085Y-35796600D01*
X55549704Y-35844219D01*
X55597323Y-35939457D01*
X55597323Y-36034695D01*
X55549704Y-36177552D01*
X54978276Y-36748980D01*
X55597323Y-36748980D01*
X59726580Y-35382104D02*
X60536104Y-35382104D01*
X60631342Y-35334485D01*
X60678961Y-35286866D01*
X60726580Y-35191628D01*
X60726580Y-35001152D01*
X60678961Y-34905914D01*
X60631342Y-34858295D01*
X60536104Y-34810676D01*
X59726580Y-34810676D01*
X60726580Y-33810676D02*
X60726580Y-34382104D01*
X60726580Y-34096390D02*
X59726580Y-34096390D01*
X59869438Y-34191628D01*
X59964676Y-34286866D01*
X60012295Y-34382104D01*
X64282866Y-46429561D02*
X64425723Y-46477180D01*
X64663819Y-46477180D01*
X64759057Y-46429561D01*
X64806676Y-46381942D01*
X64854295Y-46286704D01*
X64854295Y-46191466D01*
X64806676Y-46096228D01*
X64759057Y-46048609D01*
X64663819Y-46000990D01*
X64473342Y-45953371D01*
X64378104Y-45905752D01*
X64330485Y-45858133D01*
X64282866Y-45762895D01*
X64282866Y-45667657D01*
X64330485Y-45572419D01*
X64378104Y-45524800D01*
X64473342Y-45477180D01*
X64711438Y-45477180D01*
X64854295Y-45524800D01*
X65187628Y-45477180D02*
X65425723Y-46477180D01*
X65616200Y-45762895D01*
X65806676Y-46477180D01*
X66044771Y-45477180D01*
X66425723Y-46477180D02*
X66425723Y-45477180D01*
X66663819Y-45477180D01*
X66806676Y-45524800D01*
X66901914Y-45620038D01*
X66949533Y-45715276D01*
X66997152Y-45905752D01*
X66997152Y-46048609D01*
X66949533Y-46239085D01*
X66901914Y-46334323D01*
X66806676Y-46429561D01*
X66663819Y-46477180D01*
X66425723Y-46477180D01*
X67949533Y-46477180D02*
X67378104Y-46477180D01*
X67663819Y-46477180D02*
X67663819Y-45477180D01*
X67568580Y-45620038D01*
X67473342Y-45715276D01*
X67378104Y-45762895D01*
X29967466Y-66781371D02*
X30110323Y-66828990D01*
X30157942Y-66876609D01*
X30205561Y-66971847D01*
X30205561Y-67114704D01*
X30157942Y-67209942D01*
X30110323Y-67257561D01*
X30015085Y-67305180D01*
X29634133Y-67305180D01*
X29634133Y-66305180D01*
X29967466Y-66305180D01*
X30062704Y-66352800D01*
X30110323Y-66400419D01*
X30157942Y-66495657D01*
X30157942Y-66590895D01*
X30110323Y-66686133D01*
X30062704Y-66733752D01*
X29967466Y-66781371D01*
X29634133Y-66781371D01*
X30824609Y-66305180D02*
X31015085Y-66305180D01*
X31110323Y-66352800D01*
X31205561Y-66448038D01*
X31253180Y-66638514D01*
X31253180Y-66971847D01*
X31205561Y-67162323D01*
X31110323Y-67257561D01*
X31015085Y-67305180D01*
X30824609Y-67305180D01*
X30729371Y-67257561D01*
X30634133Y-67162323D01*
X30586514Y-66971847D01*
X30586514Y-66638514D01*
X30634133Y-66448038D01*
X30729371Y-66352800D01*
X30824609Y-66305180D01*
X31872228Y-66305180D02*
X32062704Y-66305180D01*
X32157942Y-66352800D01*
X32253180Y-66448038D01*
X32300800Y-66638514D01*
X32300800Y-66971847D01*
X32253180Y-67162323D01*
X32157942Y-67257561D01*
X32062704Y-67305180D01*
X31872228Y-67305180D01*
X31776990Y-67257561D01*
X31681752Y-67162323D01*
X31634133Y-66971847D01*
X31634133Y-66638514D01*
X31681752Y-66448038D01*
X31776990Y-66352800D01*
X31872228Y-66305180D01*
X32586514Y-66305180D02*
X33157942Y-66305180D01*
X32872228Y-67305180D02*
X32872228Y-66305180D01*
X33681752Y-66305180D02*
X33776990Y-66305180D01*
X33872228Y-66352800D01*
X33919847Y-66400419D01*
X33967466Y-66495657D01*
X34015085Y-66686133D01*
X34015085Y-66924228D01*
X33967466Y-67114704D01*
X33919847Y-67209942D01*
X33872228Y-67257561D01*
X33776990Y-67305180D01*
X33681752Y-67305180D01*
X33586514Y-67257561D01*
X33538895Y-67209942D01*
X33491276Y-67114704D01*
X33443657Y-66924228D01*
X33443657Y-66686133D01*
X33491276Y-66495657D01*
X33538895Y-66400419D01*
X33586514Y-66352800D01*
X33681752Y-66305180D01*
X36977866Y-66781371D02*
X37120723Y-66828990D01*
X37168342Y-66876609D01*
X37215961Y-66971847D01*
X37215961Y-67114704D01*
X37168342Y-67209942D01*
X37120723Y-67257561D01*
X37025485Y-67305180D01*
X36644533Y-67305180D01*
X36644533Y-66305180D01*
X36977866Y-66305180D01*
X37073104Y-66352800D01*
X37120723Y-66400419D01*
X37168342Y-66495657D01*
X37168342Y-66590895D01*
X37120723Y-66686133D01*
X37073104Y-66733752D01*
X36977866Y-66781371D01*
X36644533Y-66781371D01*
X37835009Y-66305180D02*
X38025485Y-66305180D01*
X38120723Y-66352800D01*
X38215961Y-66448038D01*
X38263580Y-66638514D01*
X38263580Y-66971847D01*
X38215961Y-67162323D01*
X38120723Y-67257561D01*
X38025485Y-67305180D01*
X37835009Y-67305180D01*
X37739771Y-67257561D01*
X37644533Y-67162323D01*
X37596914Y-66971847D01*
X37596914Y-66638514D01*
X37644533Y-66448038D01*
X37739771Y-66352800D01*
X37835009Y-66305180D01*
X38882628Y-66305180D02*
X39073104Y-66305180D01*
X39168342Y-66352800D01*
X39263580Y-66448038D01*
X39311200Y-66638514D01*
X39311200Y-66971847D01*
X39263580Y-67162323D01*
X39168342Y-67257561D01*
X39073104Y-67305180D01*
X38882628Y-67305180D01*
X38787390Y-67257561D01*
X38692152Y-67162323D01*
X38644533Y-66971847D01*
X38644533Y-66638514D01*
X38692152Y-66448038D01*
X38787390Y-66352800D01*
X38882628Y-66305180D01*
X39596914Y-66305180D02*
X40168342Y-66305180D01*
X39882628Y-67305180D02*
X39882628Y-66305180D01*
X41025485Y-67305180D02*
X40454057Y-67305180D01*
X40739771Y-67305180D02*
X40739771Y-66305180D01*
X40644533Y-66448038D01*
X40549295Y-66543276D01*
X40454057Y-66590895D01*
X46588971Y-67054771D02*
X46696114Y-67090485D01*
X46874685Y-67090485D01*
X46946114Y-67054771D01*
X46981828Y-67019057D01*
X47017542Y-66947628D01*
X47017542Y-66876200D01*
X46981828Y-66804771D01*
X46946114Y-66769057D01*
X46874685Y-66733342D01*
X46731828Y-66697628D01*
X46660400Y-66661914D01*
X46624685Y-66626200D01*
X46588971Y-66554771D01*
X46588971Y-66483342D01*
X46624685Y-66411914D01*
X46660400Y-66376200D01*
X46731828Y-66340485D01*
X46910400Y-66340485D01*
X47017542Y-66376200D01*
X47588971Y-66697628D02*
X47696114Y-66733342D01*
X47731828Y-66769057D01*
X47767542Y-66840485D01*
X47767542Y-66947628D01*
X47731828Y-67019057D01*
X47696114Y-67054771D01*
X47624685Y-67090485D01*
X47338971Y-67090485D01*
X47338971Y-66340485D01*
X47588971Y-66340485D01*
X47660400Y-66376200D01*
X47696114Y-66411914D01*
X47731828Y-66483342D01*
X47731828Y-66554771D01*
X47696114Y-66626200D01*
X47660400Y-66661914D01*
X47588971Y-66697628D01*
X47338971Y-66697628D01*
X48088971Y-66340485D02*
X48088971Y-66947628D01*
X48124685Y-67019057D01*
X48160400Y-67054771D01*
X48231828Y-67090485D01*
X48374685Y-67090485D01*
X48446114Y-67054771D01*
X48481828Y-67019057D01*
X48517542Y-66947628D01*
X48517542Y-66340485D01*
X48838971Y-67054771D02*
X48946114Y-67090485D01*
X49124685Y-67090485D01*
X49196114Y-67054771D01*
X49231828Y-67019057D01*
X49267542Y-66947628D01*
X49267542Y-66876200D01*
X49231828Y-66804771D01*
X49196114Y-66769057D01*
X49124685Y-66733342D01*
X48981828Y-66697628D01*
X48910400Y-66661914D01*
X48874685Y-66626200D01*
X48838971Y-66554771D01*
X48838971Y-66483342D01*
X48874685Y-66411914D01*
X48910400Y-66376200D01*
X48981828Y-66340485D01*
X49160400Y-66340485D01*
X49267542Y-66376200D01*
X49981828Y-67090485D02*
X49553257Y-67090485D01*
X49767542Y-67090485D02*
X49767542Y-66340485D01*
X49696114Y-66447628D01*
X49624685Y-66519057D01*
X49553257Y-66554771D01*
X56917542Y-66376200D02*
X56846114Y-66340485D01*
X56738971Y-66340485D01*
X56631828Y-66376200D01*
X56560400Y-66447628D01*
X56524685Y-66519057D01*
X56488971Y-66661914D01*
X56488971Y-66769057D01*
X56524685Y-66911914D01*
X56560400Y-66983342D01*
X56631828Y-67054771D01*
X56738971Y-67090485D01*
X56810400Y-67090485D01*
X56917542Y-67054771D01*
X56953257Y-67019057D01*
X56953257Y-66769057D01*
X56810400Y-66769057D01*
X57274685Y-67090485D02*
X57274685Y-66340485D01*
X57560400Y-66340485D01*
X57631828Y-66376200D01*
X57667542Y-66411914D01*
X57703257Y-66483342D01*
X57703257Y-66590485D01*
X57667542Y-66661914D01*
X57631828Y-66697628D01*
X57560400Y-66733342D01*
X57274685Y-66733342D01*
X57988971Y-67054771D02*
X58096114Y-67090485D01*
X58274685Y-67090485D01*
X58346114Y-67054771D01*
X58381828Y-67019057D01*
X58417542Y-66947628D01*
X58417542Y-66876200D01*
X58381828Y-66804771D01*
X58346114Y-66769057D01*
X58274685Y-66733342D01*
X58131828Y-66697628D01*
X58060400Y-66661914D01*
X58024685Y-66626200D01*
X57988971Y-66554771D01*
X57988971Y-66483342D01*
X58024685Y-66411914D01*
X58060400Y-66376200D01*
X58131828Y-66340485D01*
X58310400Y-66340485D01*
X58417542Y-66376200D01*
X59131828Y-67090485D02*
X58703257Y-67090485D01*
X58917542Y-67090485D02*
X58917542Y-66340485D01*
X58846114Y-66447628D01*
X58774685Y-66519057D01*
X58703257Y-66554771D01*
X65509514Y-57057485D02*
X65509514Y-56307485D01*
X65830942Y-56378914D02*
X65866657Y-56343200D01*
X65938085Y-56307485D01*
X66116657Y-56307485D01*
X66188085Y-56343200D01*
X66223800Y-56378914D01*
X66259514Y-56450342D01*
X66259514Y-56521771D01*
X66223800Y-56628914D01*
X65795228Y-57057485D01*
X66259514Y-57057485D01*
X67009514Y-56986057D02*
X66973800Y-57021771D01*
X66866657Y-57057485D01*
X66795228Y-57057485D01*
X66688085Y-57021771D01*
X66616657Y-56950342D01*
X66580942Y-56878914D01*
X66545228Y-56736057D01*
X66545228Y-56628914D01*
X66580942Y-56486057D01*
X66616657Y-56414628D01*
X66688085Y-56343200D01*
X66795228Y-56307485D01*
X66866657Y-56307485D01*
X66973800Y-56343200D01*
X67009514Y-56378914D01*
X67259514Y-56307485D02*
X67723800Y-56307485D01*
X67473800Y-56593200D01*
X67580942Y-56593200D01*
X67652371Y-56628914D01*
X67688085Y-56664628D01*
X67723800Y-56736057D01*
X67723800Y-56914628D01*
X67688085Y-56986057D01*
X67652371Y-57021771D01*
X67580942Y-57057485D01*
X67366657Y-57057485D01*
X67295228Y-57021771D01*
X67259514Y-56986057D01*
X57557771Y-52688685D02*
X57307771Y-52331542D01*
X57129200Y-52688685D02*
X57129200Y-51938685D01*
X57414914Y-51938685D01*
X57486342Y-51974400D01*
X57522057Y-52010114D01*
X57557771Y-52081542D01*
X57557771Y-52188685D01*
X57522057Y-52260114D01*
X57486342Y-52295828D01*
X57414914Y-52331542D01*
X57129200Y-52331542D01*
X57879200Y-52295828D02*
X58129200Y-52295828D01*
X58236342Y-52688685D02*
X57879200Y-52688685D01*
X57879200Y-51938685D01*
X58236342Y-51938685D01*
X58522057Y-52652971D02*
X58629200Y-52688685D01*
X58807771Y-52688685D01*
X58879200Y-52652971D01*
X58914914Y-52617257D01*
X58950628Y-52545828D01*
X58950628Y-52474400D01*
X58914914Y-52402971D01*
X58879200Y-52367257D01*
X58807771Y-52331542D01*
X58664914Y-52295828D01*
X58593485Y-52260114D01*
X58557771Y-52224400D01*
X58522057Y-52152971D01*
X58522057Y-52081542D01*
X58557771Y-52010114D01*
X58593485Y-51974400D01*
X58664914Y-51938685D01*
X58843485Y-51938685D01*
X58950628Y-51974400D01*
X59272057Y-52295828D02*
X59522057Y-52295828D01*
X59629200Y-52688685D02*
X59272057Y-52688685D01*
X59272057Y-51938685D01*
X59629200Y-51938685D01*
X59843485Y-51938685D02*
X60272057Y-51938685D01*
X60057771Y-52688685D02*
X60057771Y-51938685D01*
X60914914Y-52688685D02*
X60486342Y-52688685D01*
X60700628Y-52688685D02*
X60700628Y-51938685D01*
X60629200Y-52045828D01*
X60557771Y-52117257D01*
X60486342Y-52152971D01*
D11*
X34994161Y-50213390D02*
X34994161Y-49713390D01*
X34994161Y-49951485D02*
X35279876Y-49951485D01*
X35279876Y-50213390D02*
X35279876Y-49713390D01*
X35494161Y-50189580D02*
X35565590Y-50213390D01*
X35684638Y-50213390D01*
X35732257Y-50189580D01*
X35756066Y-50165771D01*
X35779876Y-50118152D01*
X35779876Y-50070533D01*
X35756066Y-50022914D01*
X35732257Y-49999104D01*
X35684638Y-49975295D01*
X35589400Y-49951485D01*
X35541780Y-49927676D01*
X35517971Y-49903866D01*
X35494161Y-49856247D01*
X35494161Y-49808628D01*
X35517971Y-49761009D01*
X35541780Y-49737200D01*
X35589400Y-49713390D01*
X35708447Y-49713390D01*
X35779876Y-49737200D01*
X35994161Y-49951485D02*
X36160828Y-49951485D01*
X36232257Y-50213390D02*
X35994161Y-50213390D01*
X35994161Y-49713390D01*
X36232257Y-49713390D01*
X36708447Y-50213390D02*
X36422733Y-50213390D01*
X36565590Y-50213390D02*
X36565590Y-49713390D01*
X36517971Y-49784819D01*
X36470352Y-49832438D01*
X36422733Y-49856247D01*
X36874533Y-44261885D02*
X36945961Y-44285695D01*
X36969771Y-44309504D01*
X36993580Y-44357123D01*
X36993580Y-44428552D01*
X36969771Y-44476171D01*
X36945961Y-44499980D01*
X36898342Y-44523790D01*
X36707866Y-44523790D01*
X36707866Y-44023790D01*
X36874533Y-44023790D01*
X36922152Y-44047600D01*
X36945961Y-44071409D01*
X36969771Y-44119028D01*
X36969771Y-44166647D01*
X36945961Y-44214266D01*
X36922152Y-44238076D01*
X36874533Y-44261885D01*
X36707866Y-44261885D01*
X37184057Y-44380933D02*
X37422152Y-44380933D01*
X37136438Y-44523790D02*
X37303104Y-44023790D01*
X37469771Y-44523790D01*
X37922152Y-44523790D02*
X37755485Y-44285695D01*
X37636438Y-44523790D02*
X37636438Y-44023790D01*
X37826914Y-44023790D01*
X37874533Y-44047600D01*
X37898342Y-44071409D01*
X37922152Y-44119028D01*
X37922152Y-44190457D01*
X37898342Y-44238076D01*
X37874533Y-44261885D01*
X37826914Y-44285695D01*
X37636438Y-44285695D01*
X38398342Y-44523790D02*
X38112628Y-44523790D01*
X38255485Y-44523790D02*
X38255485Y-44023790D01*
X38207866Y-44095219D01*
X38160247Y-44142838D01*
X38112628Y-44166647D01*
D10*
X23671161Y-59664266D02*
X23718780Y-59521409D01*
X23718780Y-59283314D01*
X23671161Y-59188076D01*
X23623542Y-59140457D01*
X23528304Y-59092838D01*
X23433066Y-59092838D01*
X23337828Y-59140457D01*
X23290209Y-59188076D01*
X23242590Y-59283314D01*
X23194971Y-59473790D01*
X23147352Y-59569028D01*
X23099733Y-59616647D01*
X23004495Y-59664266D01*
X22909257Y-59664266D01*
X22814019Y-59616647D01*
X22766400Y-59569028D01*
X22718780Y-59473790D01*
X22718780Y-59235695D01*
X22766400Y-59092838D01*
X23194971Y-58664266D02*
X23194971Y-58330933D01*
X23718780Y-58188076D02*
X23718780Y-58664266D01*
X22718780Y-58664266D01*
X22718780Y-58188076D01*
X23718780Y-57188076D02*
X23242590Y-57521409D01*
X23718780Y-57759504D02*
X22718780Y-57759504D01*
X22718780Y-57378552D01*
X22766400Y-57283314D01*
X22814019Y-57235695D01*
X22909257Y-57188076D01*
X23052114Y-57188076D01*
X23147352Y-57235695D01*
X23194971Y-57283314D01*
X23242590Y-57378552D01*
X23242590Y-57759504D01*
X22718780Y-56902361D02*
X23718780Y-56569028D01*
X22718780Y-56235695D01*
X22718780Y-55711885D02*
X22718780Y-55521409D01*
X22766400Y-55426171D01*
X22861638Y-55330933D01*
X23052114Y-55283314D01*
X23385447Y-55283314D01*
X23575923Y-55330933D01*
X23671161Y-55426171D01*
X23718780Y-55521409D01*
X23718780Y-55711885D01*
X23671161Y-55807123D01*
X23575923Y-55902361D01*
X23385447Y-55949980D01*
X23052114Y-55949980D01*
X22861638Y-55902361D01*
X22766400Y-55807123D01*
X22718780Y-55711885D01*
X23718780Y-54330933D02*
X23718780Y-54902361D01*
X23718780Y-54616647D02*
X22718780Y-54616647D01*
X22861638Y-54711885D01*
X22956876Y-54807123D01*
X23004495Y-54902361D01*
X25471380Y-41984133D02*
X24471380Y-41984133D01*
X24471380Y-41603180D01*
X24519000Y-41507942D01*
X24566619Y-41460323D01*
X24661857Y-41412704D01*
X24804714Y-41412704D01*
X24899952Y-41460323D01*
X24947571Y-41507942D01*
X24995190Y-41603180D01*
X24995190Y-41984133D01*
X24471380Y-41079371D02*
X25471380Y-40841276D01*
X24757095Y-40650800D01*
X25471380Y-40460323D01*
X24471380Y-40222228D01*
X25471380Y-39841276D02*
X24471380Y-39841276D01*
X25185666Y-39507942D01*
X24471380Y-39174609D01*
X25471380Y-39174609D01*
X25566619Y-38936514D02*
X25566619Y-38174609D01*
X25471380Y-37936514D02*
X24471380Y-37936514D01*
X24471380Y-37555561D01*
X24519000Y-37460323D01*
X24566619Y-37412704D01*
X24661857Y-37365085D01*
X24804714Y-37365085D01*
X24899952Y-37412704D01*
X24947571Y-37460323D01*
X24995190Y-37555561D01*
X24995190Y-37936514D01*
X24471380Y-37031752D02*
X25471380Y-36793657D01*
X24757095Y-36603180D01*
X25471380Y-36412704D01*
X24471380Y-36174609D01*
X25471380Y-35222228D02*
X24995190Y-35555561D01*
X25471380Y-35793657D02*
X24471380Y-35793657D01*
X24471380Y-35412704D01*
X24519000Y-35317466D01*
X24566619Y-35269847D01*
X24661857Y-35222228D01*
X24804714Y-35222228D01*
X24899952Y-35269847D01*
X24947571Y-35317466D01*
X24995190Y-35412704D01*
X24995190Y-35793657D01*
X25471380Y-34269847D02*
X25471380Y-34841276D01*
X25471380Y-34555561D02*
X24471380Y-34555561D01*
X24614238Y-34650800D01*
X24709476Y-34746038D01*
X24757095Y-34841276D01*
D11*
X30977733Y-53396390D02*
X30977733Y-53753533D01*
X30953923Y-53824961D01*
X30906304Y-53872580D01*
X30834876Y-53896390D01*
X30787257Y-53896390D01*
X31215828Y-53896390D02*
X31215828Y-53396390D01*
X31406304Y-53396390D01*
X31453923Y-53420200D01*
X31477733Y-53444009D01*
X31501542Y-53491628D01*
X31501542Y-53563057D01*
X31477733Y-53610676D01*
X31453923Y-53634485D01*
X31406304Y-53658295D01*
X31215828Y-53658295D01*
X31977733Y-53896390D02*
X31692019Y-53896390D01*
X31834876Y-53896390D02*
X31834876Y-53396390D01*
X31787257Y-53467819D01*
X31739638Y-53515438D01*
X31692019Y-53539247D01*
X31025352Y-49756190D02*
X31025352Y-49256190D01*
X31144400Y-49256190D01*
X31215828Y-49280000D01*
X31263447Y-49327619D01*
X31287257Y-49375238D01*
X31311066Y-49470476D01*
X31311066Y-49541904D01*
X31287257Y-49637142D01*
X31263447Y-49684761D01*
X31215828Y-49732380D01*
X31144400Y-49756190D01*
X31025352Y-49756190D01*
X31739638Y-49256190D02*
X31644400Y-49256190D01*
X31596780Y-49280000D01*
X31572971Y-49303809D01*
X31525352Y-49375238D01*
X31501542Y-49470476D01*
X31501542Y-49660952D01*
X31525352Y-49708571D01*
X31549161Y-49732380D01*
X31596780Y-49756190D01*
X31692019Y-49756190D01*
X31739638Y-49732380D01*
X31763447Y-49708571D01*
X31787257Y-49660952D01*
X31787257Y-49541904D01*
X31763447Y-49494285D01*
X31739638Y-49470476D01*
X31692019Y-49446666D01*
X31596780Y-49446666D01*
X31549161Y-49470476D01*
X31525352Y-49494285D01*
X31501542Y-49541904D01*
X35517971Y-47854371D02*
X35494161Y-47878180D01*
X35422733Y-47901990D01*
X35375114Y-47901990D01*
X35303685Y-47878180D01*
X35256066Y-47830561D01*
X35232257Y-47782942D01*
X35208447Y-47687704D01*
X35208447Y-47616276D01*
X35232257Y-47521038D01*
X35256066Y-47473419D01*
X35303685Y-47425800D01*
X35375114Y-47401990D01*
X35422733Y-47401990D01*
X35494161Y-47425800D01*
X35517971Y-47449609D01*
X35994161Y-47901990D02*
X35708447Y-47901990D01*
X35851304Y-47901990D02*
X35851304Y-47401990D01*
X35803685Y-47473419D01*
X35756066Y-47521038D01*
X35708447Y-47544847D01*
X36160828Y-47401990D02*
X36494161Y-47401990D01*
X36279876Y-47901990D01*
X35517971Y-52375571D02*
X35494161Y-52399380D01*
X35422733Y-52423190D01*
X35375114Y-52423190D01*
X35303685Y-52399380D01*
X35256066Y-52351761D01*
X35232257Y-52304142D01*
X35208447Y-52208904D01*
X35208447Y-52137476D01*
X35232257Y-52042238D01*
X35256066Y-51994619D01*
X35303685Y-51947000D01*
X35375114Y-51923190D01*
X35422733Y-51923190D01*
X35494161Y-51947000D01*
X35517971Y-51970809D01*
X35994161Y-52423190D02*
X35708447Y-52423190D01*
X35851304Y-52423190D02*
X35851304Y-51923190D01*
X35803685Y-51994619D01*
X35756066Y-52042238D01*
X35708447Y-52066047D01*
X36279876Y-52137476D02*
X36232257Y-52113666D01*
X36208447Y-52089857D01*
X36184638Y-52042238D01*
X36184638Y-52018428D01*
X36208447Y-51970809D01*
X36232257Y-51947000D01*
X36279876Y-51923190D01*
X36375114Y-51923190D01*
X36422733Y-51947000D01*
X36446542Y-51970809D01*
X36470352Y-52018428D01*
X36470352Y-52042238D01*
X36446542Y-52089857D01*
X36422733Y-52113666D01*
X36375114Y-52137476D01*
X36279876Y-52137476D01*
X36232257Y-52161285D01*
X36208447Y-52185095D01*
X36184638Y-52232714D01*
X36184638Y-52327952D01*
X36208447Y-52375571D01*
X36232257Y-52399380D01*
X36279876Y-52423190D01*
X36375114Y-52423190D01*
X36422733Y-52399380D01*
X36446542Y-52375571D01*
X36470352Y-52327952D01*
X36470352Y-52232714D01*
X36446542Y-52185095D01*
X36422733Y-52161285D01*
X36375114Y-52137476D01*
X38727866Y-51991390D02*
X38561200Y-51753295D01*
X38442152Y-51991390D02*
X38442152Y-51491390D01*
X38632628Y-51491390D01*
X38680247Y-51515200D01*
X38704057Y-51539009D01*
X38727866Y-51586628D01*
X38727866Y-51658057D01*
X38704057Y-51705676D01*
X38680247Y-51729485D01*
X38632628Y-51753295D01*
X38442152Y-51753295D01*
X39013580Y-51705676D02*
X38965961Y-51681866D01*
X38942152Y-51658057D01*
X38918342Y-51610438D01*
X38918342Y-51586628D01*
X38942152Y-51539009D01*
X38965961Y-51515200D01*
X39013580Y-51491390D01*
X39108819Y-51491390D01*
X39156438Y-51515200D01*
X39180247Y-51539009D01*
X39204057Y-51586628D01*
X39204057Y-51610438D01*
X39180247Y-51658057D01*
X39156438Y-51681866D01*
X39108819Y-51705676D01*
X39013580Y-51705676D01*
X38965961Y-51729485D01*
X38942152Y-51753295D01*
X38918342Y-51800914D01*
X38918342Y-51896152D01*
X38942152Y-51943771D01*
X38965961Y-51967580D01*
X39013580Y-51991390D01*
X39108819Y-51991390D01*
X39156438Y-51967580D01*
X39180247Y-51943771D01*
X39204057Y-51896152D01*
X39204057Y-51800914D01*
X39180247Y-51753295D01*
X39156438Y-51729485D01*
X39108819Y-51705676D01*
X35676733Y-55107685D02*
X35510066Y-55107685D01*
X35510066Y-55369590D02*
X35510066Y-54869590D01*
X35748161Y-54869590D01*
X36105304Y-55107685D02*
X36176733Y-55131495D01*
X36200542Y-55155304D01*
X36224352Y-55202923D01*
X36224352Y-55274352D01*
X36200542Y-55321971D01*
X36176733Y-55345780D01*
X36129114Y-55369590D01*
X35938638Y-55369590D01*
X35938638Y-54869590D01*
X36105304Y-54869590D01*
X36152923Y-54893400D01*
X36176733Y-54917209D01*
X36200542Y-54964828D01*
X36200542Y-55012447D01*
X36176733Y-55060066D01*
X36152923Y-55083876D01*
X36105304Y-55107685D01*
X35938638Y-55107685D01*
X36700542Y-55369590D02*
X36414828Y-55369590D01*
X36557685Y-55369590D02*
X36557685Y-54869590D01*
X36510066Y-54941019D01*
X36462447Y-54988638D01*
X36414828Y-55012447D01*
X38071457Y-54803657D02*
X38052409Y-54822704D01*
X37995266Y-54841752D01*
X37957171Y-54841752D01*
X37900028Y-54822704D01*
X37861933Y-54784609D01*
X37842885Y-54746514D01*
X37823838Y-54670323D01*
X37823838Y-54613180D01*
X37842885Y-54536990D01*
X37861933Y-54498895D01*
X37900028Y-54460800D01*
X37957171Y-54441752D01*
X37995266Y-54441752D01*
X38052409Y-54460800D01*
X38071457Y-54479847D01*
X38452409Y-54841752D02*
X38223838Y-54841752D01*
X38338123Y-54841752D02*
X38338123Y-54441752D01*
X38300028Y-54498895D01*
X38261933Y-54536990D01*
X38223838Y-54556038D01*
X38814314Y-54441752D02*
X38623838Y-54441752D01*
X38604790Y-54632228D01*
X38623838Y-54613180D01*
X38661933Y-54594133D01*
X38757171Y-54594133D01*
X38795266Y-54613180D01*
X38814314Y-54632228D01*
X38833361Y-54670323D01*
X38833361Y-54765561D01*
X38814314Y-54803657D01*
X38795266Y-54822704D01*
X38757171Y-54841752D01*
X38661933Y-54841752D01*
X38623838Y-54822704D01*
X38604790Y-54803657D01*
X39417657Y-54803657D02*
X39398609Y-54822704D01*
X39341466Y-54841752D01*
X39303371Y-54841752D01*
X39246228Y-54822704D01*
X39208133Y-54784609D01*
X39189085Y-54746514D01*
X39170038Y-54670323D01*
X39170038Y-54613180D01*
X39189085Y-54536990D01*
X39208133Y-54498895D01*
X39246228Y-54460800D01*
X39303371Y-54441752D01*
X39341466Y-54441752D01*
X39398609Y-54460800D01*
X39417657Y-54479847D01*
X39798609Y-54841752D02*
X39570038Y-54841752D01*
X39684323Y-54841752D02*
X39684323Y-54441752D01*
X39646228Y-54498895D01*
X39608133Y-54536990D01*
X39570038Y-54556038D01*
X40141466Y-54441752D02*
X40065276Y-54441752D01*
X40027180Y-54460800D01*
X40008133Y-54479847D01*
X39970038Y-54536990D01*
X39950990Y-54613180D01*
X39950990Y-54765561D01*
X39970038Y-54803657D01*
X39989085Y-54822704D01*
X40027180Y-54841752D01*
X40103371Y-54841752D01*
X40141466Y-54822704D01*
X40160514Y-54803657D01*
X40179561Y-54765561D01*
X40179561Y-54670323D01*
X40160514Y-54632228D01*
X40141466Y-54613180D01*
X40103371Y-54594133D01*
X40027180Y-54594133D01*
X39989085Y-54613180D01*
X39970038Y-54632228D01*
X39950990Y-54670323D01*
X39976457Y-57013457D02*
X39957409Y-57032504D01*
X39900266Y-57051552D01*
X39862171Y-57051552D01*
X39805028Y-57032504D01*
X39766933Y-56994409D01*
X39747885Y-56956314D01*
X39728838Y-56880123D01*
X39728838Y-56822980D01*
X39747885Y-56746790D01*
X39766933Y-56708695D01*
X39805028Y-56670600D01*
X39862171Y-56651552D01*
X39900266Y-56651552D01*
X39957409Y-56670600D01*
X39976457Y-56689647D01*
X40109790Y-56651552D02*
X40357409Y-56651552D01*
X40224076Y-56803933D01*
X40281219Y-56803933D01*
X40319314Y-56822980D01*
X40338361Y-56842028D01*
X40357409Y-56880123D01*
X40357409Y-56975361D01*
X40338361Y-57013457D01*
X40319314Y-57032504D01*
X40281219Y-57051552D01*
X40166933Y-57051552D01*
X40128838Y-57032504D01*
X40109790Y-57013457D01*
X40605028Y-56651552D02*
X40643123Y-56651552D01*
X40681219Y-56670600D01*
X40700266Y-56689647D01*
X40719314Y-56727742D01*
X40738361Y-56803933D01*
X40738361Y-56899171D01*
X40719314Y-56975361D01*
X40700266Y-57013457D01*
X40681219Y-57032504D01*
X40643123Y-57051552D01*
X40605028Y-57051552D01*
X40566933Y-57032504D01*
X40547885Y-57013457D01*
X40528838Y-56975361D01*
X40509790Y-56899171D01*
X40509790Y-56803933D01*
X40528838Y-56727742D01*
X40547885Y-56689647D01*
X40566933Y-56670600D01*
X40605028Y-56651552D01*
X40001857Y-59718552D02*
X39868523Y-59528076D01*
X39773285Y-59718552D02*
X39773285Y-59318552D01*
X39925666Y-59318552D01*
X39963761Y-59337600D01*
X39982809Y-59356647D01*
X40001857Y-59394742D01*
X40001857Y-59451885D01*
X39982809Y-59489980D01*
X39963761Y-59509028D01*
X39925666Y-59528076D01*
X39773285Y-59528076D01*
X40382809Y-59718552D02*
X40154238Y-59718552D01*
X40268523Y-59718552D02*
X40268523Y-59318552D01*
X40230428Y-59375695D01*
X40192333Y-59413790D01*
X40154238Y-59432838D01*
X40573285Y-59718552D02*
X40649476Y-59718552D01*
X40687571Y-59699504D01*
X40706619Y-59680457D01*
X40744714Y-59623314D01*
X40763761Y-59547123D01*
X40763761Y-59394742D01*
X40744714Y-59356647D01*
X40725666Y-59337600D01*
X40687571Y-59318552D01*
X40611380Y-59318552D01*
X40573285Y-59337600D01*
X40554238Y-59356647D01*
X40535190Y-59394742D01*
X40535190Y-59489980D01*
X40554238Y-59528076D01*
X40573285Y-59547123D01*
X40611380Y-59566171D01*
X40687571Y-59566171D01*
X40725666Y-59547123D01*
X40744714Y-59528076D01*
X40763761Y-59489980D01*
X27936857Y-61242552D02*
X27803523Y-61052076D01*
X27708285Y-61242552D02*
X27708285Y-60842552D01*
X27860666Y-60842552D01*
X27898761Y-60861600D01*
X27917809Y-60880647D01*
X27936857Y-60918742D01*
X27936857Y-60975885D01*
X27917809Y-61013980D01*
X27898761Y-61033028D01*
X27860666Y-61052076D01*
X27708285Y-61052076D01*
X28089238Y-60880647D02*
X28108285Y-60861600D01*
X28146380Y-60842552D01*
X28241619Y-60842552D01*
X28279714Y-60861600D01*
X28298761Y-60880647D01*
X28317809Y-60918742D01*
X28317809Y-60956838D01*
X28298761Y-61013980D01*
X28070190Y-61242552D01*
X28317809Y-61242552D01*
X28565428Y-60842552D02*
X28603523Y-60842552D01*
X28641619Y-60861600D01*
X28660666Y-60880647D01*
X28679714Y-60918742D01*
X28698761Y-60994933D01*
X28698761Y-61090171D01*
X28679714Y-61166361D01*
X28660666Y-61204457D01*
X28641619Y-61223504D01*
X28603523Y-61242552D01*
X28565428Y-61242552D01*
X28527333Y-61223504D01*
X28508285Y-61204457D01*
X28489238Y-61166361D01*
X28470190Y-61090171D01*
X28470190Y-60994933D01*
X28489238Y-60918742D01*
X28508285Y-60880647D01*
X28527333Y-60861600D01*
X28565428Y-60842552D01*
X29359257Y-64493752D02*
X29225923Y-64303276D01*
X29130685Y-64493752D02*
X29130685Y-64093752D01*
X29283066Y-64093752D01*
X29321161Y-64112800D01*
X29340209Y-64131847D01*
X29359257Y-64169942D01*
X29359257Y-64227085D01*
X29340209Y-64265180D01*
X29321161Y-64284228D01*
X29283066Y-64303276D01*
X29130685Y-64303276D01*
X29740209Y-64493752D02*
X29511638Y-64493752D01*
X29625923Y-64493752D02*
X29625923Y-64093752D01*
X29587828Y-64150895D01*
X29549733Y-64188990D01*
X29511638Y-64208038D01*
X29873542Y-64093752D02*
X30140209Y-64093752D01*
X29968780Y-64493752D01*
X36344257Y-64493752D02*
X36210923Y-64303276D01*
X36115685Y-64493752D02*
X36115685Y-64093752D01*
X36268066Y-64093752D01*
X36306161Y-64112800D01*
X36325209Y-64131847D01*
X36344257Y-64169942D01*
X36344257Y-64227085D01*
X36325209Y-64265180D01*
X36306161Y-64284228D01*
X36268066Y-64303276D01*
X36115685Y-64303276D01*
X36725209Y-64493752D02*
X36496638Y-64493752D01*
X36610923Y-64493752D02*
X36610923Y-64093752D01*
X36572828Y-64150895D01*
X36534733Y-64188990D01*
X36496638Y-64208038D01*
X36953780Y-64265180D02*
X36915685Y-64246133D01*
X36896638Y-64227085D01*
X36877590Y-64188990D01*
X36877590Y-64169942D01*
X36896638Y-64131847D01*
X36915685Y-64112800D01*
X36953780Y-64093752D01*
X37029971Y-64093752D01*
X37068066Y-64112800D01*
X37087114Y-64131847D01*
X37106161Y-64169942D01*
X37106161Y-64188990D01*
X37087114Y-64227085D01*
X37068066Y-64246133D01*
X37029971Y-64265180D01*
X36953780Y-64265180D01*
X36915685Y-64284228D01*
X36896638Y-64303276D01*
X36877590Y-64341371D01*
X36877590Y-64417561D01*
X36896638Y-64455657D01*
X36915685Y-64474704D01*
X36953780Y-64493752D01*
X37029971Y-64493752D01*
X37068066Y-64474704D01*
X37087114Y-64455657D01*
X37106161Y-64417561D01*
X37106161Y-64341371D01*
X37087114Y-64303276D01*
X37068066Y-64284228D01*
X37029971Y-64265180D01*
X42865723Y-65687552D02*
X42865723Y-65287552D01*
X43284771Y-65649457D02*
X43265723Y-65668504D01*
X43208580Y-65687552D01*
X43170485Y-65687552D01*
X43113342Y-65668504D01*
X43075247Y-65630409D01*
X43056200Y-65592314D01*
X43037152Y-65516123D01*
X43037152Y-65458980D01*
X43056200Y-65382790D01*
X43075247Y-65344695D01*
X43113342Y-65306600D01*
X43170485Y-65287552D01*
X43208580Y-65287552D01*
X43265723Y-65306600D01*
X43284771Y-65325647D01*
X43665723Y-65687552D02*
X43437152Y-65687552D01*
X43551438Y-65687552D02*
X43551438Y-65287552D01*
X43513342Y-65344695D01*
X43475247Y-65382790D01*
X43437152Y-65401838D01*
X42973657Y-68951457D02*
X42954609Y-68970504D01*
X42897466Y-68989552D01*
X42859371Y-68989552D01*
X42802228Y-68970504D01*
X42764133Y-68932409D01*
X42745085Y-68894314D01*
X42726038Y-68818123D01*
X42726038Y-68760980D01*
X42745085Y-68684790D01*
X42764133Y-68646695D01*
X42802228Y-68608600D01*
X42859371Y-68589552D01*
X42897466Y-68589552D01*
X42954609Y-68608600D01*
X42973657Y-68627647D01*
X43106990Y-68589552D02*
X43354609Y-68589552D01*
X43221276Y-68741933D01*
X43278419Y-68741933D01*
X43316514Y-68760980D01*
X43335561Y-68780028D01*
X43354609Y-68818123D01*
X43354609Y-68913361D01*
X43335561Y-68951457D01*
X43316514Y-68970504D01*
X43278419Y-68989552D01*
X43164133Y-68989552D01*
X43126038Y-68970504D01*
X43106990Y-68951457D01*
X43735561Y-68989552D02*
X43506990Y-68989552D01*
X43621276Y-68989552D02*
X43621276Y-68589552D01*
X43583180Y-68646695D01*
X43545085Y-68684790D01*
X43506990Y-68703838D01*
X54314761Y-56949952D02*
X54314761Y-56549952D01*
X54410000Y-56549952D01*
X54467142Y-56569000D01*
X54505238Y-56607095D01*
X54524285Y-56645190D01*
X54543333Y-56721380D01*
X54543333Y-56778523D01*
X54524285Y-56854714D01*
X54505238Y-56892809D01*
X54467142Y-56930904D01*
X54410000Y-56949952D01*
X54314761Y-56949952D01*
X54924285Y-56949952D02*
X54695714Y-56949952D01*
X54810000Y-56949952D02*
X54810000Y-56549952D01*
X54771904Y-56607095D01*
X54733809Y-56645190D01*
X54695714Y-56664238D01*
X56092761Y-56975352D02*
X56092761Y-56575352D01*
X56188000Y-56575352D01*
X56245142Y-56594400D01*
X56283238Y-56632495D01*
X56302285Y-56670590D01*
X56321333Y-56746780D01*
X56321333Y-56803923D01*
X56302285Y-56880114D01*
X56283238Y-56918209D01*
X56245142Y-56956304D01*
X56188000Y-56975352D01*
X56092761Y-56975352D01*
X56473714Y-56613447D02*
X56492761Y-56594400D01*
X56530857Y-56575352D01*
X56626095Y-56575352D01*
X56664190Y-56594400D01*
X56683238Y-56613447D01*
X56702285Y-56651542D01*
X56702285Y-56689638D01*
X56683238Y-56746780D01*
X56454666Y-56975352D01*
X56702285Y-56975352D01*
X57870761Y-57000752D02*
X57870761Y-56600752D01*
X57966000Y-56600752D01*
X58023142Y-56619800D01*
X58061238Y-56657895D01*
X58080285Y-56695990D01*
X58099333Y-56772180D01*
X58099333Y-56829323D01*
X58080285Y-56905514D01*
X58061238Y-56943609D01*
X58023142Y-56981704D01*
X57966000Y-57000752D01*
X57870761Y-57000752D01*
X58232666Y-56600752D02*
X58480285Y-56600752D01*
X58346952Y-56753133D01*
X58404095Y-56753133D01*
X58442190Y-56772180D01*
X58461238Y-56791228D01*
X58480285Y-56829323D01*
X58480285Y-56924561D01*
X58461238Y-56962657D01*
X58442190Y-56981704D01*
X58404095Y-57000752D01*
X58289809Y-57000752D01*
X58251714Y-56981704D01*
X58232666Y-56962657D01*
X59648761Y-57000752D02*
X59648761Y-56600752D01*
X59744000Y-56600752D01*
X59801142Y-56619800D01*
X59839238Y-56657895D01*
X59858285Y-56695990D01*
X59877333Y-56772180D01*
X59877333Y-56829323D01*
X59858285Y-56905514D01*
X59839238Y-56943609D01*
X59801142Y-56981704D01*
X59744000Y-57000752D01*
X59648761Y-57000752D01*
X60220190Y-56734085D02*
X60220190Y-57000752D01*
X60124952Y-56581704D02*
X60029714Y-56867419D01*
X60277333Y-56867419D01*
X54543333Y-60074152D02*
X54410000Y-59883676D01*
X54314761Y-60074152D02*
X54314761Y-59674152D01*
X54467142Y-59674152D01*
X54505238Y-59693200D01*
X54524285Y-59712247D01*
X54543333Y-59750342D01*
X54543333Y-59807485D01*
X54524285Y-59845580D01*
X54505238Y-59864628D01*
X54467142Y-59883676D01*
X54314761Y-59883676D01*
X54733809Y-60074152D02*
X54810000Y-60074152D01*
X54848095Y-60055104D01*
X54867142Y-60036057D01*
X54905238Y-59978914D01*
X54924285Y-59902723D01*
X54924285Y-59750342D01*
X54905238Y-59712247D01*
X54886190Y-59693200D01*
X54848095Y-59674152D01*
X54771904Y-59674152D01*
X54733809Y-59693200D01*
X54714761Y-59712247D01*
X54695714Y-59750342D01*
X54695714Y-59845580D01*
X54714761Y-59883676D01*
X54733809Y-59902723D01*
X54771904Y-59921771D01*
X54848095Y-59921771D01*
X54886190Y-59902723D01*
X54905238Y-59883676D01*
X54924285Y-59845580D01*
X56130857Y-60074152D02*
X55997523Y-59883676D01*
X55902285Y-60074152D02*
X55902285Y-59674152D01*
X56054666Y-59674152D01*
X56092761Y-59693200D01*
X56111809Y-59712247D01*
X56130857Y-59750342D01*
X56130857Y-59807485D01*
X56111809Y-59845580D01*
X56092761Y-59864628D01*
X56054666Y-59883676D01*
X55902285Y-59883676D01*
X56511809Y-60074152D02*
X56283238Y-60074152D01*
X56397523Y-60074152D02*
X56397523Y-59674152D01*
X56359428Y-59731295D01*
X56321333Y-59769390D01*
X56283238Y-59788438D01*
X56759428Y-59674152D02*
X56797523Y-59674152D01*
X56835619Y-59693200D01*
X56854666Y-59712247D01*
X56873714Y-59750342D01*
X56892761Y-59826533D01*
X56892761Y-59921771D01*
X56873714Y-59997961D01*
X56854666Y-60036057D01*
X56835619Y-60055104D01*
X56797523Y-60074152D01*
X56759428Y-60074152D01*
X56721333Y-60055104D01*
X56702285Y-60036057D01*
X56683238Y-59997961D01*
X56664190Y-59921771D01*
X56664190Y-59826533D01*
X56683238Y-59750342D01*
X56702285Y-59712247D01*
X56721333Y-59693200D01*
X56759428Y-59674152D01*
X57908857Y-60074152D02*
X57775523Y-59883676D01*
X57680285Y-60074152D02*
X57680285Y-59674152D01*
X57832666Y-59674152D01*
X57870761Y-59693200D01*
X57889809Y-59712247D01*
X57908857Y-59750342D01*
X57908857Y-59807485D01*
X57889809Y-59845580D01*
X57870761Y-59864628D01*
X57832666Y-59883676D01*
X57680285Y-59883676D01*
X58289809Y-60074152D02*
X58061238Y-60074152D01*
X58175523Y-60074152D02*
X58175523Y-59674152D01*
X58137428Y-59731295D01*
X58099333Y-59769390D01*
X58061238Y-59788438D01*
X58670761Y-60074152D02*
X58442190Y-60074152D01*
X58556476Y-60074152D02*
X58556476Y-59674152D01*
X58518380Y-59731295D01*
X58480285Y-59769390D01*
X58442190Y-59788438D01*
X59686857Y-60074152D02*
X59553523Y-59883676D01*
X59458285Y-60074152D02*
X59458285Y-59674152D01*
X59610666Y-59674152D01*
X59648761Y-59693200D01*
X59667809Y-59712247D01*
X59686857Y-59750342D01*
X59686857Y-59807485D01*
X59667809Y-59845580D01*
X59648761Y-59864628D01*
X59610666Y-59883676D01*
X59458285Y-59883676D01*
X60067809Y-60074152D02*
X59839238Y-60074152D01*
X59953523Y-60074152D02*
X59953523Y-59674152D01*
X59915428Y-59731295D01*
X59877333Y-59769390D01*
X59839238Y-59788438D01*
X60220190Y-59712247D02*
X60239238Y-59693200D01*
X60277333Y-59674152D01*
X60372571Y-59674152D01*
X60410666Y-59693200D01*
X60429714Y-59712247D01*
X60448761Y-59750342D01*
X60448761Y-59788438D01*
X60429714Y-59845580D01*
X60201142Y-60074152D01*
X60448761Y-60074152D01*
X48942657Y-59883657D02*
X48923609Y-59902704D01*
X48866466Y-59921752D01*
X48828371Y-59921752D01*
X48771228Y-59902704D01*
X48733133Y-59864609D01*
X48714085Y-59826514D01*
X48695038Y-59750323D01*
X48695038Y-59693180D01*
X48714085Y-59616990D01*
X48733133Y-59578895D01*
X48771228Y-59540800D01*
X48828371Y-59521752D01*
X48866466Y-59521752D01*
X48923609Y-59540800D01*
X48942657Y-59559847D01*
X49323609Y-59921752D02*
X49095038Y-59921752D01*
X49209323Y-59921752D02*
X49209323Y-59521752D01*
X49171228Y-59578895D01*
X49133133Y-59616990D01*
X49095038Y-59636038D01*
X49456942Y-59521752D02*
X49704561Y-59521752D01*
X49571228Y-59674133D01*
X49628371Y-59674133D01*
X49666466Y-59693180D01*
X49685514Y-59712228D01*
X49704561Y-59750323D01*
X49704561Y-59845561D01*
X49685514Y-59883657D01*
X49666466Y-59902704D01*
X49628371Y-59921752D01*
X49514085Y-59921752D01*
X49475990Y-59902704D01*
X49456942Y-59883657D01*
X54048057Y-49495057D02*
X54029009Y-49514104D01*
X53971866Y-49533152D01*
X53933771Y-49533152D01*
X53876628Y-49514104D01*
X53838533Y-49476009D01*
X53819485Y-49437914D01*
X53800438Y-49361723D01*
X53800438Y-49304580D01*
X53819485Y-49228390D01*
X53838533Y-49190295D01*
X53876628Y-49152200D01*
X53933771Y-49133152D01*
X53971866Y-49133152D01*
X54029009Y-49152200D01*
X54048057Y-49171247D01*
X54429009Y-49533152D02*
X54200438Y-49533152D01*
X54314723Y-49533152D02*
X54314723Y-49133152D01*
X54276628Y-49190295D01*
X54238533Y-49228390D01*
X54200438Y-49247438D01*
X54771866Y-49266485D02*
X54771866Y-49533152D01*
X54676628Y-49114104D02*
X54581390Y-49399819D01*
X54829009Y-49399819D01*
X37004657Y-41824257D02*
X36985609Y-41843304D01*
X36928466Y-41862352D01*
X36890371Y-41862352D01*
X36833228Y-41843304D01*
X36795133Y-41805209D01*
X36776085Y-41767114D01*
X36757038Y-41690923D01*
X36757038Y-41633780D01*
X36776085Y-41557590D01*
X36795133Y-41519495D01*
X36833228Y-41481400D01*
X36890371Y-41462352D01*
X36928466Y-41462352D01*
X36985609Y-41481400D01*
X37004657Y-41500447D01*
X37157038Y-41500447D02*
X37176085Y-41481400D01*
X37214180Y-41462352D01*
X37309419Y-41462352D01*
X37347514Y-41481400D01*
X37366561Y-41500447D01*
X37385609Y-41538542D01*
X37385609Y-41576638D01*
X37366561Y-41633780D01*
X37137990Y-41862352D01*
X37385609Y-41862352D01*
X37518942Y-41462352D02*
X37785609Y-41462352D01*
X37614180Y-41862352D01*
X33905857Y-44923057D02*
X33886809Y-44942104D01*
X33829666Y-44961152D01*
X33791571Y-44961152D01*
X33734428Y-44942104D01*
X33696333Y-44904009D01*
X33677285Y-44865914D01*
X33658238Y-44789723D01*
X33658238Y-44732580D01*
X33677285Y-44656390D01*
X33696333Y-44618295D01*
X33734428Y-44580200D01*
X33791571Y-44561152D01*
X33829666Y-44561152D01*
X33886809Y-44580200D01*
X33905857Y-44599247D01*
X34058238Y-44599247D02*
X34077285Y-44580200D01*
X34115380Y-44561152D01*
X34210619Y-44561152D01*
X34248714Y-44580200D01*
X34267761Y-44599247D01*
X34286809Y-44637342D01*
X34286809Y-44675438D01*
X34267761Y-44732580D01*
X34039190Y-44961152D01*
X34286809Y-44961152D01*
X34629666Y-44561152D02*
X34553476Y-44561152D01*
X34515380Y-44580200D01*
X34496333Y-44599247D01*
X34458238Y-44656390D01*
X34439190Y-44732580D01*
X34439190Y-44884961D01*
X34458238Y-44923057D01*
X34477285Y-44942104D01*
X34515380Y-44961152D01*
X34591571Y-44961152D01*
X34629666Y-44942104D01*
X34648714Y-44923057D01*
X34667761Y-44884961D01*
X34667761Y-44789723D01*
X34648714Y-44751628D01*
X34629666Y-44732580D01*
X34591571Y-44713533D01*
X34515380Y-44713533D01*
X34477285Y-44732580D01*
X34458238Y-44751628D01*
X34439190Y-44789723D01*
X41106733Y-43399057D02*
X41087685Y-43418104D01*
X41030542Y-43437152D01*
X40992447Y-43437152D01*
X40935304Y-43418104D01*
X40897209Y-43380009D01*
X40878161Y-43341914D01*
X40859114Y-43265723D01*
X40859114Y-43208580D01*
X40878161Y-43132390D01*
X40897209Y-43094295D01*
X40935304Y-43056200D01*
X40992447Y-43037152D01*
X41030542Y-43037152D01*
X41087685Y-43056200D01*
X41106733Y-43075247D01*
X41240066Y-43037152D02*
X41487685Y-43037152D01*
X41354352Y-43189533D01*
X41411495Y-43189533D01*
X41449590Y-43208580D01*
X41468638Y-43227628D01*
X41487685Y-43265723D01*
X41487685Y-43360961D01*
X41468638Y-43399057D01*
X41449590Y-43418104D01*
X41411495Y-43437152D01*
X41297209Y-43437152D01*
X41259114Y-43418104D01*
X41240066Y-43399057D01*
X45920057Y-36464857D02*
X45901009Y-36483904D01*
X45843866Y-36502952D01*
X45805771Y-36502952D01*
X45748628Y-36483904D01*
X45710533Y-36445809D01*
X45691485Y-36407714D01*
X45672438Y-36331523D01*
X45672438Y-36274380D01*
X45691485Y-36198190D01*
X45710533Y-36160095D01*
X45748628Y-36122000D01*
X45805771Y-36102952D01*
X45843866Y-36102952D01*
X45901009Y-36122000D01*
X45920057Y-36141047D01*
X46072438Y-36141047D02*
X46091485Y-36122000D01*
X46129580Y-36102952D01*
X46224819Y-36102952D01*
X46262914Y-36122000D01*
X46281961Y-36141047D01*
X46301009Y-36179142D01*
X46301009Y-36217238D01*
X46281961Y-36274380D01*
X46053390Y-36502952D01*
X46301009Y-36502952D01*
X46681961Y-36502952D02*
X46453390Y-36502952D01*
X46567676Y-36502952D02*
X46567676Y-36102952D01*
X46529580Y-36160095D01*
X46491485Y-36198190D01*
X46453390Y-36217238D01*
X47113857Y-41544857D02*
X47094809Y-41563904D01*
X47037666Y-41582952D01*
X46999571Y-41582952D01*
X46942428Y-41563904D01*
X46904333Y-41525809D01*
X46885285Y-41487714D01*
X46866238Y-41411523D01*
X46866238Y-41354380D01*
X46885285Y-41278190D01*
X46904333Y-41240095D01*
X46942428Y-41202000D01*
X46999571Y-41182952D01*
X47037666Y-41182952D01*
X47094809Y-41202000D01*
X47113857Y-41221047D01*
X47266238Y-41221047D02*
X47285285Y-41202000D01*
X47323380Y-41182952D01*
X47418619Y-41182952D01*
X47456714Y-41202000D01*
X47475761Y-41221047D01*
X47494809Y-41259142D01*
X47494809Y-41297238D01*
X47475761Y-41354380D01*
X47247190Y-41582952D01*
X47494809Y-41582952D01*
X47742428Y-41182952D02*
X47780523Y-41182952D01*
X47818619Y-41202000D01*
X47837666Y-41221047D01*
X47856714Y-41259142D01*
X47875761Y-41335333D01*
X47875761Y-41430571D01*
X47856714Y-41506761D01*
X47837666Y-41544857D01*
X47818619Y-41563904D01*
X47780523Y-41582952D01*
X47742428Y-41582952D01*
X47704333Y-41563904D01*
X47685285Y-41544857D01*
X47666238Y-41506761D01*
X47647190Y-41430571D01*
X47647190Y-41335333D01*
X47666238Y-41259142D01*
X47685285Y-41221047D01*
X47704333Y-41202000D01*
X47742428Y-41182952D01*
X49361733Y-36579152D02*
X49228400Y-36388676D01*
X49133161Y-36579152D02*
X49133161Y-36179152D01*
X49285542Y-36179152D01*
X49323638Y-36198200D01*
X49342685Y-36217247D01*
X49361733Y-36255342D01*
X49361733Y-36312485D01*
X49342685Y-36350580D01*
X49323638Y-36369628D01*
X49285542Y-36388676D01*
X49133161Y-36388676D01*
X49704590Y-36312485D02*
X49704590Y-36579152D01*
X49609352Y-36160104D02*
X49514114Y-36445819D01*
X49761733Y-36445819D01*
X50682533Y-36579152D02*
X50549200Y-36388676D01*
X50453961Y-36579152D02*
X50453961Y-36179152D01*
X50606342Y-36179152D01*
X50644438Y-36198200D01*
X50663485Y-36217247D01*
X50682533Y-36255342D01*
X50682533Y-36312485D01*
X50663485Y-36350580D01*
X50644438Y-36369628D01*
X50606342Y-36388676D01*
X50453961Y-36388676D01*
X51044438Y-36179152D02*
X50853961Y-36179152D01*
X50834914Y-36369628D01*
X50853961Y-36350580D01*
X50892057Y-36331533D01*
X50987295Y-36331533D01*
X51025390Y-36350580D01*
X51044438Y-36369628D01*
X51063485Y-36407723D01*
X51063485Y-36502961D01*
X51044438Y-36541057D01*
X51025390Y-36560104D01*
X50987295Y-36579152D01*
X50892057Y-36579152D01*
X50853961Y-36560104D01*
X50834914Y-36541057D01*
X35328257Y-33797857D02*
X35309209Y-33816904D01*
X35252066Y-33835952D01*
X35213971Y-33835952D01*
X35156828Y-33816904D01*
X35118733Y-33778809D01*
X35099685Y-33740714D01*
X35080638Y-33664523D01*
X35080638Y-33607380D01*
X35099685Y-33531190D01*
X35118733Y-33493095D01*
X35156828Y-33455000D01*
X35213971Y-33435952D01*
X35252066Y-33435952D01*
X35309209Y-33455000D01*
X35328257Y-33474047D01*
X35480638Y-33474047D02*
X35499685Y-33455000D01*
X35537780Y-33435952D01*
X35633019Y-33435952D01*
X35671114Y-33455000D01*
X35690161Y-33474047D01*
X35709209Y-33512142D01*
X35709209Y-33550238D01*
X35690161Y-33607380D01*
X35461590Y-33835952D01*
X35709209Y-33835952D01*
X35937780Y-33607380D02*
X35899685Y-33588333D01*
X35880638Y-33569285D01*
X35861590Y-33531190D01*
X35861590Y-33512142D01*
X35880638Y-33474047D01*
X35899685Y-33455000D01*
X35937780Y-33435952D01*
X36013971Y-33435952D01*
X36052066Y-33455000D01*
X36071114Y-33474047D01*
X36090161Y-33512142D01*
X36090161Y-33531190D01*
X36071114Y-33569285D01*
X36052066Y-33588333D01*
X36013971Y-33607380D01*
X35937780Y-33607380D01*
X35899685Y-33626428D01*
X35880638Y-33645476D01*
X35861590Y-33683571D01*
X35861590Y-33759761D01*
X35880638Y-33797857D01*
X35899685Y-33816904D01*
X35937780Y-33835952D01*
X36013971Y-33835952D01*
X36052066Y-33816904D01*
X36071114Y-33797857D01*
X36090161Y-33759761D01*
X36090161Y-33683571D01*
X36071114Y-33645476D01*
X36052066Y-33626428D01*
X36013971Y-33607380D01*
X44980257Y-34813857D02*
X44961209Y-34832904D01*
X44904066Y-34851952D01*
X44865971Y-34851952D01*
X44808828Y-34832904D01*
X44770733Y-34794809D01*
X44751685Y-34756714D01*
X44732638Y-34680523D01*
X44732638Y-34623380D01*
X44751685Y-34547190D01*
X44770733Y-34509095D01*
X44808828Y-34471000D01*
X44865971Y-34451952D01*
X44904066Y-34451952D01*
X44961209Y-34471000D01*
X44980257Y-34490047D01*
X45132638Y-34490047D02*
X45151685Y-34471000D01*
X45189780Y-34451952D01*
X45285019Y-34451952D01*
X45323114Y-34471000D01*
X45342161Y-34490047D01*
X45361209Y-34528142D01*
X45361209Y-34566238D01*
X45342161Y-34623380D01*
X45113590Y-34851952D01*
X45361209Y-34851952D01*
X45513590Y-34490047D02*
X45532638Y-34471000D01*
X45570733Y-34451952D01*
X45665971Y-34451952D01*
X45704066Y-34471000D01*
X45723114Y-34490047D01*
X45742161Y-34528142D01*
X45742161Y-34566238D01*
X45723114Y-34623380D01*
X45494542Y-34851952D01*
X45742161Y-34851952D01*
X49704657Y-32197657D02*
X49685609Y-32216704D01*
X49628466Y-32235752D01*
X49590371Y-32235752D01*
X49533228Y-32216704D01*
X49495133Y-32178609D01*
X49476085Y-32140514D01*
X49457038Y-32064323D01*
X49457038Y-32007180D01*
X49476085Y-31930990D01*
X49495133Y-31892895D01*
X49533228Y-31854800D01*
X49590371Y-31835752D01*
X49628466Y-31835752D01*
X49685609Y-31854800D01*
X49704657Y-31873847D01*
X49857038Y-31873847D02*
X49876085Y-31854800D01*
X49914180Y-31835752D01*
X50009419Y-31835752D01*
X50047514Y-31854800D01*
X50066561Y-31873847D01*
X50085609Y-31911942D01*
X50085609Y-31950038D01*
X50066561Y-32007180D01*
X49837990Y-32235752D01*
X50085609Y-32235752D01*
X50447514Y-31835752D02*
X50257038Y-31835752D01*
X50237990Y-32026228D01*
X50257038Y-32007180D01*
X50295133Y-31988133D01*
X50390371Y-31988133D01*
X50428466Y-32007180D01*
X50447514Y-32026228D01*
X50466561Y-32064323D01*
X50466561Y-32159561D01*
X50447514Y-32197657D01*
X50428466Y-32216704D01*
X50390371Y-32235752D01*
X50295133Y-32235752D01*
X50257038Y-32216704D01*
X50237990Y-32197657D01*
X47240857Y-31334057D02*
X47221809Y-31353104D01*
X47164666Y-31372152D01*
X47126571Y-31372152D01*
X47069428Y-31353104D01*
X47031333Y-31315009D01*
X47012285Y-31276914D01*
X46993238Y-31200723D01*
X46993238Y-31143580D01*
X47012285Y-31067390D01*
X47031333Y-31029295D01*
X47069428Y-30991200D01*
X47126571Y-30972152D01*
X47164666Y-30972152D01*
X47221809Y-30991200D01*
X47240857Y-31010247D01*
X47393238Y-31010247D02*
X47412285Y-30991200D01*
X47450380Y-30972152D01*
X47545619Y-30972152D01*
X47583714Y-30991200D01*
X47602761Y-31010247D01*
X47621809Y-31048342D01*
X47621809Y-31086438D01*
X47602761Y-31143580D01*
X47374190Y-31372152D01*
X47621809Y-31372152D01*
X47964666Y-31105485D02*
X47964666Y-31372152D01*
X47869428Y-30953104D02*
X47774190Y-31238819D01*
X48021809Y-31238819D01*
X45183457Y-29403657D02*
X45164409Y-29422704D01*
X45107266Y-29441752D01*
X45069171Y-29441752D01*
X45012028Y-29422704D01*
X44973933Y-29384609D01*
X44954885Y-29346514D01*
X44935838Y-29270323D01*
X44935838Y-29213180D01*
X44954885Y-29136990D01*
X44973933Y-29098895D01*
X45012028Y-29060800D01*
X45069171Y-29041752D01*
X45107266Y-29041752D01*
X45164409Y-29060800D01*
X45183457Y-29079847D01*
X45335838Y-29079847D02*
X45354885Y-29060800D01*
X45392980Y-29041752D01*
X45488219Y-29041752D01*
X45526314Y-29060800D01*
X45545361Y-29079847D01*
X45564409Y-29117942D01*
X45564409Y-29156038D01*
X45545361Y-29213180D01*
X45316790Y-29441752D01*
X45564409Y-29441752D01*
X45697742Y-29041752D02*
X45945361Y-29041752D01*
X45812028Y-29194133D01*
X45869171Y-29194133D01*
X45907266Y-29213180D01*
X45926314Y-29232228D01*
X45945361Y-29270323D01*
X45945361Y-29365561D01*
X45926314Y-29403657D01*
X45907266Y-29422704D01*
X45869171Y-29441752D01*
X45754885Y-29441752D01*
X45716790Y-29422704D01*
X45697742Y-29403657D01*
X62061761Y-31067352D02*
X62061761Y-30667352D01*
X62157000Y-30667352D01*
X62214142Y-30686400D01*
X62252238Y-30724495D01*
X62271285Y-30762590D01*
X62290333Y-30838780D01*
X62290333Y-30895923D01*
X62271285Y-30972114D01*
X62252238Y-31010209D01*
X62214142Y-31048304D01*
X62157000Y-31067352D01*
X62061761Y-31067352D01*
X62652238Y-30667352D02*
X62461761Y-30667352D01*
X62442714Y-30857828D01*
X62461761Y-30838780D01*
X62499857Y-30819733D01*
X62595095Y-30819733D01*
X62633190Y-30838780D01*
X62652238Y-30857828D01*
X62671285Y-30895923D01*
X62671285Y-30991161D01*
X62652238Y-31029257D01*
X62633190Y-31048304D01*
X62595095Y-31067352D01*
X62499857Y-31067352D01*
X62461761Y-31048304D01*
X62442714Y-31029257D01*
X62376066Y-37944428D02*
X62242733Y-37944428D01*
X62242733Y-38153952D02*
X62242733Y-37753952D01*
X62433209Y-37753952D01*
X62795114Y-38153952D02*
X62566542Y-38153952D01*
X62680828Y-38153952D02*
X62680828Y-37753952D01*
X62642733Y-37811095D01*
X62604638Y-37849190D01*
X62566542Y-37868238D01*
X59610666Y-40484428D02*
X59477333Y-40484428D01*
X59477333Y-40693952D02*
X59477333Y-40293952D01*
X59667809Y-40293952D01*
X59953523Y-40484428D02*
X60010666Y-40503476D01*
X60029714Y-40522523D01*
X60048761Y-40560619D01*
X60048761Y-40617761D01*
X60029714Y-40655857D01*
X60010666Y-40674904D01*
X59972571Y-40693952D01*
X59820190Y-40693952D01*
X59820190Y-40293952D01*
X59953523Y-40293952D01*
X59991619Y-40313000D01*
X60010666Y-40332047D01*
X60029714Y-40370142D01*
X60029714Y-40408238D01*
X60010666Y-40446333D01*
X59991619Y-40465380D01*
X59953523Y-40484428D01*
X59820190Y-40484428D01*
X60201142Y-40332047D02*
X60220190Y-40313000D01*
X60258285Y-40293952D01*
X60353523Y-40293952D01*
X60391619Y-40313000D01*
X60410666Y-40332047D01*
X60429714Y-40370142D01*
X60429714Y-40408238D01*
X60410666Y-40465380D01*
X60182095Y-40693952D01*
X60429714Y-40693952D01*
X58239057Y-37252257D02*
X58220009Y-37271304D01*
X58162866Y-37290352D01*
X58124771Y-37290352D01*
X58067628Y-37271304D01*
X58029533Y-37233209D01*
X58010485Y-37195114D01*
X57991438Y-37118923D01*
X57991438Y-37061780D01*
X58010485Y-36985590D01*
X58029533Y-36947495D01*
X58067628Y-36909400D01*
X58124771Y-36890352D01*
X58162866Y-36890352D01*
X58220009Y-36909400D01*
X58239057Y-36928447D01*
X58372390Y-36890352D02*
X58620009Y-36890352D01*
X58486676Y-37042733D01*
X58543819Y-37042733D01*
X58581914Y-37061780D01*
X58600961Y-37080828D01*
X58620009Y-37118923D01*
X58620009Y-37214161D01*
X58600961Y-37252257D01*
X58581914Y-37271304D01*
X58543819Y-37290352D01*
X58429533Y-37290352D01*
X58391438Y-37271304D01*
X58372390Y-37252257D01*
X58772390Y-36928447D02*
X58791438Y-36909400D01*
X58829533Y-36890352D01*
X58924771Y-36890352D01*
X58962866Y-36909400D01*
X58981914Y-36928447D01*
X59000961Y-36966542D01*
X59000961Y-37004638D01*
X58981914Y-37061780D01*
X58753342Y-37290352D01*
X59000961Y-37290352D01*
X58112057Y-39817657D02*
X58093009Y-39836704D01*
X58035866Y-39855752D01*
X57997771Y-39855752D01*
X57940628Y-39836704D01*
X57902533Y-39798609D01*
X57883485Y-39760514D01*
X57864438Y-39684323D01*
X57864438Y-39627180D01*
X57883485Y-39550990D01*
X57902533Y-39512895D01*
X57940628Y-39474800D01*
X57997771Y-39455752D01*
X58035866Y-39455752D01*
X58093009Y-39474800D01*
X58112057Y-39493847D01*
X58245390Y-39455752D02*
X58493009Y-39455752D01*
X58359676Y-39608133D01*
X58416819Y-39608133D01*
X58454914Y-39627180D01*
X58473961Y-39646228D01*
X58493009Y-39684323D01*
X58493009Y-39779561D01*
X58473961Y-39817657D01*
X58454914Y-39836704D01*
X58416819Y-39855752D01*
X58302533Y-39855752D01*
X58264438Y-39836704D01*
X58245390Y-39817657D01*
X58626342Y-39455752D02*
X58873961Y-39455752D01*
X58740628Y-39608133D01*
X58797771Y-39608133D01*
X58835866Y-39627180D01*
X58854914Y-39646228D01*
X58873961Y-39684323D01*
X58873961Y-39779561D01*
X58854914Y-39817657D01*
X58835866Y-39836704D01*
X58797771Y-39855752D01*
X58683485Y-39855752D01*
X58645390Y-39836704D01*
X58626342Y-39817657D01*
X49933257Y-38496857D02*
X49914209Y-38515904D01*
X49857066Y-38534952D01*
X49818971Y-38534952D01*
X49761828Y-38515904D01*
X49723733Y-38477809D01*
X49704685Y-38439714D01*
X49685638Y-38363523D01*
X49685638Y-38306380D01*
X49704685Y-38230190D01*
X49723733Y-38192095D01*
X49761828Y-38154000D01*
X49818971Y-38134952D01*
X49857066Y-38134952D01*
X49914209Y-38154000D01*
X49933257Y-38173047D01*
X50066590Y-38134952D02*
X50314209Y-38134952D01*
X50180876Y-38287333D01*
X50238019Y-38287333D01*
X50276114Y-38306380D01*
X50295161Y-38325428D01*
X50314209Y-38363523D01*
X50314209Y-38458761D01*
X50295161Y-38496857D01*
X50276114Y-38515904D01*
X50238019Y-38534952D01*
X50123733Y-38534952D01*
X50085638Y-38515904D01*
X50066590Y-38496857D01*
X50657066Y-38268285D02*
X50657066Y-38534952D01*
X50561828Y-38115904D02*
X50466590Y-38401619D01*
X50714209Y-38401619D01*
X53794057Y-42116352D02*
X53660723Y-41925876D01*
X53565485Y-42116352D02*
X53565485Y-41716352D01*
X53717866Y-41716352D01*
X53755961Y-41735400D01*
X53775009Y-41754447D01*
X53794057Y-41792542D01*
X53794057Y-41849685D01*
X53775009Y-41887780D01*
X53755961Y-41906828D01*
X53717866Y-41925876D01*
X53565485Y-41925876D01*
X54175009Y-42116352D02*
X53946438Y-42116352D01*
X54060723Y-42116352D02*
X54060723Y-41716352D01*
X54022628Y-41773495D01*
X53984533Y-41811590D01*
X53946438Y-41830638D01*
X54517866Y-41849685D02*
X54517866Y-42116352D01*
X54422628Y-41697304D02*
X54327390Y-41983019D01*
X54575009Y-41983019D01*
X55318057Y-42141752D02*
X55184723Y-41951276D01*
X55089485Y-42141752D02*
X55089485Y-41741752D01*
X55241866Y-41741752D01*
X55279961Y-41760800D01*
X55299009Y-41779847D01*
X55318057Y-41817942D01*
X55318057Y-41875085D01*
X55299009Y-41913180D01*
X55279961Y-41932228D01*
X55241866Y-41951276D01*
X55089485Y-41951276D01*
X55699009Y-42141752D02*
X55470438Y-42141752D01*
X55584723Y-42141752D02*
X55584723Y-41741752D01*
X55546628Y-41798895D01*
X55508533Y-41836990D01*
X55470438Y-41856038D01*
X55832342Y-41741752D02*
X56079961Y-41741752D01*
X55946628Y-41894133D01*
X56003771Y-41894133D01*
X56041866Y-41913180D01*
X56060914Y-41932228D01*
X56079961Y-41970323D01*
X56079961Y-42065561D01*
X56060914Y-42103657D01*
X56041866Y-42122704D01*
X56003771Y-42141752D01*
X55889485Y-42141752D01*
X55851390Y-42122704D01*
X55832342Y-42103657D01*
X58670857Y-46650257D02*
X58651809Y-46669304D01*
X58594666Y-46688352D01*
X58556571Y-46688352D01*
X58499428Y-46669304D01*
X58461333Y-46631209D01*
X58442285Y-46593114D01*
X58423238Y-46516923D01*
X58423238Y-46459780D01*
X58442285Y-46383590D01*
X58461333Y-46345495D01*
X58499428Y-46307400D01*
X58556571Y-46288352D01*
X58594666Y-46288352D01*
X58651809Y-46307400D01*
X58670857Y-46326447D01*
X58823238Y-46326447D02*
X58842285Y-46307400D01*
X58880380Y-46288352D01*
X58975619Y-46288352D01*
X59013714Y-46307400D01*
X59032761Y-46326447D01*
X59051809Y-46364542D01*
X59051809Y-46402638D01*
X59032761Y-46459780D01*
X58804190Y-46688352D01*
X59051809Y-46688352D01*
X59242285Y-46688352D02*
X59318476Y-46688352D01*
X59356571Y-46669304D01*
X59375619Y-46650257D01*
X59413714Y-46593114D01*
X59432761Y-46516923D01*
X59432761Y-46364542D01*
X59413714Y-46326447D01*
X59394666Y-46307400D01*
X59356571Y-46288352D01*
X59280380Y-46288352D01*
X59242285Y-46307400D01*
X59223238Y-46326447D01*
X59204190Y-46364542D01*
X59204190Y-46459780D01*
X59223238Y-46497876D01*
X59242285Y-46516923D01*
X59280380Y-46535971D01*
X59356571Y-46535971D01*
X59394666Y-46516923D01*
X59413714Y-46497876D01*
X59432761Y-46459780D01*
X66024133Y-52733552D02*
X65890800Y-52543076D01*
X65795561Y-52733552D02*
X65795561Y-52333552D01*
X65947942Y-52333552D01*
X65986038Y-52352600D01*
X66005085Y-52371647D01*
X66024133Y-52409742D01*
X66024133Y-52466885D01*
X66005085Y-52504980D01*
X65986038Y-52524028D01*
X65947942Y-52543076D01*
X65795561Y-52543076D01*
X66366990Y-52333552D02*
X66290800Y-52333552D01*
X66252704Y-52352600D01*
X66233657Y-52371647D01*
X66195561Y-52428790D01*
X66176514Y-52504980D01*
X66176514Y-52657361D01*
X66195561Y-52695457D01*
X66214609Y-52714504D01*
X66252704Y-52733552D01*
X66328895Y-52733552D01*
X66366990Y-52714504D01*
X66386038Y-52695457D01*
X66405085Y-52657361D01*
X66405085Y-52562123D01*
X66386038Y-52524028D01*
X66366990Y-52504980D01*
X66328895Y-52485933D01*
X66252704Y-52485933D01*
X66214609Y-52504980D01*
X66195561Y-52524028D01*
X66176514Y-52562123D01*
X64703333Y-52733552D02*
X64570000Y-52543076D01*
X64474761Y-52733552D02*
X64474761Y-52333552D01*
X64627142Y-52333552D01*
X64665238Y-52352600D01*
X64684285Y-52371647D01*
X64703333Y-52409742D01*
X64703333Y-52466885D01*
X64684285Y-52504980D01*
X64665238Y-52524028D01*
X64627142Y-52543076D01*
X64474761Y-52543076D01*
X64836666Y-52333552D02*
X65103333Y-52333552D01*
X64931904Y-52733552D01*
X44129333Y-43957857D02*
X44110285Y-43976904D01*
X44053142Y-43995952D01*
X44015047Y-43995952D01*
X43957904Y-43976904D01*
X43919809Y-43938809D01*
X43900761Y-43900714D01*
X43881714Y-43824523D01*
X43881714Y-43767380D01*
X43900761Y-43691190D01*
X43919809Y-43653095D01*
X43957904Y-43615000D01*
X44015047Y-43595952D01*
X44053142Y-43595952D01*
X44110285Y-43615000D01*
X44129333Y-43634047D01*
X44472190Y-43729285D02*
X44472190Y-43995952D01*
X44376952Y-43576904D02*
X44281714Y-43862619D01*
X44529333Y-43862619D01*
X44103933Y-45100857D02*
X44084885Y-45119904D01*
X44027742Y-45138952D01*
X43989647Y-45138952D01*
X43932504Y-45119904D01*
X43894409Y-45081809D01*
X43875361Y-45043714D01*
X43856314Y-44967523D01*
X43856314Y-44910380D01*
X43875361Y-44834190D01*
X43894409Y-44796095D01*
X43932504Y-44758000D01*
X43989647Y-44738952D01*
X44027742Y-44738952D01*
X44084885Y-44758000D01*
X44103933Y-44777047D01*
X44465838Y-44738952D02*
X44275361Y-44738952D01*
X44256314Y-44929428D01*
X44275361Y-44910380D01*
X44313457Y-44891333D01*
X44408695Y-44891333D01*
X44446790Y-44910380D01*
X44465838Y-44929428D01*
X44484885Y-44967523D01*
X44484885Y-45062761D01*
X44465838Y-45100857D01*
X44446790Y-45119904D01*
X44408695Y-45138952D01*
X44313457Y-45138952D01*
X44275361Y-45119904D01*
X44256314Y-45100857D01*
X40166933Y-47869457D02*
X40147885Y-47888504D01*
X40090742Y-47907552D01*
X40052647Y-47907552D01*
X39995504Y-47888504D01*
X39957409Y-47850409D01*
X39938361Y-47812314D01*
X39919314Y-47736123D01*
X39919314Y-47678980D01*
X39938361Y-47602790D01*
X39957409Y-47564695D01*
X39995504Y-47526600D01*
X40052647Y-47507552D01*
X40090742Y-47507552D01*
X40147885Y-47526600D01*
X40166933Y-47545647D01*
X40509790Y-47507552D02*
X40433600Y-47507552D01*
X40395504Y-47526600D01*
X40376457Y-47545647D01*
X40338361Y-47602790D01*
X40319314Y-47678980D01*
X40319314Y-47831361D01*
X40338361Y-47869457D01*
X40357409Y-47888504D01*
X40395504Y-47907552D01*
X40471695Y-47907552D01*
X40509790Y-47888504D01*
X40528838Y-47869457D01*
X40547885Y-47831361D01*
X40547885Y-47736123D01*
X40528838Y-47698028D01*
X40509790Y-47678980D01*
X40471695Y-47659933D01*
X40395504Y-47659933D01*
X40357409Y-47678980D01*
X40338361Y-47698028D01*
X40319314Y-47736123D01*
X54136933Y-46243857D02*
X54117885Y-46262904D01*
X54060742Y-46281952D01*
X54022647Y-46281952D01*
X53965504Y-46262904D01*
X53927409Y-46224809D01*
X53908361Y-46186714D01*
X53889314Y-46110523D01*
X53889314Y-46053380D01*
X53908361Y-45977190D01*
X53927409Y-45939095D01*
X53965504Y-45901000D01*
X54022647Y-45881952D01*
X54060742Y-45881952D01*
X54117885Y-45901000D01*
X54136933Y-45920047D01*
X54270266Y-45881952D02*
X54536933Y-45881952D01*
X54365504Y-46281952D01*
X54136933Y-47386857D02*
X54117885Y-47405904D01*
X54060742Y-47424952D01*
X54022647Y-47424952D01*
X53965504Y-47405904D01*
X53927409Y-47367809D01*
X53908361Y-47329714D01*
X53889314Y-47253523D01*
X53889314Y-47196380D01*
X53908361Y-47120190D01*
X53927409Y-47082095D01*
X53965504Y-47044000D01*
X54022647Y-47024952D01*
X54060742Y-47024952D01*
X54117885Y-47044000D01*
X54136933Y-47063047D01*
X54365504Y-47196380D02*
X54327409Y-47177333D01*
X54308361Y-47158285D01*
X54289314Y-47120190D01*
X54289314Y-47101142D01*
X54308361Y-47063047D01*
X54327409Y-47044000D01*
X54365504Y-47024952D01*
X54441695Y-47024952D01*
X54479790Y-47044000D01*
X54498838Y-47063047D01*
X54517885Y-47101142D01*
X54517885Y-47120190D01*
X54498838Y-47158285D01*
X54479790Y-47177333D01*
X54441695Y-47196380D01*
X54365504Y-47196380D01*
X54327409Y-47215428D01*
X54308361Y-47234476D01*
X54289314Y-47272571D01*
X54289314Y-47348761D01*
X54308361Y-47386857D01*
X54327409Y-47405904D01*
X54365504Y-47424952D01*
X54441695Y-47424952D01*
X54479790Y-47405904D01*
X54498838Y-47386857D01*
X54517885Y-47348761D01*
X54517885Y-47272571D01*
X54498838Y-47234476D01*
X54479790Y-47215428D01*
X54441695Y-47196380D01*
X51393733Y-57826257D02*
X51374685Y-57845304D01*
X51317542Y-57864352D01*
X51279447Y-57864352D01*
X51222304Y-57845304D01*
X51184209Y-57807209D01*
X51165161Y-57769114D01*
X51146114Y-57692923D01*
X51146114Y-57635780D01*
X51165161Y-57559590D01*
X51184209Y-57521495D01*
X51222304Y-57483400D01*
X51279447Y-57464352D01*
X51317542Y-57464352D01*
X51374685Y-57483400D01*
X51393733Y-57502447D01*
X51584209Y-57864352D02*
X51660400Y-57864352D01*
X51698495Y-57845304D01*
X51717542Y-57826257D01*
X51755638Y-57769114D01*
X51774685Y-57692923D01*
X51774685Y-57540542D01*
X51755638Y-57502447D01*
X51736590Y-57483400D01*
X51698495Y-57464352D01*
X51622304Y-57464352D01*
X51584209Y-57483400D01*
X51565161Y-57502447D01*
X51546114Y-57540542D01*
X51546114Y-57635780D01*
X51565161Y-57673876D01*
X51584209Y-57692923D01*
X51622304Y-57711971D01*
X51698495Y-57711971D01*
X51736590Y-57692923D01*
X51755638Y-57673876D01*
X51774685Y-57635780D01*
X52498657Y-57826257D02*
X52479609Y-57845304D01*
X52422466Y-57864352D01*
X52384371Y-57864352D01*
X52327228Y-57845304D01*
X52289133Y-57807209D01*
X52270085Y-57769114D01*
X52251038Y-57692923D01*
X52251038Y-57635780D01*
X52270085Y-57559590D01*
X52289133Y-57521495D01*
X52327228Y-57483400D01*
X52384371Y-57464352D01*
X52422466Y-57464352D01*
X52479609Y-57483400D01*
X52498657Y-57502447D01*
X52879609Y-57864352D02*
X52651038Y-57864352D01*
X52765323Y-57864352D02*
X52765323Y-57464352D01*
X52727228Y-57521495D01*
X52689133Y-57559590D01*
X52651038Y-57578638D01*
X53127228Y-57464352D02*
X53165323Y-57464352D01*
X53203419Y-57483400D01*
X53222466Y-57502447D01*
X53241514Y-57540542D01*
X53260561Y-57616733D01*
X53260561Y-57711971D01*
X53241514Y-57788161D01*
X53222466Y-57826257D01*
X53203419Y-57845304D01*
X53165323Y-57864352D01*
X53127228Y-57864352D01*
X53089133Y-57845304D01*
X53070085Y-57826257D01*
X53051038Y-57788161D01*
X53031990Y-57711971D01*
X53031990Y-57616733D01*
X53051038Y-57540542D01*
X53070085Y-57502447D01*
X53089133Y-57483400D01*
X53127228Y-57464352D01*
X44624657Y-59324857D02*
X44605609Y-59343904D01*
X44548466Y-59362952D01*
X44510371Y-59362952D01*
X44453228Y-59343904D01*
X44415133Y-59305809D01*
X44396085Y-59267714D01*
X44377038Y-59191523D01*
X44377038Y-59134380D01*
X44396085Y-59058190D01*
X44415133Y-59020095D01*
X44453228Y-58982000D01*
X44510371Y-58962952D01*
X44548466Y-58962952D01*
X44605609Y-58982000D01*
X44624657Y-59001047D01*
X45005609Y-59362952D02*
X44777038Y-59362952D01*
X44891323Y-59362952D02*
X44891323Y-58962952D01*
X44853228Y-59020095D01*
X44815133Y-59058190D01*
X44777038Y-59077238D01*
X45386561Y-59362952D02*
X45157990Y-59362952D01*
X45272276Y-59362952D02*
X45272276Y-58962952D01*
X45234180Y-59020095D01*
X45196085Y-59058190D01*
X45157990Y-59077238D01*
X44624657Y-60467857D02*
X44605609Y-60486904D01*
X44548466Y-60505952D01*
X44510371Y-60505952D01*
X44453228Y-60486904D01*
X44415133Y-60448809D01*
X44396085Y-60410714D01*
X44377038Y-60334523D01*
X44377038Y-60277380D01*
X44396085Y-60201190D01*
X44415133Y-60163095D01*
X44453228Y-60125000D01*
X44510371Y-60105952D01*
X44548466Y-60105952D01*
X44605609Y-60125000D01*
X44624657Y-60144047D01*
X45005609Y-60505952D02*
X44777038Y-60505952D01*
X44891323Y-60505952D02*
X44891323Y-60105952D01*
X44853228Y-60163095D01*
X44815133Y-60201190D01*
X44777038Y-60220238D01*
X45157990Y-60144047D02*
X45177038Y-60125000D01*
X45215133Y-60105952D01*
X45310371Y-60105952D01*
X45348466Y-60125000D01*
X45367514Y-60144047D01*
X45386561Y-60182142D01*
X45386561Y-60220238D01*
X45367514Y-60277380D01*
X45138942Y-60505952D01*
X45386561Y-60505952D01*
X40030419Y-26393771D02*
X40335180Y-26393771D01*
X40182800Y-26546152D02*
X40182800Y-26241390D01*
X54457619Y-57457971D02*
X54762380Y-57457971D01*
X54610000Y-57610352D02*
X54610000Y-57305590D01*
X56235619Y-57457971D02*
X56540380Y-57457971D01*
X56388000Y-57610352D02*
X56388000Y-57305590D01*
X58013619Y-57457971D02*
X58318380Y-57457971D01*
X58166000Y-57610352D02*
X58166000Y-57305590D01*
X59791619Y-57457971D02*
X60096380Y-57457971D01*
X59944000Y-57610352D02*
X59944000Y-57305590D01*
X40995619Y-44910371D02*
X41300380Y-44910371D01*
X41148000Y-45062752D02*
X41148000Y-44757990D01*
D10*
X32199533Y-59339171D02*
X31866200Y-59339171D01*
X31866200Y-59862980D02*
X31866200Y-58862980D01*
X32342390Y-58862980D01*
X33199533Y-59862980D02*
X32723342Y-59862980D01*
X32723342Y-58862980D01*
X33485247Y-59577266D02*
X33961438Y-59577266D01*
X33390009Y-59862980D02*
X33723342Y-58862980D01*
X34056676Y-59862980D01*
X34342390Y-59815361D02*
X34485247Y-59862980D01*
X34723342Y-59862980D01*
X34818580Y-59815361D01*
X34866200Y-59767742D01*
X34913819Y-59672504D01*
X34913819Y-59577266D01*
X34866200Y-59482028D01*
X34818580Y-59434409D01*
X34723342Y-59386790D01*
X34532866Y-59339171D01*
X34437628Y-59291552D01*
X34390009Y-59243933D01*
X34342390Y-59148695D01*
X34342390Y-59053457D01*
X34390009Y-58958219D01*
X34437628Y-58910600D01*
X34532866Y-58862980D01*
X34770961Y-58862980D01*
X34913819Y-58910600D01*
X35342390Y-59862980D02*
X35342390Y-58862980D01*
X35342390Y-59339171D02*
X35913819Y-59339171D01*
X35913819Y-59862980D02*
X35913819Y-58862980D01*
X36913819Y-59862980D02*
X36342390Y-59862980D01*
X36628104Y-59862980D02*
X36628104Y-58862980D01*
X36532866Y-59005838D01*
X36437628Y-59101076D01*
X36342390Y-59148695D01*
X36219314Y-24139085D02*
X35969314Y-23781942D01*
X35790742Y-24139085D02*
X35790742Y-23389085D01*
X36076457Y-23389085D01*
X36147885Y-23424800D01*
X36183600Y-23460514D01*
X36219314Y-23531942D01*
X36219314Y-23639085D01*
X36183600Y-23710514D01*
X36147885Y-23746228D01*
X36076457Y-23781942D01*
X35790742Y-23781942D01*
X36540742Y-23746228D02*
X36790742Y-23746228D01*
X36897885Y-24139085D02*
X36540742Y-24139085D01*
X36540742Y-23389085D01*
X36897885Y-23389085D01*
X37612171Y-23424800D02*
X37540742Y-23389085D01*
X37433600Y-23389085D01*
X37326457Y-23424800D01*
X37255028Y-23496228D01*
X37219314Y-23567657D01*
X37183600Y-23710514D01*
X37183600Y-23817657D01*
X37219314Y-23960514D01*
X37255028Y-24031942D01*
X37326457Y-24103371D01*
X37433600Y-24139085D01*
X37505028Y-24139085D01*
X37612171Y-24103371D01*
X37647885Y-24067657D01*
X37647885Y-23817657D01*
X37505028Y-23817657D01*
X38362171Y-24139085D02*
X37933600Y-24139085D01*
X38147885Y-24139085D02*
X38147885Y-23389085D01*
X38076457Y-23496228D01*
X38005028Y-23567657D01*
X37933600Y-23603371D01*
D11*
X51732000Y-69220000D02*
X48357000Y-69220000D01*
X45832000Y-64020000D02*
X45832000Y-63720000D01*
X46482000Y-64727107D02*
X46982000Y-64020000D01*
X45982000Y-64020000D02*
X46482000Y-64727107D01*
X44982000Y-69220000D02*
X48357000Y-69220000D01*
X44982000Y-63720000D02*
X44982000Y-69220000D01*
X48357000Y-64020000D02*
X50882000Y-64020000D01*
X45832000Y-63720000D02*
X44982000Y-63720000D01*
X48357000Y-64020000D02*
X45832000Y-64020000D01*
X51732000Y-63720000D02*
X51732000Y-69220000D01*
X50882000Y-64020000D02*
X50882000Y-63720000D01*
X50882000Y-63720000D02*
X51732000Y-63720000D01*
X53713000Y-47494000D02*
X52713000Y-47494000D01*
X52713000Y-47494000D02*
X52713000Y-46994000D01*
X52713000Y-46994000D02*
X53713000Y-46994000D01*
X53713000Y-46994000D02*
X53713000Y-47494000D01*
X36291000Y-53082000D02*
X35291000Y-53082000D01*
X36291000Y-52582000D02*
X36291000Y-53082000D01*
X35291000Y-53082000D02*
X35291000Y-52582000D01*
X35291000Y-52582000D02*
X36291000Y-52582000D01*
X49653000Y-35019500D02*
X49653000Y-36019500D01*
X49153000Y-35019500D02*
X49653000Y-35019500D01*
X49153000Y-36019500D02*
X49153000Y-35019500D01*
X49653000Y-36019500D02*
X49153000Y-36019500D01*
X55749000Y-41521000D02*
X55249000Y-41521000D01*
X55749000Y-40521000D02*
X55749000Y-41521000D01*
X55249000Y-40521000D02*
X55749000Y-40521000D01*
X55249000Y-41521000D02*
X55249000Y-40521000D01*
X35674300Y-26371600D02*
X37274300Y-26371600D01*
X37274300Y-27171600D02*
X35674300Y-27171600D01*
X35674300Y-27171600D02*
X35674300Y-26371600D01*
X37274300Y-26371600D02*
X37274300Y-27171600D01*
X39782800Y-24549100D02*
X39782800Y-22949100D01*
X40582800Y-24549100D02*
X39782800Y-24549100D01*
X40582800Y-22949100D02*
X40582800Y-24549100D01*
X39782800Y-22949100D02*
X40582800Y-22949100D01*
X42703000Y-43565000D02*
X43703000Y-43565000D01*
X43703000Y-44065000D02*
X42703000Y-44065000D01*
X42703000Y-44065000D02*
X42703000Y-43565000D01*
X43703000Y-43565000D02*
X43703000Y-44065000D01*
X39374000Y-54244000D02*
X39374000Y-53244000D01*
X39874000Y-54244000D02*
X39374000Y-54244000D01*
X39374000Y-53244000D02*
X39874000Y-53244000D01*
X39874000Y-53244000D02*
X39874000Y-54244000D01*
X38426200Y-29268800D02*
X38426200Y-30268800D01*
X37926200Y-30268800D02*
X37926200Y-29268800D01*
X37926200Y-29268800D02*
X38426200Y-29268800D01*
X38426200Y-30268800D02*
X37926200Y-30268800D01*
X45481000Y-36072000D02*
X45481000Y-36572000D01*
X45481000Y-36572000D02*
X44481000Y-36572000D01*
X44481000Y-36072000D02*
X45481000Y-36072000D01*
X44481000Y-36572000D02*
X44481000Y-36072000D01*
X46705000Y-41152000D02*
X46705000Y-41652000D01*
X45705000Y-41652000D02*
X45705000Y-41152000D01*
X46705000Y-41652000D02*
X45705000Y-41652000D01*
X45705000Y-41152000D02*
X46705000Y-41152000D01*
X44735000Y-33786000D02*
X45735000Y-33786000D01*
X44735000Y-34286000D02*
X44735000Y-33786000D01*
X45735000Y-34286000D02*
X44735000Y-34286000D01*
X45735000Y-33786000D02*
X45735000Y-34286000D01*
X44943000Y-29595000D02*
X45943000Y-29595000D01*
X45943000Y-29595000D02*
X45943000Y-30095000D01*
X45943000Y-30095000D02*
X44943000Y-30095000D01*
X44943000Y-30095000D02*
X44943000Y-29595000D01*
X47121000Y-31527000D02*
X47621000Y-31527000D01*
X47121000Y-32527000D02*
X47121000Y-31527000D01*
X47621000Y-32527000D02*
X47121000Y-32527000D01*
X47621000Y-31527000D02*
X47621000Y-32527000D01*
X48495000Y-31204000D02*
X49295000Y-31204000D01*
X49295000Y-32804000D02*
X48495000Y-32804000D01*
X48495000Y-32804000D02*
X48495000Y-31204000D01*
X49295000Y-31204000D02*
X49295000Y-32804000D01*
X36761800Y-42066400D02*
X37761800Y-42066400D01*
X37761800Y-42066400D02*
X37761800Y-42566400D01*
X36761800Y-42566400D02*
X36761800Y-42066400D01*
X37761800Y-42566400D02*
X36761800Y-42566400D01*
X34852800Y-44102400D02*
X35352800Y-44102400D01*
X35352800Y-44102400D02*
X35352800Y-45102400D01*
X34852800Y-45102400D02*
X34852800Y-44102400D01*
X35352800Y-45102400D02*
X34852800Y-45102400D01*
X35083000Y-33295400D02*
X35083000Y-32795400D01*
X36083000Y-33295400D02*
X35083000Y-33295400D01*
X35083000Y-32795400D02*
X36083000Y-32795400D01*
X36083000Y-32795400D02*
X36083000Y-33295400D01*
X58440700Y-46122400D02*
X58440700Y-45622400D01*
X59440700Y-46122400D02*
X58440700Y-46122400D01*
X59440700Y-45622400D02*
X59440700Y-46122400D01*
X58440700Y-45622400D02*
X59440700Y-45622400D01*
X40736000Y-57781000D02*
X39736000Y-57781000D01*
X39736000Y-57781000D02*
X39736000Y-57281000D01*
X39736000Y-57281000D02*
X40736000Y-57281000D01*
X40736000Y-57281000D02*
X40736000Y-57781000D01*
X43703000Y-68449000D02*
X42703000Y-68449000D01*
X42703000Y-68449000D02*
X42703000Y-67949000D01*
X43703000Y-67949000D02*
X43703000Y-68449000D01*
X42703000Y-67949000D02*
X43703000Y-67949000D01*
X59167000Y-36834000D02*
X60167000Y-36834000D01*
X59167000Y-37334000D02*
X59167000Y-36834000D01*
X60167000Y-36834000D02*
X60167000Y-37334000D01*
X60167000Y-37334000D02*
X59167000Y-37334000D01*
X58170000Y-39235000D02*
X58170000Y-38235000D01*
X58170000Y-38235000D02*
X58670000Y-38235000D01*
X58670000Y-39235000D02*
X58170000Y-39235000D01*
X58670000Y-38235000D02*
X58670000Y-39235000D01*
X51431000Y-38831000D02*
X50931000Y-38831000D01*
X51431000Y-37831000D02*
X51431000Y-38831000D01*
X50931000Y-38831000D02*
X50931000Y-37831000D01*
X50931000Y-37831000D02*
X51431000Y-37831000D01*
X55988000Y-57137500D02*
X55988000Y-58437500D01*
X56788000Y-58737500D02*
X56788000Y-57137500D01*
X56788000Y-57137500D02*
X55988000Y-57137500D01*
X56288000Y-58737500D02*
X56788000Y-58737500D01*
X55988000Y-58437500D02*
X56288000Y-58737500D01*
X58566000Y-57137500D02*
X57766000Y-57137500D01*
X57766000Y-57137500D02*
X57766000Y-58437500D01*
X58566000Y-58737500D02*
X58566000Y-57137500D01*
X57766000Y-58437500D02*
X58066000Y-58737500D01*
X58066000Y-58737500D02*
X58566000Y-58737500D01*
X59844000Y-58737500D02*
X60344000Y-58737500D01*
X59544000Y-57137500D02*
X59544000Y-58437500D01*
X60344000Y-58737500D02*
X60344000Y-57137500D01*
X59544000Y-58437500D02*
X59844000Y-58737500D01*
X60344000Y-57137500D02*
X59544000Y-57137500D01*
X61214000Y-30561000D02*
X61564000Y-31061000D01*
X61564000Y-31061000D02*
X60864000Y-31061000D01*
X61214000Y-31061000D02*
X61214000Y-31311000D01*
X61914000Y-29961000D02*
X61914000Y-31761000D01*
X61564000Y-30561000D02*
X60864000Y-30561000D01*
X61214000Y-30561000D02*
X61214000Y-30361000D01*
X61914000Y-31761000D02*
X60514000Y-31761000D01*
X60514000Y-31761000D02*
X60514000Y-29961000D01*
X60864000Y-31061000D02*
X61214000Y-30561000D01*
X60514000Y-29961000D02*
X61914000Y-29961000D01*
X31169000Y-50609500D02*
X30919000Y-50609500D01*
X32269000Y-51309500D02*
X30469000Y-51309500D01*
X31669000Y-50959500D02*
X31669000Y-50259500D01*
X31669000Y-50609500D02*
X31169000Y-50959500D01*
X30469000Y-49909500D02*
X32269000Y-49909500D01*
X31169000Y-50959500D02*
X31169000Y-50259500D01*
X32269000Y-49909500D02*
X32269000Y-51309500D01*
X31669000Y-50609500D02*
X31869000Y-50609500D01*
X31169000Y-50259500D02*
X31669000Y-50609500D01*
X30469000Y-51309500D02*
X30469000Y-49909500D01*
X61195000Y-38798500D02*
X61195000Y-37198500D01*
X61195000Y-37198500D02*
X61995000Y-37198500D01*
X61995000Y-37198500D02*
X61995000Y-38798500D01*
X61995000Y-38798500D02*
X61195000Y-38798500D01*
X59544000Y-40068500D02*
X59544000Y-38468500D01*
X60344000Y-40068500D02*
X59544000Y-40068500D01*
X59544000Y-38468500D02*
X60344000Y-38468500D01*
X60344000Y-38468500D02*
X60344000Y-40068500D01*
X54253000Y-69220000D02*
X57628000Y-69220000D01*
X60153000Y-63720000D02*
X61003000Y-63720000D01*
X61003000Y-69220000D02*
X57628000Y-69220000D01*
X55103000Y-63720000D02*
X54253000Y-63720000D01*
X57628000Y-64020000D02*
X60153000Y-64020000D01*
X55753000Y-64727107D02*
X56253000Y-64020000D01*
X60153000Y-64020000D02*
X60153000Y-63720000D01*
X55253000Y-64020000D02*
X55753000Y-64727107D01*
X55103000Y-64020000D02*
X55103000Y-63720000D01*
X61003000Y-63720000D02*
X61003000Y-69220000D01*
X57628000Y-64020000D02*
X55103000Y-64020000D01*
X54253000Y-63720000D02*
X54253000Y-69220000D01*
X63720000Y-53424000D02*
X69220000Y-53424000D01*
X63720000Y-60174000D02*
X69220000Y-60174000D01*
X64020000Y-56799000D02*
X64020000Y-59324000D01*
X64020000Y-59324000D02*
X63720000Y-59324000D01*
X69220000Y-53424000D02*
X69220000Y-56799000D01*
X64020000Y-56799000D02*
X64020000Y-54274000D01*
X64020000Y-54274000D02*
X63720000Y-54274000D01*
X69220000Y-60174000D02*
X69220000Y-56799000D01*
X64727107Y-58674000D02*
X64020000Y-58174000D01*
X63720000Y-54274000D02*
X63720000Y-53424000D01*
X63720000Y-59324000D02*
X63720000Y-60174000D01*
X64020000Y-59174000D02*
X64727107Y-58674000D01*
X32419000Y-52387500D02*
X32419000Y-54402500D01*
X30319000Y-52387500D02*
X32419000Y-52387500D01*
X32419000Y-54402500D02*
X31894000Y-54927500D01*
X30319000Y-54927500D02*
X30319000Y-52387500D01*
X31894000Y-54927500D02*
X30319000Y-54927500D01*
X33195000Y-40338000D02*
X33195000Y-35338000D01*
X34195000Y-34338000D02*
X39195000Y-34338000D01*
X33195000Y-35338000D02*
X34195000Y-34338000D01*
X39195000Y-34338000D02*
X39195000Y-40338000D01*
X39195000Y-40338000D02*
X33195000Y-40338000D01*
X26270000Y-28950000D02*
X26270000Y-48000000D01*
X21190000Y-49270000D02*
X21190000Y-28950000D01*
X21190000Y-28950000D02*
X26270000Y-28950000D01*
X26270000Y-48000000D02*
X25000000Y-49270000D01*
X25000000Y-49270000D02*
X21190000Y-49270000D01*
X26271220Y-29616400D02*
X26906220Y-28981400D01*
X26906220Y-28981400D02*
X28811220Y-28981400D01*
X28811220Y-49301400D02*
X26271220Y-49301400D01*
X26271220Y-49301400D02*
X26271220Y-29616400D01*
X28811220Y-28981400D02*
X28811220Y-49301400D01*
X40082800Y-27673100D02*
X40582800Y-27673100D01*
X40582800Y-26073100D02*
X39782800Y-26073100D01*
X39782800Y-27373100D02*
X40082800Y-27673100D01*
X40582800Y-27673100D02*
X40582800Y-26073100D01*
X39782800Y-26073100D02*
X39782800Y-27373100D01*
X42691800Y-27910600D02*
X41691800Y-27910600D01*
X42691800Y-27410600D02*
X42691800Y-27910600D01*
X41691800Y-27410600D02*
X42691800Y-27410600D01*
X41691800Y-27910600D02*
X41691800Y-27410600D01*
X50486500Y-36019500D02*
X50486500Y-35019500D01*
X50986500Y-35019500D02*
X50986500Y-36019500D01*
X50486500Y-35019500D02*
X50986500Y-35019500D01*
X50986500Y-36019500D02*
X50486500Y-36019500D01*
X66353500Y-51062000D02*
X66353500Y-52062000D01*
X65853500Y-52062000D02*
X65853500Y-51062000D01*
X65853500Y-51062000D02*
X66353500Y-51062000D01*
X66353500Y-52062000D02*
X65853500Y-52062000D01*
X65020000Y-51062000D02*
X65020000Y-52062000D01*
X64520000Y-51062000D02*
X65020000Y-51062000D01*
X64520000Y-52062000D02*
X64520000Y-51062000D01*
X65020000Y-52062000D02*
X64520000Y-52062000D01*
X54360000Y-60229000D02*
X54860000Y-60229000D01*
X54860000Y-60229000D02*
X54860000Y-61229000D01*
X54360000Y-61229000D02*
X54360000Y-60229000D01*
X54860000Y-61229000D02*
X54360000Y-61229000D01*
X57916000Y-60229000D02*
X58416000Y-60229000D01*
X57916000Y-61229000D02*
X57916000Y-60229000D01*
X58416000Y-60229000D02*
X58416000Y-61229000D01*
X58416000Y-61229000D02*
X57916000Y-61229000D01*
X60194000Y-60233800D02*
X60194000Y-61233800D01*
X59694000Y-61233800D02*
X59694000Y-60233800D01*
X60194000Y-61233800D02*
X59694000Y-61233800D01*
X59694000Y-60233800D02*
X60194000Y-60233800D01*
X54479000Y-41523400D02*
X53979000Y-41523400D01*
X53979000Y-41523400D02*
X53979000Y-40523400D01*
X54479000Y-40523400D02*
X54479000Y-41523400D01*
X53979000Y-40523400D02*
X54479000Y-40523400D01*
X30091000Y-65147000D02*
X29091000Y-65147000D01*
X30091000Y-64647000D02*
X30091000Y-65147000D01*
X29091000Y-65147000D02*
X29091000Y-64647000D01*
X29091000Y-64647000D02*
X30091000Y-64647000D01*
X37076000Y-64647000D02*
X37076000Y-65147000D01*
X36076000Y-65147000D02*
X36076000Y-64647000D01*
X36076000Y-64647000D02*
X37076000Y-64647000D01*
X37076000Y-65147000D02*
X36076000Y-65147000D01*
X40736000Y-59051000D02*
X39736000Y-59051000D01*
X39736000Y-59051000D02*
X39736000Y-58551000D01*
X39736000Y-58551000D02*
X40736000Y-58551000D01*
X40736000Y-58551000D02*
X40736000Y-59051000D01*
X28653500Y-61972000D02*
X27653500Y-61972000D01*
X27653500Y-61972000D02*
X27653500Y-61472000D01*
X27653500Y-61472000D02*
X28653500Y-61472000D01*
X28653500Y-61472000D02*
X28653500Y-61972000D01*
X50792000Y-25896000D02*
X50292000Y-25188893D01*
X45042000Y-20696000D02*
X48417000Y-20696000D01*
X50292000Y-25188893D02*
X49792000Y-25896000D01*
X48417000Y-25896000D02*
X50942000Y-25896000D01*
X50942000Y-25896000D02*
X50942000Y-26196000D01*
X45892000Y-25896000D02*
X45892000Y-26196000D01*
X51792000Y-26196000D02*
X51792000Y-20696000D01*
X45042000Y-26196000D02*
X45042000Y-20696000D01*
X51792000Y-20696000D02*
X48417000Y-20696000D01*
X48417000Y-25896000D02*
X45892000Y-25896000D01*
X45892000Y-26196000D02*
X45042000Y-26196000D01*
X50942000Y-26196000D02*
X51792000Y-26196000D01*
X67110000Y-47679000D02*
X67110000Y-48724000D01*
X65840000Y-48724000D02*
X66240000Y-48724000D01*
X63700000Y-43224000D02*
X63700000Y-44269000D01*
X68380000Y-48724000D02*
X68780000Y-48724000D01*
X69215000Y-47679000D02*
X63300000Y-47679000D01*
X68780000Y-48724000D02*
X68780000Y-47679000D01*
X62865000Y-47244000D02*
X62865000Y-44269000D01*
X63700000Y-48724000D02*
X63700000Y-47679000D01*
X65840000Y-43224000D02*
X66240000Y-43224000D01*
X65840000Y-44269000D02*
X65840000Y-43224000D01*
X67110000Y-43224000D02*
X67510000Y-43224000D01*
X68780000Y-43224000D02*
X68780000Y-44269000D01*
X65840000Y-47679000D02*
X65840000Y-48724000D01*
X63300000Y-44269000D02*
X63300000Y-43224000D01*
X64970000Y-48724000D02*
X64970000Y-47679000D01*
X63300000Y-43224000D02*
X63700000Y-43224000D01*
X69215000Y-44269000D02*
X69215000Y-47679000D01*
X63300000Y-48724000D02*
X63700000Y-48724000D01*
X64570000Y-48724000D02*
X64970000Y-48724000D01*
X66240000Y-43224000D02*
X66240000Y-44269000D01*
X64970000Y-43224000D02*
X64970000Y-44269000D01*
X68380000Y-47679000D02*
X68380000Y-48724000D01*
X68380000Y-43224000D02*
X68780000Y-43224000D01*
X66240000Y-48724000D02*
X66240000Y-47679000D01*
X67110000Y-48724000D02*
X67510000Y-48724000D01*
X67110000Y-44269000D02*
X67110000Y-43224000D01*
X64570000Y-44269000D02*
X64570000Y-43224000D01*
X67510000Y-48724000D02*
X67510000Y-47679000D01*
X63300000Y-47679000D02*
X62865000Y-47244000D01*
X64570000Y-47679000D02*
X64570000Y-48724000D01*
X64570000Y-43224000D02*
X64970000Y-43224000D01*
X62865000Y-44269000D02*
X69215000Y-44269000D01*
X63300000Y-47679000D02*
X63300000Y-48724000D01*
X67510000Y-43224000D02*
X67510000Y-44269000D01*
X68380000Y-44269000D02*
X68380000Y-43224000D01*
X59341000Y-33593200D02*
X59991000Y-32943200D01*
X61141000Y-32943200D02*
X61141000Y-36043200D01*
X61141000Y-32943200D02*
X59991000Y-32943200D01*
X59341000Y-33593200D02*
X59341000Y-36043200D01*
X61141000Y-36043200D02*
X59341000Y-36043200D01*
X52259000Y-38170000D02*
X52259000Y-34220000D01*
X57469000Y-38170000D02*
X52259000Y-38170000D01*
X57469000Y-35220000D02*
X56469000Y-34220000D01*
X52259000Y-34220000D02*
X56469000Y-34220000D01*
X57469000Y-35220000D02*
X57469000Y-38170000D01*
X33123000Y-20696000D02*
X30998000Y-20696000D01*
X29723000Y-25896000D02*
X29723000Y-26196000D01*
X32273000Y-26196000D02*
X33123000Y-26196000D01*
X32123000Y-25896000D02*
X31623000Y-25188893D01*
X28873000Y-20696000D02*
X30998000Y-20696000D01*
X31623000Y-25188893D02*
X31123000Y-25896000D01*
X32273000Y-25896000D02*
X32273000Y-26196000D01*
X33123000Y-26196000D02*
X33123000Y-20696000D01*
X29723000Y-26196000D02*
X28873000Y-26196000D01*
X30998000Y-25896000D02*
X32273000Y-25896000D01*
X30998000Y-25896000D02*
X29723000Y-25896000D01*
X28873000Y-26196000D02*
X28873000Y-20696000D01*
X56638000Y-60229000D02*
X56638000Y-61229000D01*
X56638000Y-61229000D02*
X56138000Y-61229000D01*
X56138000Y-61229000D02*
X56138000Y-60229000D01*
X56138000Y-60229000D02*
X56638000Y-60229000D01*
X38339000Y-51304000D02*
X38339000Y-50804000D01*
X38339000Y-50804000D02*
X39339000Y-50804000D01*
X39339000Y-50804000D02*
X39339000Y-51304000D01*
X39339000Y-51304000D02*
X38339000Y-51304000D01*
X35564000Y-48354000D02*
X34564000Y-49354000D01*
X37064000Y-48554000D02*
X37064000Y-51354000D01*
X34564000Y-48554000D02*
X34764000Y-48354000D01*
X36864000Y-51554000D02*
X34764000Y-51554000D01*
X34564000Y-51354000D02*
X34564000Y-48554000D01*
X34764000Y-51554000D02*
X34564000Y-51354000D01*
X36864000Y-48354000D02*
X37064000Y-48554000D01*
X37064000Y-51354000D02*
X36864000Y-51554000D01*
X34764000Y-48354000D02*
X36864000Y-48354000D01*
D10*
X51736000Y-57070000D02*
X41736000Y-57070000D01*
X51736000Y-47070000D02*
X51736000Y-57070000D01*
X41736000Y-48070000D02*
X42736000Y-47070000D01*
X41736000Y-57070000D02*
X41736000Y-48070000D01*
X42736000Y-47070000D02*
X51736000Y-47070000D01*
D11*
X35268000Y-53956000D02*
X36868000Y-53956000D01*
X35268000Y-54756000D02*
X35268000Y-53956000D01*
X36868000Y-54756000D02*
X35268000Y-54756000D01*
X36868000Y-53956000D02*
X36868000Y-54756000D01*
X52455000Y-59047000D02*
X52455000Y-58047000D01*
X52455000Y-58047000D02*
X52955000Y-58047000D01*
X52955000Y-59047000D02*
X52455000Y-59047000D01*
X52955000Y-58047000D02*
X52955000Y-59047000D01*
X43188000Y-60075000D02*
X44188000Y-60075000D01*
X44188000Y-60575000D02*
X43188000Y-60575000D01*
X44188000Y-60075000D02*
X44188000Y-60575000D01*
X43188000Y-60575000D02*
X43188000Y-60075000D01*
X51312000Y-59047000D02*
X51312000Y-58047000D01*
X51312000Y-58047000D02*
X51812000Y-58047000D01*
X51812000Y-58047000D02*
X51812000Y-59047000D01*
X51812000Y-59047000D02*
X51312000Y-59047000D01*
X52713000Y-46325600D02*
X52713000Y-45825600D01*
X53713000Y-46325600D02*
X52713000Y-46325600D01*
X53713000Y-45825600D02*
X53713000Y-46325600D01*
X52713000Y-45825600D02*
X53713000Y-45825600D01*
X39759000Y-46867000D02*
X40759000Y-46867000D01*
X39759000Y-47367000D02*
X39759000Y-46867000D01*
X40759000Y-47367000D02*
X39759000Y-47367000D01*
X40759000Y-46867000D02*
X40759000Y-47367000D01*
X53833000Y-48391000D02*
X54833000Y-48391000D01*
X54833000Y-48391000D02*
X54833000Y-48891000D01*
X54833000Y-48891000D02*
X53833000Y-48891000D01*
X53833000Y-48891000D02*
X53833000Y-48391000D01*
X50415000Y-60167000D02*
X49915000Y-60167000D01*
X49915000Y-60167000D02*
X49915000Y-59167000D01*
X50415000Y-59167000D02*
X50415000Y-60167000D01*
X49915000Y-59167000D02*
X50415000Y-59167000D01*
X36337000Y-46740000D02*
X36337000Y-47240000D01*
X35337000Y-47240000D02*
X35337000Y-46740000D01*
X36337000Y-47240000D02*
X35337000Y-47240000D01*
X35337000Y-46740000D02*
X36337000Y-46740000D01*
X38604000Y-54244000D02*
X38104000Y-54244000D01*
X38104000Y-54244000D02*
X38104000Y-53244000D01*
X38104000Y-53244000D02*
X38604000Y-53244000D01*
X38604000Y-53244000D02*
X38604000Y-54244000D01*
X44188000Y-58932000D02*
X44188000Y-59432000D01*
X43188000Y-59432000D02*
X43188000Y-58932000D01*
X43188000Y-58932000D02*
X44188000Y-58932000D01*
X44188000Y-59432000D02*
X43188000Y-59432000D01*
X43703000Y-45208000D02*
X42703000Y-45208000D01*
X42703000Y-44708000D02*
X43703000Y-44708000D01*
X42703000Y-45208000D02*
X42703000Y-44708000D01*
X43703000Y-44708000D02*
X43703000Y-45208000D01*
X41548000Y-43650000D02*
X41548000Y-45250000D01*
X40748000Y-45250000D02*
X40748000Y-43650000D01*
X40748000Y-43650000D02*
X41548000Y-43650000D01*
X41548000Y-45250000D02*
X40748000Y-45250000D01*
X55010000Y-57137500D02*
X54210000Y-57137500D01*
X54210000Y-57137500D02*
X54210000Y-58437500D01*
X54210000Y-58437500D02*
X54510000Y-58737500D01*
X55010000Y-58737500D02*
X55010000Y-57137500D01*
X54510000Y-58737500D02*
X55010000Y-58737500D01*
X60086000Y-26196000D02*
X60936000Y-26196000D01*
X60936000Y-20696000D02*
X57561000Y-20696000D01*
X57561000Y-25896000D02*
X60086000Y-25896000D01*
X57561000Y-25896000D02*
X55036000Y-25896000D01*
X59436000Y-25188893D02*
X58936000Y-25896000D01*
X60936000Y-26196000D02*
X60936000Y-20696000D01*
X55036000Y-26196000D02*
X54186000Y-26196000D01*
X54186000Y-26196000D02*
X54186000Y-20696000D01*
X54186000Y-20696000D02*
X57561000Y-20696000D01*
X59936000Y-25896000D02*
X59436000Y-25188893D01*
X60086000Y-25896000D02*
X60086000Y-26196000D01*
X55036000Y-25896000D02*
X55036000Y-26196000D01*
X28563500Y-60431500D02*
X20963500Y-60431500D01*
X21363500Y-53431500D02*
X28563500Y-53431500D01*
X26601500Y-59636500D02*
X24508500Y-57544500D01*
X26601500Y-56136500D02*
X24508500Y-54043500D01*
X26418500Y-56319500D02*
X24325500Y-54226500D01*
X21363500Y-53431500D02*
X21363500Y-60431500D01*
X22463500Y-53431500D02*
X22463500Y-60431500D01*
X20963500Y-60431500D02*
X20963500Y-53831500D01*
X20963500Y-53831500D02*
X21363500Y-53431500D01*
X28563500Y-53431500D02*
X28563500Y-60431500D01*
X26418500Y-59819500D02*
X24325500Y-57727500D01*
X26963500Y-55181500D02*
G75*
G03*
X26963500Y-55181500I-1500000J0D01*
G01*
X26963500Y-58681500D02*
G75*
G03*
X26963500Y-58681500I-1500000J0D01*
G01*
D10*
X63917000Y-38163000D02*
X69317000Y-38163000D01*
X69317000Y-30463000D02*
X69317000Y-30163000D01*
X69317000Y-30163000D02*
X63917000Y-30163000D01*
X70517000Y-37863000D02*
X70517000Y-30463000D01*
X63217000Y-35238000D02*
X63442000Y-35238000D01*
X69317000Y-38163000D02*
X69317000Y-37863000D01*
X63617000Y-35463000D02*
X63442000Y-35688000D01*
X70517000Y-30463000D02*
X69317000Y-30463000D01*
X69317000Y-37863000D02*
X70517000Y-37863000D01*
X63217000Y-35688000D02*
X63217000Y-35238000D01*
X63442000Y-35688000D02*
X63217000Y-35688000D01*
X69917000Y-36863000D02*
X69917000Y-31463000D01*
X63917000Y-30163000D02*
X63917000Y-38163000D01*
X63442000Y-35238000D02*
X63617000Y-35463000D01*
M02*
