%TF.GenerationSoftware,KiCad,Pcbnew,(6.0.9)*%
%TF.CreationDate,2023-03-10T17:43:12+02:00*%
%TF.ProjectId,RA_CA_2023_6,52415f43-415f-4323-9032-335f362e6b69,rev?*%
%TF.SameCoordinates,Original*%
%TF.FileFunction,Copper,L2,Bot*%
%TF.FilePolarity,Positive*%
%FSLAX46Y46*%
G04 Gerber Fmt 4.6, Leading zero omitted, Abs format (unit mm)*
G04 Created by KiCad (PCBNEW (6.0.9)) date 2023-03-10 17:43:12*
%MOMM*%
%LPD*%
G01*
G04 APERTURE LIST*
%TA.AperFunction,ComponentPad*%
%ADD10R,1.700000X1.700000*%
%TD*%
%TA.AperFunction,ComponentPad*%
%ADD11O,1.700000X1.700000*%
%TD*%
%TA.AperFunction,ViaPad*%
%ADD12C,0.800000*%
%TD*%
%TA.AperFunction,Conductor*%
%ADD13C,0.250000*%
%TD*%
G04 APERTURE END LIST*
D10*
%TO.P,J1,1,Pin_1*%
%TO.N,Net-(J1-Pad1)*%
X47830000Y-72170000D03*
D11*
%TO.P,J1,2,Pin_2*%
%TO.N,Net-(J1-Pad2)*%
X47830000Y-74710000D03*
%TO.P,J1,3,Pin_3*%
%TO.N,Net-(J1-Pad3)*%
X47830000Y-77250000D03*
%TO.P,J1,4,Pin_4*%
%TO.N,Net-(J1-Pad4)*%
X47830000Y-79790000D03*
%TO.P,J1,5,Pin_5*%
%TO.N,Net-(J1-Pad5)*%
X47830000Y-82330000D03*
%TD*%
D10*
%TO.P,J2,1,Pin_1*%
%TO.N,Net-(J2-Pad1)*%
X196520000Y-111095000D03*
D11*
%TO.P,J2,2,Pin_2*%
%TO.N,Net-(J2-Pad2)*%
X196520000Y-113635000D03*
%TO.P,J2,3,Pin_3*%
%TO.N,Net-(J2-Pad3)*%
X196520000Y-116175000D03*
%TO.P,J2,4,Pin_4*%
%TO.N,Net-(J2-Pad4)*%
X196520000Y-118715000D03*
%TO.P,J2,5,Pin_5*%
%TO.N,Net-(J2-Pad5)*%
X196520000Y-121255000D03*
%TD*%
D12*
%TO.N,Net-(J2-Pad5)*%
X169680000Y-86310000D03*
X169630000Y-84325500D03*
X149100000Y-71010000D03*
X150660000Y-72610000D03*
%TO.N,Net-(J1-Pad1)*%
X66700000Y-77010000D03*
X71850000Y-78690000D03*
%TO.N,Net-(J1-Pad3)*%
X146190000Y-68540000D03*
X149080000Y-73870000D03*
%TO.N,Net-(J2-Pad1)*%
X150340000Y-66690000D03*
X154520000Y-69430000D03*
X154520000Y-69430000D03*
%TO.N,Net-(J2-Pad2)*%
X152620000Y-70260000D03*
X150010000Y-67790000D03*
%TO.N,Net-(J2-Pad4)*%
X155560000Y-67370000D03*
X150960000Y-77520000D03*
%TD*%
D13*
%TO.N,Net-(J2-Pad5)*%
X169630000Y-86260000D02*
X169680000Y-86310000D01*
X169630000Y-84325500D02*
X169630000Y-86260000D01*
X149100000Y-71010000D02*
X149100000Y-71050000D01*
X149100000Y-71050000D02*
X150660000Y-72610000D01*
%TO.N,Net-(J1-Pad1)*%
X68380000Y-78690000D02*
X66700000Y-77010000D01*
X71850000Y-78690000D02*
X68380000Y-78690000D01*
%TO.N,Net-(J1-Pad3)*%
X146190000Y-68540000D02*
X146190000Y-70980000D01*
X146190000Y-70980000D02*
X149080000Y-73870000D01*
%TO.N,Net-(J2-Pad1)*%
X154520000Y-69430000D02*
X153080000Y-69430000D01*
X153080000Y-69430000D02*
X150340000Y-66690000D01*
%TO.N,Net-(J2-Pad2)*%
X152480000Y-70260000D02*
X152620000Y-70260000D01*
X150010000Y-67790000D02*
X152480000Y-70260000D01*
%TO.N,Net-(J2-Pad4)*%
X155560000Y-72920000D02*
X155560000Y-67370000D01*
X150960000Y-77520000D02*
X155560000Y-72920000D01*
%TD*%
M02*
