%TF.GenerationSoftware,KiCad,Pcbnew,(6.0.9)*%
%TF.CreationDate,2023-03-10T17:43:12+02:00*%
%TF.ProjectId,RA_CA_2023_6,52415f43-415f-4323-9032-335f362e6b69,rev?*%
%TF.SameCoordinates,Original*%
%TF.FileFunction,Legend,Bot*%
%TF.FilePolarity,Positive*%
%FSLAX46Y46*%
G04 Gerber Fmt 4.6, Leading zero omitted, Abs format (unit mm)*
G04 Created by KiCad (PCBNEW (6.0.9)) date 2023-03-10 17:43:12*
%MOMM*%
%LPD*%
G01*
G04 APERTURE LIST*
%ADD10C,0.150000*%
%ADD11C,0.120000*%
G04 APERTURE END LIST*
D10*
%TO.C,J1*%
X48163333Y-69292380D02*
X48163333Y-70006666D01*
X48210952Y-70149523D01*
X48306190Y-70244761D01*
X48449047Y-70292380D01*
X48544285Y-70292380D01*
X47163333Y-70292380D02*
X47734761Y-70292380D01*
X47449047Y-70292380D02*
X47449047Y-69292380D01*
X47544285Y-69435238D01*
X47639523Y-69530476D01*
X47734761Y-69578095D01*
%TO.C,J2*%
X196853333Y-108217380D02*
X196853333Y-108931666D01*
X196900952Y-109074523D01*
X196996190Y-109169761D01*
X197139047Y-109217380D01*
X197234285Y-109217380D01*
X196424761Y-108312619D02*
X196377142Y-108265000D01*
X196281904Y-108217380D01*
X196043809Y-108217380D01*
X195948571Y-108265000D01*
X195900952Y-108312619D01*
X195853333Y-108407857D01*
X195853333Y-108503095D01*
X195900952Y-108645952D01*
X196472380Y-109217380D01*
X195853333Y-109217380D01*
D11*
%TO.C,J1*%
X49160000Y-70840000D02*
X47830000Y-70840000D01*
X49160000Y-73440000D02*
X49160000Y-83660000D01*
X49160000Y-72170000D02*
X49160000Y-70840000D01*
X49160000Y-73440000D02*
X46500000Y-73440000D01*
X49160000Y-83660000D02*
X46500000Y-83660000D01*
X46500000Y-73440000D02*
X46500000Y-83660000D01*
%TO.C,J2*%
X197850000Y-112365000D02*
X195190000Y-112365000D01*
X195190000Y-112365000D02*
X195190000Y-122585000D01*
X197850000Y-111095000D02*
X197850000Y-109765000D01*
X197850000Y-122585000D02*
X195190000Y-122585000D01*
X197850000Y-112365000D02*
X197850000Y-122585000D01*
X197850000Y-109765000D02*
X196520000Y-109765000D01*
%TD*%
M02*
